<svg width="1200" height="630" viewBox="0 0 1200 630" xmlns="http://www.w3.org/2000/svg"><defs><pattern id="satori_pattern_id_0" x="0" y="0" width="1" height="1" patternUnits="objectBoundingBox"><radialGradient id="satori_radial_id_0" spreadMethod="pad"><stop offset="0" stop-color="#1e293b"/><stop offset="0.6" stop-color="#020617"/><stop offset="1" stop-color="#020617"/></radialGradient><mask id="satori_mask_id_0"><rect x="0" y="0" width="1200" height="630" fill="#fff"/></mask><rect x="0" y="0" width="1200" height="630" fill="#020617"/><circle cx="300" cy="157.5" width="1200" height="630" r="1016.4921298268865" fill="url(#satori_radial_id_0)" mask="url(#satori_mask_id_0)"/></pattern></defs><mask id="satori_om-id"><rect x="0" y="0" width="1200" height="630" fill="#fff"/></mask><rect x="0" y="0" width="1200" height="630" fill="url(#satori_pattern_id_0)"/><defs><pattern id="satori_pattern_id-0_1" x="NaN" y="NaN" width="Infinity" height="Infinity" patternUnits="objectBoundingBox"><linearGradient id="satori_biid-0_1" x1="0" y1="0" x2="1" y2="0" spreadMethod="pad"><stop offset="0%" stop-color="rgba(255,255,255,0.06)"/><stop offset="2.380952380952381%" stop-color="rgba(255,255,255,0.06)"/><stop offset="2.380952380952381%" stop-color="transparent"/><stop offset="100%" stop-color="transparent"/></linearGradient><rect x="0" y="0" width="42" height="42" fill="url(#satori_biid-0_1)"/></pattern><pattern id="satori_pattern_id-0_0" x="NaN" y="NaN" width="Infinity" height="Infinity" patternUnits="objectBoundingBox"><linearGradient id="satori_biid-0_0" x1="0" y1="0" x2="0" y2="1" spreadMethod="pad"><stop offset="0%" stop-color="rgba(255,255,255,0.06)"/><stop offset="2.380952380952381%" stop-color="rgba(255,255,255,0.06)"/><stop offset="2.380952380952381%" stop-color="transparent"/><stop offset="100%" stop-color="transparent"/></linearGradient><rect x="0" y="0" width="42" height="42" fill="url(#satori_biid-0_0)"/></pattern></defs><mask id="satori_om-id-0"><rect x="80" y="80" width="0" height="0" fill="#fff"/></mask><rect x="80" y="80" width="0" height="0" fill="url(#satori_pattern_id-0_1)"/><rect x="80" y="80" width="0" height="0" fill="url(#satori_pattern_id-0_0)"/><mask id="satori_om-id-1"><rect x="80" y="80" width="1040" height="51" fill="#fff"/></mask><g opacity="0.85"></g><mask id="satori_om-id-1-0"><rect x="80" y="80" width="283" height="51" fill="#fff"/></mask><g opacity="0.85"></g><g  ><path fill="white" d="M87.8 105.3L87.8 105.3Q85.8 105.3 84.4 104.4Q82.9 103.5 82.1 101.8Q81.3 100.2 81.3 98.0L81.3 98.0Q81.3 95.8 82.1 94.1Q82.9 92.5 84.4 91.5Q85.8 90.6 87.8 90.6L87.8 90.6Q89.7 90.6 91.1 91.5Q92.6 92.5 93.4 94.1Q94.2 95.8 94.2 98.0L94.2 98.0Q94.2 100.2 93.4 101.8Q92.6 103.5 91.1 104.4Q89.7 105.3 87.8 105.3ZM87.8 103.3L87.8 103.3Q89.2 103.3 90.2 102.6Q91.1 101.8 91.6 100.6Q92.0 99.4 92.0 98.0L92.0 98.0Q92.0 96.6 91.6 95.3Q91.1 94.1 90.2 93.3Q89.2 92.6 87.8 92.6L87.8 92.6Q86.3 92.6 85.4 93.3Q84.4 94.1 84.0 95.3Q83.5 96.6 83.5 98.0L83.5 98.0Q83.5 99.4 84.0 100.6Q84.4 101.8 85.4 102.6Q86.3 103.3 87.8 103.3ZM107.3 94.0L107.3 94.0L105.3 94.5Q105.1 94.1 104.8 93.6Q104.4 93.1 103.8 92.8Q103.2 92.5 102.3 92.5L102.3 92.5Q101.0 92.5 100.1 93.1Q99.2 93.7 99.2 94.6L99.2 94.6Q99.2 95.4 99.8 95.9Q100.4 96.4 101.7 96.7L101.7 96.7L103.8 97.2Q105.7 97.7 106.6 98.6Q107.5 99.6 107.5 101.0L107.5 101.0Q107.5 102.3 106.9 103.2Q106.2 104.2 104.9 104.7Q103.7 105.3 102.0 105.3L102.0 105.3Q99.8 105.3 98.4 104.4Q97.0 103.4 96.6 101.6L96.6 101.6L98.7 101.1Q99.0 102.2 99.8 102.8Q100.6 103.4 102.0 103.4L102.0 103.4Q103.5 103.4 104.4 102.7Q105.3 102.1 105.3 101.2L105.3 101.2Q105.3 100.4 104.8 99.9Q104.3 99.4 103.2 99.2L103.2 99.2L100.8 98.6Q98.9 98.1 98.0 97.2Q97.1 96.2 97.1 94.7L97.1 94.7Q97.1 93.5 97.7 92.6Q98.4 91.7 99.6 91.2Q100.8 90.6 102.3 90.6L102.3 90.6Q104.4 90.6 105.6 91.6Q106.8 92.5 107.3 94.0ZM116.3 105.3L116.3 105.3Q114.3 105.3 112.9 104.4Q111.5 103.4 110.7 101.8Q109.9 100.1 109.9 98.0L109.9 98.0Q109.9 95.8 110.7 94.2Q111.5 92.5 112.9 91.6Q114.4 90.6 116.3 90.6L116.3 90.6Q117.8 90.6 119.0 91.2Q120.2 91.7 121.0 92.7Q121.7 93.7 121.9 95.1L121.9 95.1L119.7 95.1Q119.5 94.1 118.6 93.3Q117.8 92.6 116.3 92.6L116.3 92.6Q115.1 92.6 114.1 93.3Q113.2 93.9 112.6 95.1Q112.1 96.3 112.1 97.9L112.1 97.9Q112.1 99.6 112.6 100.8Q113.1 102.0 114.1 102.7Q115.0 103.3 116.3 103.3L116.3 103.3Q117.2 103.3 117.9 103.0Q118.6 102.7 119.1 102.2Q119.5 101.6 119.7 100.9L119.7 100.9L121.9 100.9Q121.7 102.1 121.0 103.1Q120.3 104.1 119.1 104.7Q117.9 105.3 116.3 105.3ZM129.0 105.3L129.0 105.3Q127.7 105.3 126.6 104.8Q125.5 104.3 124.8 103.3Q124.2 102.4 124.2 101.0L124.2 101.0Q124.2 99.8 124.6 99.0Q125.1 98.2 125.9 97.8Q126.7 97.4 127.7 97.1Q128.7 96.9 129.7 96.8L129.7 96.8Q131.0 96.6 131.8 96.5Q132.6 96.5 133.0 96.2Q133.3 96.0 133.3 95.5L133.3 95.5L133.3 95.4Q133.3 94.1 132.6 93.3Q131.8 92.6 130.3 92.6L130.3 92.6Q128.8 92.6 127.9 93.2Q127.0 93.9 126.6 94.7L126.6 94.7L124.6 94.0Q125.1 92.7 126.1 91.9Q127.0 91.2 128.1 90.9Q129.2 90.6 130.3 90.6L130.3 90.6Q130.9 90.6 131.8 90.8Q132.7 91.0 133.6 91.5Q134.4 92.0 135.0 93.0Q135.5 94.0 135.5 95.7L135.5 95.7L135.5 105L133.3 105L133.3 103.1L133.2 103.1Q133.0 103.5 132.5 104.1Q132.0 104.6 131.1 105.0Q130.2 105.3 129.0 105.3ZM129.3 103.4L129.3 103.4Q130.6 103.4 131.5 102.9Q132.4 102.4 132.9 101.6Q133.3 100.8 133.3 99.9L133.3 99.9L133.3 97.9Q133.2 98.0 132.7 98.2Q132.3 98.3 131.6 98.4Q131.0 98.5 130.5 98.6Q129.9 98.6 129.6 98.7L129.6 98.7Q128.7 98.8 128.0 99.0Q127.2 99.3 126.8 99.8Q126.3 100.3 126.3 101.1L126.3 101.1Q126.3 102.2 127.2 102.8Q128.0 103.4 129.3 103.4ZM141.4 105L139.2 105L139.2 90.8L141.3 90.8L141.3 93.0L141.5 93.0Q141.9 91.9 142.9 91.3Q143.9 90.6 145.2 90.6L145.2 90.6Q145.4 90.6 145.8 90.6Q146.1 90.6 146.3 90.6L146.3 90.6L146.3 92.8Q146.2 92.8 145.8 92.8Q145.4 92.7 145.0 92.7L145.0 92.7Q144.0 92.7 143.2 93.1Q142.3 93.6 141.9 94.3Q141.4 95.1 141.4 96.0L141.4 96.0L141.4 105ZM148.6 105.1L148.6 105.1Q147.9 105.1 147.4 104.7Q147.0 104.2 147.0 103.5L147.0 103.5Q147.0 102.8 147.4 102.3Q147.9 101.8 148.6 101.8L148.6 101.8Q149.3 101.8 149.8 102.3Q150.3 102.8 150.3 103.5L150.3 103.5Q150.3 103.9 150.0 104.3Q149.8 104.7 149.4 104.9Q149.1 105.1 148.6 105.1ZM159.3 105.3L159.3 105.3Q157.5 105.3 156.2 104.4Q154.8 103.5 154.0 101.8Q153.3 100.2 153.3 97.9L153.3 97.9Q153.3 95.7 154.0 94.1Q154.8 92.4 156.2 91.5Q157.5 90.6 159.3 90.6L159.3 90.6Q160.7 90.6 161.5 91.1Q162.3 91.5 162.8 92.1Q163.2 92.7 163.4 93.1L163.4 93.1L163.6 93.1L163.6 86.1L165.8 86.1L165.8 105L163.7 105L163.7 102.8L163.4 102.8Q163.2 103.2 162.7 103.8Q162.3 104.4 161.5 104.8Q160.7 105.3 159.3 105.3ZM159.6 103.3L159.6 103.3Q160.9 103.3 161.8 102.7Q162.7 102.0 163.2 100.7Q163.6 99.5 163.6 97.9L163.6 97.9Q163.6 96.3 163.2 95.1Q162.7 93.9 161.8 93.3Q160.9 92.6 159.6 92.6L159.6 92.6Q158.2 92.6 157.3 93.3Q156.4 94.0 155.9 95.2Q155.4 96.4 155.4 97.9L155.4 97.9Q155.4 99.4 155.9 100.7Q156.4 101.9 157.3 102.6Q158.2 103.3 159.6 103.3ZM175.8 105.3L175.8 105.3Q173.7 105.3 172.2 104.4Q170.7 103.5 169.9 101.8Q169.1 100.2 169.1 98.0L169.1 98.0Q169.1 95.8 169.9 94.2Q170.7 92.5 172.2 91.6Q173.6 90.6 175.5 90.6L175.5 90.6Q176.6 90.6 177.7 91.0Q178.8 91.4 179.7 92.2Q180.6 93.0 181.1 94.4Q181.6 95.7 181.6 97.7L181.6 97.7L181.6 98.6L170.7 98.6L170.7 96.8L179.4 96.8Q179.4 95.6 178.9 94.6Q178.5 93.7 177.6 93.1Q176.7 92.6 175.5 92.6L175.5 92.6Q174.2 92.6 173.3 93.2Q172.3 93.9 171.8 94.9Q171.3 95.9 171.3 97.1L171.3 97.1L171.3 98.4Q171.3 100.0 171.9 101.1Q172.4 102.2 173.4 102.8Q174.4 103.3 175.8 103.3L175.8 103.3Q176.6 103.3 177.3 103.1Q178.0 102.8 178.5 102.4Q179.0 101.9 179.3 101.1L179.3 101.1L181.4 101.7Q181.1 102.8 180.3 103.6Q179.5 104.4 178.3 104.8Q177.2 105.3 175.8 105.3ZM183.4 90.8L191.0 90.8L191.0 92.7L183.4 92.7L183.4 90.8ZM187.8 105L185.7 105L185.7 88.9Q185.7 87.6 186.2 86.8Q186.8 86.0 187.7 85.6Q188.6 85.2 189.6 85.2L189.6 85.2Q190.4 85.2 190.9 85.3Q191.5 85.5 191.7 85.6L191.7 85.6L191.1 87.5Q190.9 87.4 190.6 87.3Q190.3 87.2 189.9 87.2L189.9 87.2Q188.8 87.2 188.3 87.8Q187.8 88.3 187.8 89.4L187.8 89.4L187.8 105ZM196.0 105L193.8 105L193.8 90.8L195.9 90.8L195.9 93.0L196.1 93.0Q196.5 91.9 197.5 91.3Q198.5 90.6 199.8 90.6L199.8 90.6Q200.0 90.6 200.4 90.6Q200.7 90.6 200.9 90.6L200.9 90.6L200.9 92.8Q200.8 92.8 200.4 92.8Q200.0 92.7 199.6 92.7L199.6 92.7Q198.5 92.7 197.7 93.1Q196.9 93.6 196.5 94.3Q196.0 95.1 196.0 96.0L196.0 96.0L196.0 105ZM207.4 105.3L207.4 105.3Q206.1 105.3 205.0 104.8Q203.9 104.3 203.2 103.3Q202.6 102.4 202.6 101.0L202.6 101.0Q202.6 99.8 203.0 99.0Q203.5 98.2 204.3 97.8Q205.1 97.4 206.1 97.1Q207.1 96.9 208.1 96.8L208.1 96.8Q209.4 96.6 210.2 96.5Q211.0 96.5 211.3 96.2Q211.7 96.0 211.7 95.5L211.7 95.5L211.7 95.4Q211.7 94.1 211.0 93.3Q210.2 92.6 208.7 92.6L208.7 92.6Q207.2 92.6 206.3 93.2Q205.4 93.9 205.0 94.7L205.0 94.7L203.0 94.0Q203.5 92.7 204.5 91.9Q205.4 91.2 206.5 90.9Q207.6 90.6 208.7 90.6L208.7 90.6Q209.3 90.6 210.2 90.8Q211.1 91.0 212.0 91.5Q212.8 92.0 213.3 93.0Q213.9 94.0 213.9 95.7L213.9 95.7L213.9 105L211.7 105L211.7 103.1L211.6 103.1Q211.4 103.5 210.9 104.1Q210.4 104.6 209.5 105.0Q208.6 105.3 207.4 105.3ZM207.7 103.4L207.7 103.4Q209.0 103.4 209.9 102.9Q210.8 102.4 211.3 101.6Q211.7 100.8 211.7 99.9L211.7 99.9L211.7 97.9Q211.6 98.0 211.1 98.2Q210.7 98.3 210.0 98.4Q209.4 98.5 208.9 98.6Q208.3 98.6 208.0 98.7L208.0 98.7Q207.1 98.8 206.4 99.0Q205.6 99.3 205.2 99.8Q204.7 100.3 204.7 101.1L204.7 101.1Q204.7 102.2 205.6 102.8Q206.4 103.4 207.7 103.4ZM219.8 96.5L219.8 96.5L219.8 105L217.6 105L217.6 90.8L219.7 90.8L219.7 93.0L219.9 93.0Q220.4 92.0 221.4 91.3Q222.4 90.6 224.1 90.6L224.1 90.6Q225.5 90.6 226.6 91.2Q227.7 91.8 228.3 93.0Q228.9 94.2 228.9 96.0L228.9 96.0L228.9 105L226.7 105L226.7 96.1Q226.7 94.5 225.8 93.5Q224.9 92.6 223.4 92.6L223.4 92.6Q222.4 92.6 221.6 93.0Q220.7 93.5 220.3 94.4Q219.8 95.2 219.8 96.5ZM238.3 105.3L238.3 105.3Q236.4 105.3 234.9 104.4Q233.5 103.4 232.7 101.8Q231.9 100.1 231.9 98.0L231.9 98.0Q231.9 95.8 232.7 94.2Q233.5 92.5 235.0 91.6Q236.4 90.6 238.3 90.6L238.3 90.6Q239.8 90.6 241.0 91.2Q242.2 91.7 243.0 92.7Q243.7 93.7 243.9 95.1L243.9 95.1L241.7 95.1Q241.5 94.1 240.6 93.3Q239.8 92.6 238.3 92.6L238.3 92.6Q237.1 92.6 236.1 93.3Q235.2 93.9 234.6 95.1Q234.1 96.3 234.1 97.9L234.1 97.9Q234.1 99.6 234.6 100.8Q235.1 102.0 236.1 102.7Q237.1 103.3 238.3 103.3L238.3 103.3Q239.2 103.3 239.9 103.0Q240.6 102.7 241.1 102.2Q241.5 101.6 241.7 100.9L241.7 100.9L243.9 100.9Q243.7 102.1 243.0 103.1Q242.3 104.1 241.1 104.7Q239.9 105.3 238.3 105.3ZM252.8 105.3L252.8 105.3Q250.7 105.3 249.3 104.4Q247.8 103.5 247.0 101.8Q246.2 100.2 246.2 98.0L246.2 98.0Q246.2 95.8 247.0 94.2Q247.8 92.5 249.2 91.6Q250.6 90.6 252.6 90.6L252.6 90.6Q253.7 90.6 254.8 91.0Q255.8 91.4 256.7 92.2Q257.6 93.0 258.1 94.4Q258.7 95.7 258.7 97.7L258.7 97.7L258.7 98.6L247.7 98.6L247.7 96.8L256.4 96.8Q256.4 95.6 256.0 94.6Q255.5 93.7 254.6 93.1Q253.7 92.6 252.6 92.6L252.6 92.6Q251.3 92.6 250.3 93.2Q249.4 93.9 248.9 94.9Q248.4 95.9 248.4 97.1L248.4 97.1L248.4 98.4Q248.4 100.0 248.9 101.1Q249.5 102.2 250.5 102.8Q251.5 103.3 252.8 103.3L252.8 103.3Q253.6 103.3 254.3 103.1Q255.0 102.8 255.5 102.4Q256.1 101.9 256.3 101.1L256.3 101.1L258.4 101.7Q258.1 102.8 257.3 103.6Q256.5 104.4 255.4 104.8Q254.2 105.3 252.8 105.3ZM271.8 94.0L271.8 94.0L269.8 94.5Q269.6 94.1 269.3 93.6Q268.9 93.1 268.3 92.8Q267.7 92.5 266.7 92.5L266.7 92.5Q265.4 92.5 264.6 93.1Q263.7 93.7 263.7 94.6L263.7 94.6Q263.7 95.4 264.3 95.9Q264.9 96.4 266.2 96.7L266.2 96.7L268.3 97.2Q270.2 97.7 271.1 98.6Q272.0 99.6 272.0 101.0L272.0 101.0Q272.0 102.3 271.3 103.2Q270.6 104.2 269.4 104.7Q268.1 105.3 266.5 105.3L266.5 105.3Q264.3 105.3 262.9 104.4Q261.5 103.4 261.1 101.6L261.1 101.6L263.2 101.1Q263.5 102.2 264.3 102.8Q265.1 103.4 266.4 103.4L266.4 103.4Q268.0 103.4 268.9 102.7Q269.8 102.1 269.8 101.2L269.8 101.2Q269.8 100.4 269.3 99.9Q268.7 99.4 267.7 99.2L267.7 99.2L265.3 98.6Q263.4 98.1 262.4 97.2Q261.5 96.2 261.5 94.7L261.5 94.7Q261.5 93.5 262.2 92.6Q262.9 91.7 264.1 91.2Q265.2 90.6 266.7 90.6L266.7 90.6Q268.8 90.6 270.1 91.6Q271.3 92.5 271.8 94.0ZM280.8 105.3L280.8 105.3Q278.8 105.3 277.4 104.4Q275.9 103.4 275.2 101.8Q274.4 100.1 274.4 98.0L274.4 98.0Q274.4 95.8 275.2 94.2Q276.0 92.5 277.4 91.6Q278.9 90.6 280.8 90.6L280.8 90.6Q282.3 90.6 283.5 91.2Q284.7 91.7 285.4 92.7Q286.2 93.7 286.4 95.1L286.4 95.1L284.2 95.1Q284.0 94.1 283.1 93.3Q282.3 92.6 280.8 92.6L280.8 92.6Q279.5 92.6 278.6 93.3Q277.6 93.9 277.1 95.1Q276.6 96.3 276.6 97.9L276.6 97.9Q276.6 99.6 277.1 100.8Q277.6 102.0 278.6 102.7Q279.5 103.3 280.8 103.3L280.8 103.3Q281.7 103.3 282.4 103.0Q283.0 102.7 283.5 102.2Q284.0 101.6 284.2 100.9L284.2 100.9L286.4 100.9Q286.2 102.1 285.5 103.1Q284.8 104.1 283.6 104.7Q282.4 105.3 280.8 105.3ZM293.5 105.3L293.5 105.3Q292.1 105.3 291.0 104.8Q289.9 104.3 289.3 103.3Q288.6 102.4 288.6 101.0L288.6 101.0Q288.6 99.8 289.1 99.0Q289.6 98.2 290.4 97.8Q291.2 97.4 292.2 97.1Q293.2 96.9 294.1 96.8L294.1 96.8Q295.4 96.6 296.2 96.5Q297.1 96.5 297.4 96.2Q297.8 96.0 297.8 95.5L297.8 95.5L297.8 95.4Q297.8 94.1 297.1 93.3Q296.3 92.6 294.8 92.6L294.8 92.6Q293.2 92.6 292.4 93.2Q291.5 93.9 291.1 94.7L291.1 94.7L289.0 94.0Q289.6 92.7 290.5 91.9Q291.5 91.2 292.6 90.9Q293.7 90.6 294.7 90.6L294.7 90.6Q295.4 90.6 296.3 90.8Q297.2 91.0 298.0 91.5Q298.9 92.0 299.4 93.0Q300.0 94.0 300.0 95.7L300.0 95.7L300.0 105L297.8 105L297.8 103.1L297.7 103.1Q297.5 103.5 297.0 104.1Q296.4 104.6 295.6 105.0Q294.7 105.3 293.5 105.3ZM293.8 103.4L293.8 103.4Q295.1 103.4 296.0 102.9Q296.9 102.4 297.3 101.6Q297.8 100.8 297.8 99.9L297.8 99.9L297.8 97.9Q297.7 98.0 297.2 98.2Q296.7 98.3 296.1 98.4Q295.5 98.5 295.0 98.6Q294.4 98.6 294.0 98.7L294.0 98.7Q293.2 98.8 292.4 99.0Q291.7 99.3 291.3 99.8Q290.8 100.3 290.8 101.1L290.8 101.1Q290.8 102.2 291.7 102.8Q292.5 103.4 293.8 103.4ZM305.3 105.1L305.3 105.1Q304.6 105.1 304.1 104.7Q303.6 104.2 303.6 103.5L303.6 103.5Q303.6 102.8 304.1 102.3Q304.6 101.8 305.3 101.8L305.3 101.8Q306.0 101.8 306.5 102.3Q307.0 102.8 307.0 103.5L307.0 103.5Q307.0 103.9 306.7 104.3Q306.5 104.7 306.1 104.9Q305.8 105.1 305.3 105.1ZM316.4 105.3L316.4 105.3Q314.4 105.3 312.9 104.4Q311.5 103.4 310.7 101.8Q309.9 100.1 309.9 98.0L309.9 98.0Q309.9 95.8 310.7 94.2Q311.5 92.5 313.0 91.6Q314.4 90.6 316.3 90.6L316.3 90.6Q317.8 90.6 319.0 91.2Q320.2 91.7 321.0 92.7Q321.8 93.7 322.0 95.1L322.0 95.1L319.8 95.1Q319.5 94.1 318.7 93.3Q317.8 92.6 316.4 92.6L316.4 92.6Q315.1 92.6 314.1 93.3Q313.2 93.9 312.7 95.1Q312.1 96.3 312.1 97.9L312.1 97.9Q312.1 99.6 312.6 100.8Q313.2 102.0 314.1 102.7Q315.1 103.3 316.4 103.3L316.4 103.3Q317.2 103.3 317.9 103.0Q318.6 102.7 319.1 102.2Q319.6 101.6 319.8 100.9L319.8 100.9L322.0 100.9Q321.8 102.1 321.0 103.1Q320.3 104.1 319.1 104.7Q317.9 105.3 316.4 105.3ZM330.6 105.3L330.6 105.3Q328.7 105.3 327.3 104.4Q325.8 103.5 325.0 101.8Q324.2 100.2 324.2 98.0L324.2 98.0Q324.2 95.8 325.0 94.1Q325.8 92.5 327.3 91.5Q328.7 90.6 330.6 90.6L330.6 90.6Q332.5 90.6 334.0 91.5Q335.4 92.5 336.2 94.1Q337.1 95.8 337.1 98.0L337.1 98.0Q337.1 100.2 336.2 101.8Q335.4 103.5 334.0 104.4Q332.5 105.3 330.6 105.3ZM330.6 103.3L330.6 103.3Q332.1 103.3 333.0 102.6Q334.0 101.8 334.4 100.6Q334.9 99.4 334.9 98.0L334.9 98.0Q334.9 96.6 334.4 95.3Q334.0 94.1 333.0 93.3Q332.1 92.6 330.6 92.6L330.6 92.6Q329.2 92.6 328.2 93.3Q327.3 94.1 326.8 95.3Q326.4 96.6 326.4 98.0L326.4 98.0Q326.4 99.4 326.8 100.6Q327.3 101.8 328.2 102.6Q329.2 103.3 330.6 103.3ZM342.3 105L340.1 105L340.1 90.8L342.2 90.8L342.2 93.0L342.4 93.0Q342.9 91.9 343.8 91.3Q344.8 90.6 346.2 90.6L346.2 90.6Q347.6 90.6 348.6 91.3Q349.5 91.9 350.0 93.0L350.0 93.0L350.2 93.0Q350.7 91.9 351.8 91.3Q352.9 90.6 354.4 90.6L354.4 90.6Q356.3 90.6 357.5 91.8Q358.7 93.0 358.7 95.5L358.7 95.5L358.7 105L356.6 105L356.6 95.5Q356.6 93.9 355.7 93.3Q354.8 92.6 353.7 92.6L353.7 92.6Q352.2 92.6 351.4 93.5Q350.5 94.4 350.5 95.8L350.5 95.8L350.5 105L348.3 105L348.3 95.3Q348.3 94.1 347.5 93.3Q346.7 92.6 345.5 92.6L345.5 92.6Q344.7 92.6 343.9 93.0Q343.2 93.5 342.7 94.3Q342.3 95.1 342.3 96.1L342.3 96.1L342.3 105Z " opacity="0.85"/></g><mask id="satori_om-id-1-1"><rect x="982" y="80" width="138" height="51" fill="#fff"/></mask><g opacity="0.85"><path x="982" y="80" width="138" height="51" fill="rgba(255,255,255,0.08)" d="M1007.5,80 h87 a25.5,25.5 0 0 1 25.5,25.5 v0 a25.5,25.5 0 0 1 -25.5,25.5 h-87 a25.5,25.5 0 0 1 -25.5,-25.5 v0 a25.5,25.5 0 0 1 25.5,-25.5"/></g><g  ><path fill="white" d="M1004.6 115L1002.3 115L1002.3 96.1L1008.7 96.1Q1010.9 96.1 1012.3 96.9Q1013.7 97.7 1014.4 99.0Q1015.1 100.4 1015.1 102.1L1015.1 102.1Q1015.1 103.7 1014.4 105.1Q1013.7 106.5 1012.3 107.3Q1010.9 108.1 1008.7 108.1L1008.7 108.1L1004.1 108.1L1004.1 106.1L1008.6 106.1Q1010.2 106.1 1011.1 105.5Q1012.0 105.0 1012.4 104.1Q1012.9 103.2 1012.9 102.1L1012.9 102.1Q1012.9 100.9 1012.4 100.0Q1012.0 99.1 1011.1 98.6Q1010.1 98.1 1008.6 98.1L1008.6 98.1L1004.6 98.1L1004.6 115ZM1023.9 115.3L1023.9 115.3Q1021.9 115.3 1020.5 114.4Q1019.0 113.5 1018.2 111.8Q1017.4 110.2 1017.4 108.0L1017.4 108.0Q1017.4 105.8 1018.2 104.1Q1019.0 102.5 1020.5 101.5Q1021.9 100.6 1023.9 100.6L1023.9 100.6Q1025.8 100.6 1027.2 101.5Q1028.7 102.5 1029.5 104.1Q1030.3 105.8 1030.3 108.0L1030.3 108.0Q1030.3 110.2 1029.5 111.8Q1028.7 113.5 1027.2 114.4Q1025.8 115.3 1023.9 115.3ZM1023.9 113.3L1023.9 113.3Q1025.3 113.3 1026.3 112.6Q1027.2 111.8 1027.7 110.6Q1028.1 109.4 1028.1 108.0L1028.1 108.0Q1028.1 106.6 1027.7 105.3Q1027.2 104.1 1026.3 103.3Q1025.3 102.6 1023.9 102.6L1023.9 102.6Q1022.4 102.6 1021.5 103.3Q1020.5 104.1 1020.1 105.3Q1019.6 106.6 1019.6 108.0L1019.6 108.0Q1019.6 109.4 1020.1 110.6Q1020.5 111.8 1021.5 112.6Q1022.4 113.3 1023.9 113.3ZM1035.5 115L1033.3 115L1033.3 100.8L1035.5 100.8L1035.5 103.0L1035.6 103.0Q1036.0 101.9 1037.0 101.3Q1038.0 100.6 1039.3 100.6L1039.3 100.6Q1039.5 100.6 1039.9 100.6Q1040.3 100.6 1040.4 100.6L1040.4 100.6L1040.4 102.8Q1040.3 102.8 1039.9 102.8Q1039.5 102.7 1039.1 102.7L1039.1 102.7Q1038.1 102.7 1037.3 103.1Q1036.5 103.6 1036.0 104.3Q1035.5 105.1 1035.5 106.0L1035.5 106.0L1035.5 115ZM1042.5 100.8L1049.8 100.8L1049.8 102.7L1042.5 102.7L1042.5 100.8ZM1044.6 111.5L1044.6 97.4L1046.8 97.4L1046.8 110.9Q1046.8 111.9 1047.1 112.3Q1047.3 112.8 1047.8 112.9Q1048.2 113.1 1048.7 113.1L1048.7 113.1Q1049.0 113.1 1049.3 113.0Q1049.5 113.0 1049.6 113.0L1049.6 113.0L1050.1 114.9Q1049.9 115.0 1049.5 115.1Q1049.1 115.2 1048.5 115.2L1048.5 115.2Q1047.5 115.2 1046.6 114.8Q1045.8 114.4 1045.2 113.6Q1044.6 112.8 1044.6 111.5L1044.6 111.5ZM1051.5 100.8L1059.2 100.8L1059.2 102.7L1051.5 102.7L1051.5 100.8ZM1056.0 115L1053.8 115L1053.8 98.9Q1053.8 97.6 1054.4 96.8Q1054.9 96.0 1055.9 95.6Q1056.8 95.2 1057.8 95.2L1057.8 95.2Q1058.6 95.2 1059.1 95.3Q1059.6 95.5 1059.9 95.6L1059.9 95.6L1059.2 97.5Q1059.1 97.4 1058.8 97.3Q1058.5 97.2 1058.0 97.2L1058.0 97.2Q1056.9 97.2 1056.5 97.8Q1056.0 98.3 1056.0 99.4L1056.0 99.4L1056.0 115ZM1067.1 115.3L1067.1 115.3Q1065.2 115.3 1063.8 114.4Q1062.3 113.5 1061.5 111.8Q1060.7 110.2 1060.7 108.0L1060.7 108.0Q1060.7 105.8 1061.5 104.1Q1062.3 102.5 1063.8 101.5Q1065.2 100.6 1067.1 100.6L1067.1 100.6Q1069.1 100.6 1070.5 101.5Q1071.9 102.5 1072.8 104.1Q1073.6 105.8 1073.6 108.0L1073.6 108.0Q1073.6 110.2 1072.8 111.8Q1071.9 113.5 1070.5 114.4Q1069.1 115.3 1067.1 115.3ZM1067.1 113.3L1067.1 113.3Q1068.6 113.3 1069.5 112.6Q1070.5 111.8 1070.9 110.6Q1071.4 109.4 1071.4 108.0L1071.4 108.0Q1071.4 106.6 1070.9 105.3Q1070.5 104.1 1069.5 103.3Q1068.6 102.6 1067.1 102.6L1067.1 102.6Q1065.7 102.6 1064.7 103.3Q1063.8 104.1 1063.3 105.3Q1062.9 106.6 1062.9 108.0L1062.9 108.0Q1062.9 109.4 1063.3 110.6Q1063.8 111.8 1064.7 112.6Q1065.7 113.3 1067.1 113.3ZM1076.6 96.1L1078.8 96.1L1078.8 115L1076.6 115L1076.6 96.1ZM1084.7 115L1082.5 115L1082.5 100.8L1084.7 100.8L1084.7 115ZM1083.6 98.5L1083.6 98.5Q1083.0 98.5 1082.5 98.0Q1082.1 97.6 1082.1 97.0L1082.1 97.0Q1082.1 96.4 1082.5 95.9Q1083.0 95.5 1083.6 95.5L1083.6 95.5Q1084.3 95.5 1084.7 95.9Q1085.2 96.4 1085.2 97.0L1085.2 97.0Q1085.2 97.6 1084.7 98.0Q1084.3 98.5 1083.6 98.5ZM1094.2 115.3L1094.2 115.3Q1092.3 115.3 1090.8 114.4Q1089.4 113.5 1088.6 111.8Q1087.8 110.2 1087.8 108.0L1087.8 108.0Q1087.8 105.8 1088.6 104.1Q1089.4 102.5 1090.8 101.5Q1092.3 100.6 1094.2 100.6L1094.2 100.6Q1096.1 100.6 1097.6 101.5Q1099.0 102.5 1099.8 104.1Q1100.6 105.8 1100.6 108.0L1100.6 108.0Q1100.6 110.2 1099.8 111.8Q1099.0 113.5 1097.6 114.4Q1096.1 115.3 1094.2 115.3ZM1094.2 113.3L1094.2 113.3Q1095.7 113.3 1096.6 112.6Q1097.5 111.8 1098.0 110.6Q1098.4 109.4 1098.4 108.0L1098.4 108.0Q1098.4 106.6 1098.0 105.3Q1097.5 104.1 1096.6 103.3Q1095.7 102.6 1094.2 102.6L1094.2 102.6Q1092.7 102.6 1091.8 103.3Q1090.9 104.1 1090.4 105.3Q1090.0 106.6 1090.0 108.0L1090.0 108.0Q1090.0 109.4 1090.4 110.6Q1090.9 111.8 1091.8 112.6Q1092.7 113.3 1094.2 113.3Z " opacity="0.85"/></g><mask id="satori_om-id-2"><rect x="80" y="223" width="1040" height="172" fill="#fff"/></mask><mask id="satori_om-id-2-0"><rect x="80" y="223" width="1040" height="101" fill="#fff"/></mask><g  ><path fill="white" d="M150.2 273.1L150.2 273.1Q150.2 284.5 145.9 292.5Q141.6 300.5 134.2 304.7Q126.8 309.0 117.5 309.0L117.5 309.0Q108.2 309.0 100.8 304.7Q93.4 300.5 89.1 292.5Q84.8 284.5 84.8 273.1L84.8 273.1Q84.8 261.7 89.1 253.7Q93.4 245.6 100.8 241.4Q108.2 237.2 117.5 237.2L117.5 237.2Q126.8 237.2 134.2 241.4Q141.6 245.6 145.9 253.7Q150.2 261.7 150.2 273.1ZM135.3 273.1L135.3 273.1Q135.3 265.7 133.1 260.6Q130.9 255.5 126.9 252.9Q122.9 250.3 117.5 250.3L117.5 250.3Q112.2 250.3 108.2 252.9Q104.2 255.5 102.0 260.6Q99.8 265.7 99.8 273.1L99.8 273.1Q99.8 280.5 102.0 285.6Q104.2 290.6 108.2 293.3Q112.2 295.9 117.5 295.9L117.5 295.9Q122.9 295.9 126.9 293.3Q130.9 290.6 133.1 285.6Q135.3 280.5 135.3 273.1ZM200.1 270.6L200.1 270.6L186.8 271.4Q186.5 269.7 185.4 268.3Q184.2 266.9 182.4 266.1Q180.6 265.3 178.1 265.3L178.1 265.3Q174.7 265.3 172.4 266.7Q170.0 268.1 170.0 270.4L170.0 270.4Q170.0 272.3 171.5 273.6Q173.0 274.9 176.7 275.7L176.7 275.7L186.2 277.6Q193.8 279.2 197.6 282.6Q201.3 286.1 201.3 291.8L201.3 291.8Q201.3 296.9 198.3 300.8Q195.3 304.7 190.0 306.9Q184.8 309.0 178.0 309.0L178.0 309.0Q167.6 309.0 161.4 304.7Q155.3 300.3 154.2 292.8L154.2 292.8L168.5 292.1Q169.2 295.3 171.6 296.9Q174.1 298.6 178.0 298.6L178.0 298.6Q181.8 298.6 184.2 297.1Q186.5 295.6 186.5 293.2L186.5 293.2Q186.5 291.3 184.9 290.0Q183.2 288.7 179.8 288.0L179.8 288.0L170.8 286.2Q163.1 284.7 159.4 280.9Q155.6 277.1 155.6 271.3L155.6 271.3Q155.6 266.2 158.4 262.6Q161.1 258.9 166.1 256.9Q171.1 255.0 177.8 255.0L177.8 255.0Q187.7 255.0 193.4 259.1Q199.2 263.3 200.1 270.6ZM229.8 309.0L229.8 309.0Q221.8 309.0 216.0 305.6Q210.2 302.2 207.1 296.1Q204.0 290.0 204.0 282.0L204.0 282.0Q204.0 274.0 207.2 267.9Q210.3 261.8 216.0 258.4Q221.8 255.0 229.7 255.0L229.7 255.0Q236.6 255.0 241.7 257.4Q246.9 259.9 249.9 264.4Q252.9 268.9 253.2 275L253.2 275L239.5 275Q238.9 271.1 236.4 268.7Q234.0 266.3 230.0 266.3L230.0 266.3Q226.6 266.3 224.1 268.1Q221.6 269.9 220.2 273.4Q218.8 276.9 218.8 281.8L218.8 281.8Q218.8 286.8 220.2 290.3Q221.6 293.9 224.1 295.7Q226.6 297.5 230.0 297.5L230.0 297.5Q232.5 297.5 234.5 296.5Q236.5 295.5 237.8 293.5Q239.1 291.6 239.5 288.8L239.5 288.8L253.2 288.8Q252.9 294.8 249.9 299.4Q247.0 303.9 241.9 306.5Q236.8 309.0 229.8 309.0ZM273.2 309.0L273.2 309.0Q268.1 309.0 264.2 307.2Q260.3 305.5 258.0 302.0Q255.8 298.6 255.8 293.4L255.8 293.4Q255.8 289.0 257.4 286.0Q259.0 283.1 261.7 281.3Q264.5 279.5 268.0 278.5Q271.6 277.6 275.4 277.3L275.4 277.3Q280.0 276.8 282.8 276.3Q285.6 275.9 286.9 275.1Q288.1 274.2 288.1 272.5L288.1 272.5L288.1 272.3Q288.1 269.1 286.1 267.3Q284.1 265.6 280.3 265.6L280.3 265.6Q276.4 265.6 274.1 267.3Q271.8 269 271.0 271.6L271.0 271.6L257.6 270.5Q258.6 265.7 261.6 262.2Q264.6 258.7 269.4 256.8Q274.1 255.0 280.4 255.0L280.4 255.0Q284.8 255.0 288.8 256.0Q292.8 257 295.9 259.1Q299.0 261.3 300.8 264.7Q302.6 268.0 302.6 272.7L302.6 272.7L302.6 308L288.9 308L288.9 300.7L288.5 300.7Q287.2 303.2 285.1 305.1Q283.0 306.9 280.0 307.9Q277.0 309.0 273.2 309.0ZM277.3 299.0L277.3 299.0Q280.5 299.0 283.0 297.7Q285.4 296.4 286.8 294.2Q288.2 292.0 288.2 289.3L288.2 289.3L288.2 283.7Q287.5 284.2 286.4 284.5Q285.2 284.9 283.7 285.2Q282.3 285.5 280.8 285.7Q279.3 285.9 278.1 286.1L278.1 286.1Q275.6 286.5 273.7 287.3Q271.8 288.1 270.7 289.5Q269.6 290.9 269.6 292.9L269.6 292.9Q269.6 295.9 271.8 297.4Q274.0 299.0 277.3 299.0ZM324.1 308L309.6 308L309.6 255.6L323.7 255.6L323.7 264.8L324.2 264.8Q325.7 259.9 329.0 257.4Q332.4 254.9 336.8 254.9L336.8 254.9Q337.9 254.9 339.2 255.0Q340.4 255.2 341.4 255.4L341.4 255.4L341.4 268.3Q340.4 268.0 338.5 267.7Q336.7 267.5 335.2 267.5L335.2 267.5Q332.0 267.5 329.5 268.9Q327.0 270.3 325.6 272.7Q324.1 275.2 324.1 278.4L324.1 278.4L324.1 308Z M381.8 308.9L381.8 308.9Q375.8 308.9 371.0 305.8Q366.1 302.7 363.3 296.7Q360.5 290.6 360.5 281.9L360.5 281.9Q360.5 272.9 363.4 266.9Q366.3 260.9 371.1 257.9Q376.0 255.0 381.7 255.0L381.7 255.0Q386.1 255.0 389.1 256.4Q392.0 257.9 393.8 260.1Q395.7 262.3 396.6 264.4L396.6 264.4L397.1 264.4L397.1 238.2L411.6 238.2L411.6 308L397.2 308L397.2 299.6L396.6 299.6Q395.6 301.8 393.7 303.9Q391.9 306.1 388.9 307.5Q386.0 308.9 381.8 308.9ZM386.4 297.3L386.4 297.3Q389.9 297.3 392.3 295.4Q394.8 293.4 396.1 290.0Q397.4 286.5 397.4 281.8L397.4 281.8Q397.4 277.1 396.1 273.7Q394.8 270.3 392.3 268.4Q389.9 266.5 386.4 266.5L386.4 266.5Q382.8 266.5 380.3 268.5Q377.9 270.4 376.6 273.8Q375.4 277.3 375.4 281.8L375.4 281.8Q375.4 286.4 376.6 289.9Q377.9 293.4 380.3 295.3Q382.8 297.3 386.4 297.3ZM443.0 309.0L443.0 309.0Q434.9 309.0 429.1 305.7Q423.3 302.4 420.2 296.4Q417.0 290.3 417.0 282.1L417.0 282.1Q417.0 274.0 420.2 267.9Q423.3 261.8 429.0 258.4Q434.7 255.0 442.4 255.0L442.4 255.0Q447.6 255.0 452.1 256.6Q456.6 258.3 459.9 261.6Q463.3 264.9 465.2 269.9Q467.0 274.9 467.0 281.5L467.0 281.5L467.0 285.5L422.8 285.5L422.8 276.5L453.4 276.5Q453.4 273.4 452.0 271.0Q450.6 268.6 448.2 267.2Q445.8 265.8 442.7 265.8L442.7 265.8Q439.4 265.8 436.8 267.3Q434.3 268.8 432.8 271.4Q431.4 273.9 431.4 277.0L431.4 277.0L431.4 285.6Q431.4 289.5 432.8 292.3Q434.3 295.1 436.9 296.6Q439.6 298.2 443.2 298.2L443.2 298.2Q445.7 298.2 447.7 297.5Q449.7 296.8 451.1 295.5Q452.5 294.1 453.3 292.1L453.3 292.1L466.7 293Q465.7 297.8 462.5 301.4Q459.4 305.0 454.4 307.0Q449.5 309.0 443.0 309.0Z M505.2 308L490.4 308L490.4 238.2L536.6 238.2L536.6 250.4L505.2 250.4L505.2 267.0L533.6 267.0L533.6 279.2L505.2 279.2L505.2 308ZM555.6 308L541.1 308L541.1 255.6L555.2 255.6L555.2 264.8L555.7 264.8Q557.1 259.9 560.5 257.4Q563.9 254.9 568.3 254.9L568.3 254.9Q569.4 254.9 570.6 255.0Q571.9 255.2 572.8 255.4L572.8 255.4L572.8 268.3Q571.8 268.0 570.0 267.7Q568.2 267.5 566.7 267.5L566.7 267.5Q563.5 267.5 561.0 268.9Q558.5 270.3 557.0 272.7Q555.6 275.2 555.6 278.4L555.6 278.4L555.6 308ZM589.5 309.0L589.5 309.0Q584.4 309.0 580.5 307.2Q576.6 305.5 574.3 302.0Q572.1 298.6 572.1 293.4L572.1 293.4Q572.1 289.0 573.7 286.0Q575.3 283.1 578.0 281.3Q580.8 279.5 584.3 278.5Q587.9 277.6 591.7 277.3L591.7 277.3Q596.3 276.8 599.1 276.3Q601.9 275.9 603.2 275.1Q604.4 274.2 604.4 272.5L604.4 272.5L604.4 272.3Q604.4 269.1 602.4 267.3Q600.4 265.6 596.7 265.6L596.7 265.6Q592.7 265.6 590.4 267.3Q588.1 269 587.3 271.6L587.3 271.6L573.9 270.5Q574.9 265.7 577.9 262.2Q580.9 258.7 585.7 256.8Q590.4 255.0 596.7 255.0L596.7 255.0Q601.1 255.0 605.1 256.0Q609.1 257 612.2 259.1Q615.3 261.3 617.1 264.7Q618.9 268.0 618.9 272.7L618.9 272.7L618.9 308L605.2 308L605.2 300.7L604.8 300.7Q603.5 303.2 601.4 305.1Q599.3 306.9 596.3 307.9Q593.3 309.0 589.5 309.0ZM593.6 299.0L593.6 299.0Q596.8 299.0 599.3 297.7Q601.7 296.4 603.1 294.2Q604.5 292.0 604.5 289.3L604.5 289.3L604.5 283.7Q603.8 284.2 602.7 284.5Q601.5 284.9 600.0 285.2Q598.6 285.5 597.1 285.7Q595.6 285.9 594.4 286.1L594.4 286.1Q591.9 286.5 590.0 287.3Q588.1 288.1 587.0 289.5Q585.9 290.9 585.9 292.9L585.9 292.9Q585.9 295.9 588.1 297.4Q590.3 299.0 593.6 299.0ZM640.4 277.7L640.4 277.7L640.4 308L625.9 308L625.9 255.6L639.8 255.6L639.8 264.9L640.4 264.9Q642.1 260.3 646.2 257.6Q650.3 255.0 656.1 255.0L656.1 255.0Q661.6 255.0 665.6 257.3Q669.7 259.7 671.9 264.1Q674.2 268.6 674.2 274.7L674.2 274.7L674.2 308L659.7 308L659.7 277.3Q659.7 272.4 657.2 269.7Q654.7 267.0 650.4 267.0L650.4 267.0Q647.4 267.0 645.2 268.3Q643.0 269.5 641.7 271.9Q640.5 274.4 640.4 277.7ZM704.9 309.0L704.9 309.0Q696.9 309.0 691.1 305.6Q685.3 302.2 682.3 296.1Q679.2 290.0 679.2 282.0L679.2 282.0Q679.2 274.0 682.3 267.9Q685.4 261.8 691.2 258.4Q696.9 255.0 704.9 255.0L704.9 255.0Q711.7 255.0 716.9 257.4Q722.0 259.9 725.0 264.4Q728.0 268.9 728.3 275L728.3 275L714.6 275Q714.0 271.1 711.6 268.7Q709.1 266.3 705.1 266.3L705.1 266.3Q701.7 266.3 699.2 268.1Q696.7 269.9 695.3 273.4Q693.9 276.9 693.9 281.8L693.9 281.8Q693.9 286.8 695.3 290.3Q696.7 293.9 699.2 295.7Q701.7 297.5 705.1 297.5L705.1 297.5Q707.6 297.5 709.6 296.5Q711.6 295.5 712.9 293.5Q714.2 291.6 714.6 288.8L714.6 288.8L728.3 288.8Q728.0 294.8 725.1 299.4Q722.2 303.9 717.0 306.5Q711.9 309.0 704.9 309.0ZM757.2 309.0L757.2 309.0Q749.1 309.0 743.3 305.7Q737.5 302.4 734.4 296.4Q731.2 290.3 731.2 282.1L731.2 282.1Q731.2 274.0 734.4 267.9Q737.5 261.8 743.2 258.4Q748.9 255.0 756.6 255.0L756.6 255.0Q761.8 255.0 766.3 256.6Q770.8 258.3 774.1 261.6Q777.5 264.9 779.4 269.9Q781.2 274.9 781.2 281.5L781.2 281.5L781.2 285.5L737.0 285.5L737.0 276.5L767.6 276.5Q767.6 273.4 766.2 271.0Q764.8 268.6 762.4 267.2Q760.0 265.8 756.9 265.8L756.9 265.8Q753.6 265.8 751.0 267.3Q748.5 268.8 747.1 271.4Q745.6 273.9 745.6 277.0L745.6 277.0L745.6 285.6Q745.6 289.5 747.0 292.3Q748.5 295.1 751.1 296.6Q753.8 298.2 757.5 298.2L757.5 298.2Q759.9 298.2 761.9 297.5Q763.9 296.8 765.3 295.5Q766.8 294.1 767.5 292.1L767.5 292.1L780.9 293Q779.9 297.8 776.8 301.4Q773.6 305.0 768.7 307.0Q763.7 309.0 757.2 309.0ZM830.0 270.6L830.0 270.6L816.7 271.4Q816.3 269.7 815.2 268.3Q814.1 266.9 812.3 266.1Q810.4 265.3 807.9 265.3L807.9 265.3Q804.5 265.3 802.2 266.7Q799.9 268.1 799.9 270.4L799.9 270.4Q799.9 272.3 801.4 273.6Q802.9 274.9 806.6 275.7L806.6 275.7L816.0 277.6Q823.7 279.2 827.4 282.6Q831.2 286.1 831.2 291.8L831.2 291.8Q831.2 296.9 828.1 300.8Q825.1 304.7 819.9 306.9Q814.7 309.0 807.8 309.0L807.8 309.0Q797.4 309.0 791.3 304.7Q785.1 300.3 784.1 292.8L784.1 292.8L798.4 292.1Q799.0 295.3 801.5 296.9Q804.0 298.6 807.9 298.6L807.9 298.6Q811.7 298.6 814.0 297.1Q816.4 295.6 816.4 293.2L816.4 293.2Q816.4 291.3 814.7 290.0Q813.1 288.7 809.7 288.0L809.7 288.0L800.6 286.2Q792.9 284.7 789.2 280.9Q785.5 277.1 785.5 271.3L785.5 271.3Q785.5 266.2 788.2 262.6Q791.0 258.9 796.0 256.9Q801.0 255.0 807.7 255.0L807.7 255.0Q817.6 255.0 823.3 259.1Q829.0 263.3 830.0 270.6ZM859.7 309.0L859.7 309.0Q851.6 309.0 845.9 305.6Q840.1 302.2 837.0 296.1Q833.9 290.0 833.9 282.0L833.9 282.0Q833.9 274.0 837.0 267.9Q840.1 261.8 845.9 258.4Q851.7 255.0 859.6 255.0L859.6 255.0Q866.5 255.0 871.6 257.4Q876.8 259.9 879.8 264.4Q882.8 268.9 883.1 275L883.1 275L869.4 275Q868.8 271.1 866.3 268.7Q863.8 266.3 859.8 266.3L859.8 266.3Q856.5 266.3 854.0 268.1Q851.5 269.9 850.1 273.4Q848.7 276.9 848.7 281.8L848.7 281.8Q848.7 286.8 850.0 290.3Q851.4 293.9 853.9 295.7Q856.5 297.5 859.8 297.5L859.8 297.5Q862.3 297.5 864.3 296.5Q866.3 295.5 867.6 293.5Q868.9 291.6 869.4 288.8L869.4 288.8L883.1 288.8Q882.7 294.8 879.8 299.4Q876.9 303.9 871.8 306.5Q866.7 309.0 859.7 309.0ZM903.0 309.0L903.0 309.0Q898.0 309.0 894.1 307.2Q890.2 305.5 887.9 302.0Q885.6 298.6 885.6 293.4L885.6 293.4Q885.6 289.0 887.2 286.0Q888.8 283.1 891.6 281.3Q894.4 279.5 897.9 278.5Q901.4 277.6 905.3 277.3L905.3 277.3Q909.9 276.8 912.7 276.3Q915.5 275.9 916.7 275.1Q918.0 274.2 918.0 272.5L918.0 272.5L918.0 272.3Q918.0 269.1 916.0 267.3Q913.9 265.6 910.2 265.6L910.2 265.6Q906.3 265.6 904.0 267.3Q901.7 269 900.9 271.6L900.9 271.6L887.5 270.5Q888.5 265.7 891.5 262.2Q894.5 258.7 899.2 256.8Q904.0 255.0 910.3 255.0L910.3 255.0Q914.6 255.0 918.6 256.0Q922.7 257 925.8 259.1Q928.9 261.3 930.7 264.7Q932.5 268.0 932.5 272.7L932.5 272.7L932.5 308L918.7 308L918.7 300.7L918.3 300.7Q917.1 303.2 914.9 305.1Q912.8 306.9 909.9 307.9Q906.9 309.0 903.0 309.0ZM907.2 299.0L907.2 299.0Q910.4 299.0 912.8 297.7Q915.3 296.4 916.7 294.2Q918.1 292.0 918.1 289.3L918.1 289.3L918.1 283.7Q917.4 284.2 916.2 284.5Q915.0 284.9 913.6 285.2Q912.1 285.5 910.7 285.7Q909.2 285.9 908.0 286.1L908.0 286.1Q905.4 286.5 903.5 287.3Q901.6 288.1 900.6 289.5Q899.5 290.9 899.5 292.9L899.5 292.9Q899.5 295.9 901.7 297.4Q903.8 299.0 907.2 299.0Z "/></g><mask id="satori_om-id-2-1"><rect x="80" y="342" width="1040" height="53" fill="#fff"/></mask><g opacity="0.8"></g><g  ><path fill="white" d="M105.1 361L101.4 361Q101.1 358.6 99.1 357.3Q97.1 356 94.2 356L94.2 356Q92.1 356 90.5 356.7Q88.9 357.4 88.0 358.6Q87.1 359.8 87.1 361.3L87.1 361.3Q87.1 362.6 87.7 363.5Q88.4 364.4 89.3 365.0Q90.3 365.6 91.4 366.0Q92.4 366.4 93.3 366.6L93.3 366.6L96.6 367.5Q97.8 367.8 99.4 368.4Q100.9 369.0 102.3 370.0Q103.7 371.0 104.6 372.5Q105.6 374.1 105.6 376.3L105.6 376.3Q105.6 378.9 104.2 381Q102.9 383.1 100.3 384.3Q97.7 385.6 94 385.6L94 385.6Q90.6 385.6 88.1 384.5Q85.5 383.3 84.1 381.4Q82.7 379.4 82.5 376.8L82.5 376.8L86.5 376.8Q86.7 378.6 87.7 379.7Q88.8 380.9 90.4 381.5Q92.1 382.1 94 382.1L94 382.1Q96.2 382.1 98.0 381.3Q99.8 380.6 100.8 379.3Q101.8 378 101.8 376.3L101.8 376.3Q101.8 374.7 100.9 373.7Q100.0 372.7 98.6 372.0Q97.1 371.4 95.4 370.9L95.4 370.9L91.5 369.8Q87.8 368.7 85.6 366.7Q83.4 364.7 83.4 361.5L83.4 361.5Q83.4 358.8 84.8 356.8Q86.3 354.8 88.8 353.7Q91.3 352.6 94.3 352.6L94.3 352.6Q97.4 352.6 99.8 353.7Q102.2 354.8 103.6 356.7Q105.0 358.6 105.1 361L105.1 361ZM120.3 385.5L120.3 385.5Q117.1 385.5 114.6 384.0Q112.2 382.4 110.8 379.6Q109.4 376.8 109.4 373.1L109.4 373.1Q109.4 369.4 110.8 366.6Q112.2 363.8 114.6 362.2Q117.1 360.7 120.3 360.7L120.3 360.7Q123.6 360.7 126.0 362.2Q128.4 363.8 129.8 366.6Q131.2 369.4 131.2 373.1L131.2 373.1Q131.2 376.8 129.8 379.6Q128.4 382.4 126.0 384.0Q123.6 385.5 120.3 385.5ZM120.3 382.2L120.3 382.2Q122.8 382.2 124.4 380.9Q126.0 379.7 126.7 377.6Q127.5 375.5 127.5 373.1L127.5 373.1Q127.5 370.7 126.7 368.6Q126.0 366.6 124.4 365.3Q122.8 364 120.3 364L120.3 364Q117.8 364 116.2 365.3Q114.7 366.6 113.9 368.6Q113.1 370.7 113.1 373.1L113.1 373.1Q113.1 375.5 113.9 377.6Q114.7 379.7 116.2 380.9Q117.8 382.2 120.3 382.2ZM133.7 361L146.6 361L146.6 364.1L133.7 364.1L133.7 361ZM141.2 385L137.6 385L137.6 357.7Q137.6 355.6 138.5 354.3Q139.5 352.9 141.0 352.2Q142.6 351.5 144.3 351.5L144.3 351.5Q145.7 351.5 146.5 351.7Q147.4 351.9 147.8 352.1L147.8 352.1L146.7 355.3Q146.5 355.2 146.0 355.1Q145.5 354.9 144.7 354.9L144.7 354.9Q142.8 354.9 142.0 355.9Q141.2 356.8 141.2 358.6L141.2 358.6L141.2 385ZM148.9 361L161.4 361L161.4 364.1L148.9 364.1L148.9 361ZM152.5 379.1L152.5 355.3L156.2 355.3L156.2 378.1Q156.2 379.7 156.7 380.5Q157.2 381.2 157.9 381.5Q158.6 381.8 159.4 381.8L159.4 381.8Q160.0 381.8 160.4 381.7Q160.8 381.6 161.0 381.6L161.0 381.6L161.8 384.9Q161.4 385.0 160.8 385.2Q160.1 385.3 159.0 385.3L159.0 385.3Q157.5 385.3 156.0 384.6Q154.5 384.0 153.5 382.6Q152.5 381.2 152.5 379.1L152.5 379.1ZM175.1 385L171.5 385L164.2 361L168.0 361L173.2 379.4L173.5 379.4L178.6 361L182.5 361L187.6 379.3L187.9 379.3L193.0 361L196.9 361L189.6 385L186.0 385L180.7 366.6L180.4 366.6L175.1 385ZM208.0 385.6L208.0 385.6Q205.7 385.6 203.8 384.7Q202.0 383.8 200.9 382.2Q199.8 380.5 199.8 378.2L199.8 378.2Q199.8 376.1 200.6 374.8Q201.4 373.5 202.8 372.8Q204.1 372.1 205.8 371.7Q207.4 371.3 209.1 371.1L209.1 371.1Q211.3 370.8 212.7 370.7Q214.0 370.5 214.7 370.2Q215.3 369.8 215.3 368.9L215.3 368.9L215.3 368.8Q215.3 366.5 214.0 365.2Q212.8 363.9 210.2 363.9L210.2 363.9Q207.6 363.9 206.1 365.1Q204.6 366.3 204.0 367.6L204.0 367.6L200.5 366.3Q201.4 364.1 203.0 362.9Q204.6 361.7 206.4 361.2Q208.3 360.7 210.1 360.7L210.1 360.7Q211.3 360.7 212.8 361.0Q214.3 361.2 215.7 362.1Q217.1 362.9 218.0 364.6Q219.0 366.3 219.0 369.2L219.0 369.2L219.0 385L215.3 385L215.3 381.8L215.1 381.8Q214.7 382.5 213.9 383.4Q213.0 384.3 211.5 384.9Q210.1 385.6 208.0 385.6ZM208.5 382.3L208.5 382.3Q210.7 382.3 212.2 381.4Q213.7 380.5 214.5 379.2Q215.3 377.8 215.3 376.3L215.3 376.3L215.3 372.9Q215.1 373.2 214.3 373.4Q213.5 373.7 212.5 373.8Q211.4 374 210.5 374.1Q209.5 374.2 208.9 374.3L208.9 374.3Q207.5 374.5 206.2 374.9Q205.0 375.3 204.2 376.1Q203.5 377.0 203.5 378.4L203.5 378.4Q203.5 380.3 204.9 381.3Q206.3 382.3 208.5 382.3ZM228.5 385L224.8 385L224.8 361L228.4 361L228.4 364.6L228.7 364.6Q229.3 362.8 231.0 361.7Q232.8 360.6 234.9 360.6L234.9 360.6Q235.3 360.6 235.9 360.6Q236.5 360.7 236.8 360.7L236.8 360.7L236.8 364.4Q236.7 364.4 236.0 364.3Q235.3 364.2 234.6 364.2L234.6 364.2Q232.8 364.2 231.5 364.9Q230.1 365.6 229.3 366.9Q228.5 368.2 228.5 369.8L228.5 369.8L228.5 385ZM249.7 385.5L249.7 385.5Q246.2 385.5 243.7 384.0Q241.2 382.4 239.8 379.6Q238.5 376.9 238.5 373.2L238.5 373.2Q238.5 369.5 239.8 366.7Q241.2 363.9 243.6 362.3Q246.0 360.7 249.3 360.7L249.3 360.7Q251.2 360.7 253.0 361.3Q254.8 361.9 256.3 363.3Q257.8 364.7 258.7 367.0Q259.6 369.3 259.6 372.7L259.6 372.7L259.6 374.3L241.1 374.3L241.1 371.1L255.8 371.1Q255.8 369.0 255.0 367.4Q254.2 365.8 252.8 364.9Q251.3 364 249.3 364L249.3 364Q247.1 364 245.5 365.1Q243.9 366.2 243.0 367.9Q242.2 369.6 242.2 371.6L242.2 371.6L242.2 373.8Q242.2 376.5 243.1 378.4Q244.0 380.2 245.7 381.2Q247.4 382.2 249.7 382.2L249.7 382.2Q251.1 382.2 252.3 381.8Q253.5 381.4 254.3 380.5Q255.2 379.7 255.7 378.4L255.7 378.4L259.2 379.4Q258.7 381.3 257.3 382.6Q256.0 384.0 254.0 384.7Q252.1 385.5 249.7 385.5Z M296.6 385L277.1 385L277.1 353L296.4 353L296.4 356.4L281.0 356.4L281.0 367.3L295.4 367.3L295.4 370.7L281.0 370.7L281.0 381.6L296.6 381.6L296.6 385ZM305.7 370.6L305.7 370.6L305.7 385L302.0 385L302.0 361L305.6 361L305.6 364.8L305.9 364.8Q306.7 362.9 308.5 361.8Q310.2 360.7 312.9 360.7L312.9 360.7Q315.3 360.7 317.2 361.7Q319.0 362.7 320.0 364.7Q321.0 366.7 321.0 369.8L321.0 369.8L321.0 385L317.3 385L317.3 370Q317.3 367.2 315.9 365.6Q314.4 364 311.8 364L311.8 364Q310.1 364 308.7 364.8Q307.3 365.5 306.5 367Q305.7 368.5 305.7 370.6ZM336.6 394.5L336.6 394.5Q333.9 394.5 332.0 393.8Q330.1 393.1 328.8 392.0Q327.5 390.9 326.8 389.7L326.8 389.7L329.7 387.6Q330.2 388.3 331.0 389.1Q331.7 390.0 333.1 390.6Q334.4 391.3 336.6 391.3L336.6 391.3Q339.5 391.3 341.4 389.8Q343.3 388.4 343.3 385.4L343.3 385.4L343.3 380.6L342.9 380.6Q342.5 381.2 341.8 382.2Q341.1 383.1 339.7 383.9Q338.3 384.6 335.9 384.6L335.9 384.6Q333.0 384.6 330.7 383.3Q328.4 381.9 327.1 379.3Q325.8 376.6 325.8 372.9L325.8 372.9Q325.8 369.2 327.1 366.4Q328.4 363.7 330.7 362.2Q333.0 360.7 336.0 360.7L336.0 360.7Q338.4 360.7 339.7 361.5Q341.1 362.2 341.9 363.2Q342.6 364.2 343.0 364.8L343.0 364.8L343.4 364.8L343.4 361L346.9 361L346.9 385.7Q346.9 388.8 345.5 390.7Q344.1 392.7 341.8 393.6Q339.4 394.5 336.6 394.5ZM336.4 381.3L336.4 381.3Q338.7 381.3 340.2 380.3Q341.7 379.3 342.5 377.4Q343.3 375.5 343.3 372.8L343.3 372.8Q343.3 370.2 342.5 368.2Q341.8 366.3 340.2 365.1Q338.7 364 336.4 364L336.4 364Q334.1 364 332.5 365.2Q331.0 366.4 330.2 368.4Q329.4 370.4 329.4 372.8L329.4 372.8Q329.4 375.3 330.2 377.2Q331.0 379.1 332.6 380.2Q334.1 381.3 336.4 381.3ZM356.5 385L352.8 385L352.8 361L356.5 361L356.5 385ZM354.7 357L354.7 357Q353.6 357 352.8 356.3Q352.1 355.5 352.1 354.5L352.1 354.5Q352.1 353.5 352.8 352.7Q353.6 352 354.7 352L354.7 352Q355.8 352 356.5 352.7Q357.3 353.5 357.3 354.5L357.3 354.5Q357.3 355.5 356.5 356.3Q355.8 357 354.7 357ZM366.1 370.6L366.1 370.6L366.1 385L362.4 385L362.4 361L365.9 361L365.9 364.8L366.2 364.8Q367.1 362.9 368.8 361.8Q370.5 360.7 373.2 360.7L373.2 360.7Q375.7 360.7 377.5 361.7Q379.3 362.7 380.4 364.7Q381.4 366.7 381.4 369.8L381.4 369.8L381.4 385L377.7 385L377.7 370Q377.7 367.2 376.2 365.6Q374.7 364 372.2 364L372.2 364Q370.4 364 369.0 364.8Q367.7 365.5 366.9 367Q366.1 368.5 366.1 370.6ZM397.3 385.5L397.3 385.5Q393.8 385.5 391.3 384.0Q388.8 382.4 387.5 379.6Q386.1 376.9 386.1 373.2L386.1 373.2Q386.1 369.5 387.5 366.7Q388.8 363.9 391.3 362.3Q393.7 360.7 396.9 360.7L396.9 360.7Q398.8 360.7 400.6 361.3Q402.5 361.9 404.0 363.3Q405.5 364.7 406.4 367.0Q407.2 369.3 407.2 372.7L407.2 372.7L407.2 374.3L388.7 374.3L388.7 371.1L403.5 371.1Q403.5 369.0 402.7 367.4Q401.9 365.8 400.4 364.9Q398.9 364 396.9 364L396.9 364Q394.7 364 393.1 365.1Q391.5 366.2 390.7 367.9Q389.8 369.6 389.8 371.6L389.8 371.6L389.8 373.8Q389.8 376.5 390.8 378.4Q391.7 380.2 393.4 381.2Q395.1 382.2 397.3 382.2L397.3 382.2Q398.8 382.2 399.9 381.8Q401.1 381.4 402.0 380.5Q402.8 379.7 403.3 378.4L403.3 378.4L406.9 379.4Q406.3 381.3 405.0 382.6Q403.6 384.0 401.7 384.7Q399.7 385.5 397.3 385.5ZM422.1 385.5L422.1 385.5Q418.6 385.5 416.1 384.0Q413.6 382.4 412.2 379.6Q410.9 376.9 410.9 373.2L410.9 373.2Q410.9 369.5 412.2 366.7Q413.6 363.9 416.0 362.3Q418.4 360.7 421.7 360.7L421.7 360.7Q423.6 360.7 425.4 361.3Q427.2 361.9 428.7 363.3Q430.2 364.7 431.1 367.0Q432.0 369.3 432.0 372.7L432.0 372.7L432.0 374.3L413.5 374.3L413.5 371.1L428.2 371.1Q428.2 369.0 427.4 367.4Q426.6 365.8 425.2 364.9Q423.7 364 421.7 364L421.7 364Q419.5 364 417.9 365.1Q416.3 366.2 415.4 367.9Q414.6 369.6 414.6 371.6L414.6 371.6L414.6 373.8Q414.6 376.5 415.5 378.4Q416.4 380.2 418.1 381.2Q419.8 382.2 422.1 382.2L422.1 382.2Q423.5 382.2 424.7 381.8Q425.9 381.4 426.7 380.5Q427.6 379.7 428.1 378.4L428.1 378.4L431.6 379.4Q431.1 381.3 429.7 382.6Q428.4 384.0 426.4 384.7Q424.5 385.5 422.1 385.5ZM440.4 385L436.7 385L436.7 361L440.3 361L440.3 364.6L440.5 364.6Q441.2 362.8 442.9 361.7Q444.6 360.6 446.8 360.6L446.8 360.6Q447.2 360.6 447.8 360.6Q448.4 360.7 448.7 360.7L448.7 360.7L448.7 364.4Q448.5 364.4 447.9 364.3Q447.2 364.2 446.5 364.2L446.5 364.2Q444.7 364.2 443.4 364.9Q442.0 365.6 441.2 366.9Q440.4 368.2 440.4 369.8L440.4 369.8L440.4 385Z M466.0 342.7L469.1 342.7L469.1 395.3L466.0 395.3L466.0 342.7Z M510.5 361L506.7 361Q506.4 358.6 504.4 357.3Q502.4 356 499.5 356L499.5 356Q497.4 356 495.8 356.7Q494.2 357.4 493.3 358.6Q492.5 359.8 492.5 361.3L492.5 361.3Q492.5 362.6 493.1 363.5Q493.7 364.4 494.7 365.0Q495.6 365.6 496.7 366.0Q497.8 366.4 498.6 366.6L498.6 366.6L501.9 367.5Q503.1 367.8 504.7 368.4Q506.2 369.0 507.6 370.0Q509.1 371.0 510.0 372.5Q510.9 374.1 510.9 376.3L510.9 376.3Q510.9 378.9 509.5 381Q508.2 383.1 505.6 384.3Q503.0 385.6 499.3 385.6L499.3 385.6Q495.9 385.6 493.4 384.5Q490.9 383.3 489.5 381.4Q488.0 379.4 487.8 376.8L487.8 376.8L491.8 376.8Q492.0 378.6 493.1 379.7Q494.1 380.9 495.8 381.5Q497.4 382.1 499.3 382.1L499.3 382.1Q501.6 382.1 503.3 381.3Q505.1 380.6 506.1 379.3Q507.1 378 507.1 376.3L507.1 376.3Q507.1 374.7 506.3 373.7Q505.4 372.7 503.9 372.0Q502.5 371.4 500.8 370.9L500.8 370.9L496.8 369.8Q493.1 368.7 490.9 366.7Q488.7 364.7 488.7 361.5L488.7 361.5Q488.7 358.8 490.2 356.8Q491.6 354.8 494.1 353.7Q496.6 352.6 499.6 352.6L499.6 352.6Q502.7 352.6 505.1 353.7Q507.6 354.8 509.0 356.7Q510.4 358.6 510.5 361L510.5 361ZM518.3 394L518.3 394Q517.3 394 516.6 393.9Q515.9 393.7 515.6 393.6L515.6 393.6L516.5 390.3Q517.9 390.7 518.9 390.6Q519.9 390.5 520.7 389.6Q521.5 388.8 522.2 387L522.2 387L522.9 385.1L514.0 361L518.0 361L524.6 380.1L524.9 380.1L531.5 361L535.5 361L525.3 388.5Q524.6 390.4 523.6 391.6Q522.6 392.8 521.3 393.4Q519.9 394 518.3 394ZM556.5 366.4L556.5 366.4L553.2 367.3Q552.9 366.5 552.3 365.7Q551.7 364.9 550.7 364.4Q549.6 363.9 548.0 363.9L548.0 363.9Q545.8 363.9 544.4 364.9Q542.9 365.9 542.9 367.4L542.9 367.4Q542.9 368.8 543.9 369.6Q544.9 370.4 547.0 370.9L547.0 370.9L550.6 371.8Q553.8 372.6 555.4 374.2Q557.0 375.8 557.0 378.3L557.0 378.3Q557.0 380.4 555.8 382Q554.6 383.6 552.5 384.6Q550.4 385.5 547.6 385.5L547.6 385.5Q543.9 385.5 541.5 383.9Q539.1 382.3 538.5 379.3L538.5 379.3L542.0 378.4Q542.5 380.3 543.9 381.3Q545.2 382.3 547.5 382.3L547.5 382.3Q550.1 382.3 551.6 381.1Q553.1 380.0 553.1 378.5L553.1 378.5Q553.1 377.3 552.3 376.4Q551.4 375.5 549.6 375.1L549.6 375.1L545.6 374.2Q542.3 373.4 540.7 371.8Q539.2 370.1 539.2 367.6L539.2 367.6Q539.2 365.6 540.4 364.0Q541.5 362.5 543.5 361.6Q545.5 360.7 548.0 360.7L548.0 360.7Q551.6 360.7 553.6 362.3Q555.7 363.8 556.5 366.4ZM559.6 361L572.1 361L572.1 364.1L559.6 364.1L559.6 361ZM563.3 379.1L563.3 355.3L566.9 355.3L566.9 378.1Q566.9 379.7 567.4 380.5Q567.9 381.2 568.6 381.5Q569.3 381.8 570.1 381.8L570.1 381.8Q570.7 381.8 571.1 381.7Q571.5 381.6 571.8 381.6L571.8 381.6L572.5 384.9Q572.1 385.0 571.5 385.2Q570.8 385.3 569.8 385.3L569.8 385.3Q568.2 385.3 566.7 384.6Q565.2 384.0 564.2 382.6Q563.3 381.2 563.3 379.1L563.3 379.1ZM586.6 385.5L586.6 385.5Q583.1 385.5 580.6 384.0Q578.1 382.4 576.7 379.6Q575.4 376.9 575.4 373.2L575.4 373.2Q575.4 369.5 576.7 366.7Q578.1 363.9 580.5 362.3Q582.9 360.7 586.2 360.7L586.2 360.7Q588.1 360.7 589.9 361.3Q591.7 361.9 593.2 363.3Q594.7 364.7 595.6 367.0Q596.5 369.3 596.5 372.7L596.5 372.7L596.5 374.3L578.0 374.3L578.0 371.1L592.8 371.1Q592.8 369.0 592.0 367.4Q591.1 365.8 589.7 364.9Q588.2 364 586.2 364L586.2 364Q584.0 364 582.4 365.1Q580.8 366.2 579.9 367.9Q579.1 369.6 579.1 371.6L579.1 371.6L579.1 373.8Q579.1 376.5 580.0 378.4Q581.0 380.2 582.6 381.2Q584.3 382.2 586.6 382.2L586.6 382.2Q588.0 382.2 589.2 381.8Q590.4 381.4 591.2 380.5Q592.1 379.7 592.6 378.4L592.6 378.4L596.1 379.4Q595.6 381.3 594.2 382.6Q592.9 384.0 591.0 384.7Q589.0 385.5 586.6 385.5ZM604.9 385L601.3 385L601.3 361L604.8 361L604.8 364.8L605.1 364.8Q605.9 362.8 607.5 361.8Q609.2 360.7 611.6 360.7L611.6 360.7Q613.9 360.7 615.5 361.8Q617.1 362.8 618 364.8L618 364.8L618.3 364.8Q619.2 362.9 621.0 361.8Q622.9 360.7 625.4 360.7L625.4 360.7Q628.7 360.7 630.7 362.7Q632.8 364.7 632.8 368.9L632.8 368.9L632.8 385L629.1 385L629.1 368.9Q629.1 366.3 627.6 365.1Q626.2 364 624.2 364L624.2 364Q621.7 364 620.3 365.5Q618.9 367.0 618.9 369.4L618.9 369.4L618.9 385L615.1 385L615.1 368.6Q615.1 366.5 613.8 365.3Q612.5 364 610.4 364L610.4 364Q608.9 364 607.7 364.8Q606.5 365.5 605.7 366.9Q604.9 368.2 604.9 370L604.9 370L604.9 385ZM655.6 366.4L655.6 366.4L652.3 367.3Q652.0 366.5 651.4 365.7Q650.8 364.9 649.8 364.4Q648.7 363.9 647.1 363.9L647.1 363.9Q644.9 363.9 643.5 364.9Q642.0 365.9 642.0 367.4L642.0 367.4Q642.0 368.8 643.0 369.6Q644.0 370.4 646.1 370.9L646.1 370.9L649.7 371.8Q652.9 372.6 654.5 374.2Q656.1 375.8 656.1 378.3L656.1 378.3Q656.1 380.4 654.9 382Q653.7 383.6 651.6 384.6Q649.5 385.5 646.7 385.5L646.7 385.5Q643.0 385.5 640.6 383.9Q638.2 382.3 637.6 379.3L637.6 379.3L641.1 378.4Q641.6 380.3 643.0 381.3Q644.4 382.3 646.6 382.3L646.6 382.3Q649.2 382.3 650.7 381.1Q652.2 380.0 652.2 378.5L652.2 378.5Q652.2 377.3 651.4 376.4Q650.5 375.5 648.7 375.1L648.7 375.1L644.7 374.2Q641.4 373.4 639.8 371.8Q638.3 370.1 638.3 367.6L638.3 367.6Q638.3 365.6 639.5 364.0Q640.6 362.5 642.6 361.6Q644.6 360.7 647.1 360.7L647.1 360.7Q650.7 360.7 652.7 362.3Q654.8 363.8 655.6 366.4Z M674.7 342.7L677.9 342.7L677.9 395.3L674.7 395.3L674.7 342.7Z M698.0 385L698.0 353L702.6 353L713.5 379.6L713.9 379.6L724.7 353L729.4 353L729.4 385L725.7 385L725.7 360.7L725.4 360.7L715.4 385L711.9 385L701.9 360.7L701.6 360.7L701.6 385L698.0 385ZM742.8 385.6L742.8 385.6Q740.5 385.6 738.6 384.7Q736.8 383.8 735.7 382.2Q734.6 380.5 734.6 378.2L734.6 378.2Q734.6 376.1 735.4 374.8Q736.2 373.5 737.6 372.8Q738.9 372.1 740.6 371.7Q742.2 371.3 743.9 371.1L743.9 371.1Q746.1 370.8 747.5 370.7Q748.8 370.5 749.5 370.2Q750.1 369.8 750.1 368.9L750.1 368.9L750.1 368.8Q750.1 366.5 748.8 365.2Q747.6 363.9 745.0 363.9L745.0 363.9Q742.4 363.9 740.9 365.1Q739.4 366.3 738.8 367.6L738.8 367.6L735.3 366.3Q736.2 364.1 737.8 362.9Q739.4 361.7 741.2 361.2Q743.1 360.7 744.9 360.7L744.9 360.7Q746.1 360.7 747.6 361.0Q749.1 361.2 750.5 362.1Q751.9 362.9 752.8 364.6Q753.8 366.3 753.8 369.2L753.8 369.2L753.8 385L750.1 385L750.1 381.8L749.9 381.8Q749.5 382.5 748.7 383.4Q747.8 384.3 746.3 384.9Q744.9 385.6 742.8 385.6ZM743.3 382.3L743.3 382.3Q745.5 382.3 747.0 381.4Q748.5 380.5 749.3 379.2Q750.1 377.8 750.1 376.3L750.1 376.3L750.1 372.9Q749.9 373.2 749.1 373.4Q748.3 373.7 747.3 373.8Q746.2 374 745.3 374.1Q744.3 374.2 743.7 374.3L743.7 374.3Q742.3 374.5 741.0 374.9Q739.8 375.3 739.0 376.1Q738.3 377.0 738.3 378.4L738.3 378.4Q738.3 380.3 739.7 381.3Q741.1 382.3 743.3 382.3ZM769.4 385.5L769.4 385.5Q766.0 385.5 763.6 383.9Q761.2 382.3 759.8 379.5Q758.5 376.7 758.5 373.1L758.5 373.1Q758.5 369.5 759.9 366.7Q761.2 363.9 763.7 362.3Q766.1 360.7 769.3 360.7L769.3 360.7Q771.9 360.7 773.9 361.6Q775.9 362.6 777.2 364.3Q778.5 365.9 778.8 368.2L778.8 368.2L775.2 368.2Q774.7 366.5 773.3 365.3Q771.8 364 769.4 364L769.4 364Q767.2 364 765.6 365.1Q764.0 366.2 763.1 368.3Q762.2 370.3 762.2 373L762.2 373Q762.2 375.8 763.1 377.8Q764.0 379.9 765.6 381.0Q767.2 382.2 769.4 382.2L769.4 382.2Q770.8 382.2 772.0 381.7Q773.2 381.2 774.0 380.3Q774.8 379.3 775.2 378L775.2 378L778.8 378Q778.5 380.1 777.3 381.8Q776.1 383.5 774.1 384.5Q772.1 385.5 769.4 385.5ZM787.0 370.6L787.0 370.6L787.0 385L783.3 385L783.3 353L787.0 353L787.0 364.8L787.3 364.8Q788.2 362.9 789.9 361.8Q791.6 360.7 794.4 360.7L794.4 360.7Q796.9 360.7 798.7 361.7Q800.5 362.6 801.6 364.6Q802.6 366.7 802.6 369.8L802.6 369.8L802.6 385L798.9 385L798.9 370Q798.9 367.1 797.4 365.6Q795.9 364 793.3 364L793.3 364Q791.5 364 790.1 364.8Q788.7 365.5 787.8 367Q787.0 368.5 787.0 370.6ZM812.1 385L808.5 385L808.5 361L812.1 361L812.1 385ZM810.3 357L810.3 357Q809.3 357 808.5 356.3Q807.7 355.5 807.7 354.5L807.7 354.5Q807.7 353.5 808.5 352.7Q809.3 352 810.3 352L810.3 352Q811.4 352 812.2 352.7Q813.0 353.5 813.0 354.5L813.0 354.5Q813.0 355.5 812.2 356.3Q811.4 357 810.3 357ZM821.7 370.6L821.7 370.6L821.7 385L818.0 385L818.0 361L821.6 361L821.6 364.8L821.9 364.8Q822.7 362.9 824.5 361.8Q826.2 360.7 828.9 360.7L828.9 360.7Q831.3 360.7 833.2 361.7Q835.0 362.7 836.0 364.7Q837.0 366.7 837.0 369.8L837.0 369.8L837.0 385L833.3 385L833.3 370Q833.3 367.2 831.9 365.6Q830.4 364 827.8 364L827.8 364Q826.1 364 824.7 364.8Q823.3 365.5 822.5 367Q821.7 368.5 821.7 370.6ZM852.9 385.5L852.9 385.5Q849.5 385.5 847.0 384.0Q844.5 382.4 843.1 379.6Q841.8 376.9 841.8 373.2L841.8 373.2Q841.8 369.5 843.1 366.7Q844.5 363.9 846.9 362.3Q849.3 360.7 852.6 360.7L852.6 360.7Q854.4 360.7 856.3 361.3Q858.1 361.9 859.6 363.3Q861.1 364.7 862.0 367.0Q862.9 369.3 862.9 372.7L862.9 372.7L862.9 374.3L844.4 374.3L844.4 371.1L859.1 371.1Q859.1 369.0 858.3 367.4Q857.5 365.8 856.0 364.9Q854.6 364 852.6 364L852.6 364Q850.4 364 848.8 365.1Q847.2 366.2 846.3 367.9Q845.4 369.6 845.4 371.6L845.4 371.6L845.4 373.8Q845.4 376.5 846.4 378.4Q847.3 380.2 849.0 381.2Q850.7 382.2 852.9 382.2L852.9 382.2Q854.4 382.2 855.6 381.8Q856.8 381.4 857.6 380.5Q858.5 379.7 858.9 378.4L858.9 378.4L862.5 379.4Q861.9 381.3 860.6 382.6Q859.3 384.0 857.3 384.7Q855.4 385.5 852.9 385.5Z M898.4 385L879.6 385L879.6 353L883.5 353L883.5 381.6L898.4 381.6L898.4 385ZM913.1 385.5L913.1 385.5Q909.6 385.5 907.1 384.0Q904.6 382.4 903.2 379.6Q901.9 376.9 901.9 373.2L901.9 373.2Q901.9 369.5 903.2 366.7Q904.6 363.9 907.0 362.3Q909.4 360.7 912.7 360.7L912.7 360.7Q914.6 360.7 916.4 361.3Q918.2 361.9 919.7 363.3Q921.2 364.7 922.1 367.0Q923.0 369.3 923.0 372.7L923.0 372.7L923.0 374.3L904.5 374.3L904.5 371.1L919.2 371.1Q919.2 369.0 918.4 367.4Q917.6 365.8 916.2 364.9Q914.7 364 912.7 364L912.7 364Q910.5 364 908.9 365.1Q907.3 366.2 906.4 367.9Q905.6 369.6 905.6 371.6L905.6 371.6L905.6 373.8Q905.6 376.5 906.5 378.4Q907.4 380.2 909.1 381.2Q910.8 382.2 913.1 382.2L913.1 382.2Q914.5 382.2 915.7 381.8Q916.9 381.4 917.7 380.5Q918.6 379.7 919.1 378.4L919.1 378.4L922.6 379.4Q922.1 381.3 920.7 382.6Q919.4 384.0 917.4 384.7Q915.5 385.5 913.1 385.5ZM934.8 385.6L934.8 385.6Q932.5 385.6 930.7 384.7Q928.8 383.8 927.7 382.2Q926.6 380.5 926.6 378.2L926.6 378.2Q926.6 376.1 927.4 374.8Q928.2 373.5 929.6 372.8Q931.0 372.1 932.6 371.7Q934.3 371.3 935.9 371.1L935.9 371.1Q938.1 370.8 939.5 370.7Q940.8 370.5 941.5 370.2Q942.1 369.8 942.1 368.9L942.1 368.9L942.1 368.8Q942.1 366.5 940.9 365.2Q939.6 363.9 937.1 363.9L937.1 363.9Q934.4 363.9 932.9 365.1Q931.4 366.3 930.8 367.6L930.8 367.6L927.3 366.3Q928.2 364.1 929.8 362.9Q931.4 361.7 933.2 361.2Q935.1 360.7 936.9 360.7L936.9 360.7Q938.1 360.7 939.6 361.0Q941.1 361.2 942.5 362.1Q943.9 362.9 944.9 364.6Q945.8 366.3 945.8 369.2L945.8 369.2L945.8 385L942.1 385L942.1 381.8L941.9 381.8Q941.6 382.5 940.7 383.4Q939.8 384.3 938.3 384.9Q936.9 385.6 934.8 385.6ZM935.4 382.3L935.4 382.3Q937.6 382.3 939.1 381.4Q940.6 380.5 941.3 379.2Q942.1 377.8 942.1 376.3L942.1 376.3L942.1 372.9Q941.9 373.2 941.1 373.4Q940.3 373.7 939.3 373.8Q938.3 374 937.3 374.1Q936.3 374.2 935.7 374.3L935.7 374.3Q934.3 374.5 933.1 374.9Q931.8 375.3 931.1 376.1Q930.3 377.0 930.3 378.4L930.3 378.4Q930.3 380.3 931.7 381.3Q933.2 382.3 935.4 382.3ZM955.4 385L951.7 385L951.7 361L955.2 361L955.2 364.6L955.5 364.6Q956.1 362.8 957.9 361.7Q959.6 360.6 961.7 360.6L961.7 360.6Q962.1 360.6 962.7 360.6Q963.4 360.7 963.7 360.7L963.7 360.7L963.7 364.4Q963.5 364.4 962.8 364.3Q962.2 364.2 961.4 364.2L961.4 364.2Q959.7 364.2 958.3 364.9Q956.9 365.6 956.1 366.9Q955.4 368.2 955.4 369.8L955.4 369.8L955.4 385ZM970.9 370.6L970.9 370.6L970.9 385L967.2 385L967.2 361L970.7 361L970.7 364.8L971.0 364.8Q971.9 362.9 973.6 361.8Q975.3 360.7 978.0 360.7L978.0 360.7Q980.5 360.7 982.3 361.7Q984.1 362.7 985.1 364.7Q986.2 366.7 986.2 369.8L986.2 369.8L986.2 385L982.5 385L982.5 370Q982.5 367.2 981.0 365.6Q979.5 364 977.0 364L977.0 364Q975.2 364 973.8 364.8Q972.4 365.5 971.6 367Q970.9 368.5 970.9 370.6ZM995.7 385L992.0 385L992.0 361L995.7 361L995.7 385ZM993.9 357L993.9 357Q992.8 357 992.1 356.3Q991.3 355.5 991.3 354.5L991.3 354.5Q991.3 353.5 992.1 352.7Q992.8 352 993.9 352L993.9 352Q995.0 352 995.8 352.7Q996.5 353.5 996.5 354.5L996.5 354.5Q996.5 355.5 995.8 356.3Q995.0 357 993.9 357ZM1005.3 370.6L1005.3 370.6L1005.3 385L1001.6 385L1001.6 361L1005.2 361L1005.2 364.8L1005.5 364.8Q1006.3 362.9 1008.0 361.8Q1009.7 360.7 1012.5 360.7L1012.5 360.7Q1014.9 360.7 1016.7 361.7Q1018.6 362.7 1019.6 364.7Q1020.6 366.7 1020.6 369.8L1020.6 369.8L1020.6 385L1016.9 385L1016.9 370Q1016.9 367.2 1015.4 365.6Q1014.0 364 1011.4 364L1011.4 364Q1009.6 364 1008.3 364.8Q1006.9 365.5 1006.1 367Q1005.3 368.5 1005.3 370.6ZM1036.2 394.5L1036.2 394.5Q1033.5 394.5 1031.6 393.8Q1029.6 393.1 1028.4 392.0Q1027.1 390.9 1026.3 389.7L1026.3 389.7L1029.3 387.6Q1029.8 388.3 1030.5 389.1Q1031.3 390.0 1032.6 390.6Q1034.0 391.3 1036.2 391.3L1036.2 391.3Q1039.1 391.3 1040.9 389.8Q1042.8 388.4 1042.8 385.4L1042.8 385.4L1042.8 380.6L1042.5 380.6Q1042.1 381.2 1041.4 382.2Q1040.6 383.1 1039.3 383.9Q1037.9 384.6 1035.5 384.6L1035.5 384.6Q1032.6 384.6 1030.3 383.3Q1028.0 381.9 1026.7 379.3Q1025.3 376.6 1025.3 372.9L1025.3 372.9Q1025.3 369.2 1026.6 366.4Q1027.9 363.7 1030.2 362.2Q1032.6 360.7 1035.6 360.7L1035.6 360.7Q1037.9 360.7 1039.3 361.5Q1040.7 362.2 1041.4 363.2Q1042.2 364.2 1042.6 364.8L1042.6 364.8L1043.0 364.8L1043.0 361L1046.5 361L1046.5 385.7Q1046.5 388.8 1045.1 390.7Q1043.7 392.7 1041.4 393.6Q1039.0 394.5 1036.2 394.5ZM1036.0 381.3L1036.0 381.3Q1038.2 381.3 1039.8 380.3Q1041.3 379.3 1042.1 377.4Q1042.9 375.5 1042.9 372.8L1042.9 372.8Q1042.9 370.2 1042.1 368.2Q1041.3 366.3 1039.8 365.1Q1038.3 364 1036.0 364L1036.0 364Q1033.7 364 1032.1 365.2Q1030.6 366.4 1029.8 368.4Q1029.0 370.4 1029.0 372.8L1029.0 372.8Q1029.0 375.3 1029.8 377.2Q1030.6 379.1 1032.2 380.2Q1033.7 381.3 1036.0 381.3Z " opacity="0.8"/></g><mask id="satori_om-id-3"><rect x="80" y="486" width="1040" height="64" fill="#fff"/></mask><g opacity="0.65"></g><mask id="satori_om-id-3-0"><rect x="80" y="503" width="554" height="31" fill="#fff"/></mask><g opacity="0.65"></g><g  ><path fill="white" d="M89.1 528L82.3 528L82.3 509.1L88.9 509.1Q90.9 509.1 92.2 509.8Q93.4 510.4 94.1 511.6Q94.7 512.7 94.7 514.1L94.7 514.1Q94.7 515.3 94.3 516.1Q93.8 516.9 93.1 517.4Q92.4 517.8 91.6 518.1L91.6 518.1L91.6 518.3Q92.5 518.3 93.4 518.9Q94.3 519.4 94.8 520.4Q95.4 521.5 95.4 523.0L95.4 523.0Q95.4 524.4 94.8 525.5Q94.1 526.7 92.8 527.3Q91.4 528 89.1 528L89.1 528ZM84.6 519.4L84.6 526.0L89.1 526.0Q91.4 526.0 92.3 525.1Q93.3 524.2 93.3 523.0L93.3 523.0Q93.3 522.0 92.8 521.2Q92.3 520.4 91.4 519.9Q90.5 519.4 89.2 519.4L89.2 519.4L84.6 519.4ZM84.6 511.1L84.6 517.4L88.8 517.4Q89.9 517.4 90.7 517.0Q91.5 516.6 92.0 515.8Q92.5 515.1 92.5 514.1L92.5 514.1Q92.5 512.9 91.7 512.0Q90.8 511.1 88.9 511.1L88.9 511.1L84.6 511.1ZM107.8 522.2L107.8 522.2L107.8 513.8L110.0 513.8L110.0 528L107.8 528L107.8 525.6L107.7 525.6Q107.2 526.7 106.1 527.4Q105.1 528.2 103.5 528.2L103.5 528.2Q102.2 528.2 101.1 527.6Q100.1 527.0 99.5 525.8Q98.9 524.6 98.9 522.8L98.9 522.8L98.9 513.8L101.1 513.8L101.1 522.7Q101.1 524.2 102.0 525.2Q102.8 526.1 104.2 526.1L104.2 526.1Q105.0 526.1 105.8 525.7Q106.7 525.2 107.3 524.4Q107.8 523.5 107.8 522.2ZM116.2 528L114.0 528L114.0 513.8L116.2 513.8L116.2 528ZM115.1 511.5L115.1 511.5Q114.5 511.5 114.0 511.0Q113.6 510.6 113.6 510.0L113.6 510.0Q113.6 509.4 114.0 508.9Q114.5 508.5 115.1 508.5L115.1 508.5Q115.8 508.5 116.2 508.9Q116.7 509.4 116.7 510.0L116.7 510.0Q116.7 510.6 116.2 511.0Q115.8 511.5 115.1 511.5ZM120.2 509.1L122.4 509.1L122.4 528L120.2 528L120.2 509.1ZM131.7 528.3L131.7 528.3Q129.9 528.3 128.6 527.4Q127.2 526.5 126.5 524.8Q125.7 523.2 125.7 520.9L125.7 520.9Q125.7 518.7 126.5 517.1Q127.2 515.4 128.6 514.5Q130.0 513.6 131.7 513.6L131.7 513.6Q133.1 513.6 133.9 514.1Q134.7 514.5 135.2 515.1Q135.6 515.7 135.8 516.1L135.8 516.1L136.0 516.1L136.0 509.1L138.2 509.1L138.2 528L136.1 528L136.1 525.8L135.8 525.8Q135.6 526.2 135.2 526.8Q134.7 527.4 133.9 527.8Q133.1 528.3 131.7 528.3ZM132 526.3L132 526.3Q133.3 526.3 134.2 525.7Q135.1 525.0 135.6 523.7Q136.1 522.5 136.1 520.9L136.1 520.9Q136.1 519.3 135.6 518.1Q135.1 516.9 134.2 516.3Q133.3 515.6 132 515.6L132 515.6Q130.6 515.6 129.7 516.3Q128.8 517.0 128.3 518.2Q127.9 519.4 127.9 520.9L127.9 520.9Q127.9 522.4 128.3 523.7Q128.8 524.9 129.7 525.6Q130.6 526.3 132 526.3ZM144.7 528L142.5 528L142.5 513.8L144.7 513.8L144.7 528ZM143.6 511.5L143.6 511.5Q143.0 511.5 142.5 511.0Q142.0 510.6 142.0 510.0L142.0 510.0Q142.0 509.4 142.5 508.9Q143.0 508.5 143.6 508.5L143.6 508.5Q144.2 508.5 144.7 508.9Q145.1 509.4 145.1 510.0L145.1 510.0Q145.1 510.6 144.7 511.0Q144.2 511.5 143.6 511.5ZM150.8 519.5L150.8 519.5L150.8 528L148.7 528L148.7 513.8L150.8 513.8L150.8 516.0L150.9 516.0Q151.4 515.0 152.5 514.3Q153.5 513.6 155.1 513.6L155.1 513.6Q156.5 513.6 157.6 514.2Q158.7 514.8 159.3 516.0Q159.9 517.2 159.9 519.0L159.9 519.0L159.9 528L157.7 528L157.7 519.1Q157.7 517.5 156.8 516.5Q156.0 515.6 154.5 515.6L154.5 515.6Q153.4 515.6 152.6 516.0Q151.8 516.5 151.3 517.4Q150.8 518.2 150.8 519.5ZM169.6 533.6L169.6 533.6Q168.0 533.6 166.9 533.2Q165.7 532.8 165.0 532.2Q164.2 531.5 163.8 530.8L163.8 530.8L165.5 529.6Q165.8 529.9 166.3 530.4Q166.7 530.9 167.5 531.3Q168.3 531.7 169.6 531.7L169.6 531.7Q171.3 531.7 172.4 530.9Q173.5 530.0 173.5 528.3L173.5 528.3L173.5 525.4L173.4 525.4Q173.1 525.8 172.7 526.3Q172.2 526.9 171.4 527.3Q170.6 527.8 169.2 527.8L169.2 527.8Q167.5 527.8 166.1 527.0Q164.8 526.2 164.0 524.6Q163.2 523.1 163.2 520.8L163.2 520.8Q163.2 518.7 164.0 517.0Q164.7 515.4 166.1 514.5Q167.5 513.6 169.3 513.6L169.3 513.6Q170.6 513.6 171.5 514.1Q172.3 514.5 172.7 515.1Q173.2 515.7 173.4 516.1L173.4 516.1L173.6 516.1L173.6 513.8L175.7 513.8L175.7 528.4Q175.7 530.2 174.9 531.4Q174.1 532.5 172.7 533.1Q171.3 533.6 169.6 533.6ZM169.5 525.8L169.5 525.8Q170.8 525.8 171.7 525.2Q172.6 524.6 173.1 523.5Q173.6 522.4 173.6 520.8L173.6 520.8Q173.6 519.3 173.1 518.1Q172.7 516.9 171.8 516.3Q170.9 515.6 169.5 515.6L169.5 515.6Q168.1 515.6 167.2 516.3Q166.3 517.0 165.8 518.2Q165.4 519.4 165.4 520.8L165.4 520.8Q165.4 522.3 165.9 523.4Q166.3 524.5 167.2 525.2Q168.2 525.8 169.5 525.8Z M189.2 528L187.0 528L187.0 513.8L189.1 513.8L189.1 516.0L189.3 516.0Q189.7 514.9 190.7 514.3Q191.7 513.6 193.0 513.6L193.0 513.6Q193.2 513.6 193.6 513.6Q193.9 513.6 194.1 513.6L194.1 513.6L194.1 515.8Q194.0 515.8 193.6 515.8Q193.2 515.7 192.8 515.7L192.8 515.7Q191.8 515.7 190.9 516.1Q190.1 516.6 189.7 517.3Q189.2 518.1 189.2 519.0L189.2 519.0L189.2 528ZM202.2 528.3L202.2 528.3Q200.2 528.3 198.7 527.4Q197.2 526.5 196.4 524.8Q195.6 523.2 195.6 521.0L195.6 521.0Q195.6 518.8 196.4 517.2Q197.2 515.5 198.6 514.6Q200.1 513.6 202.0 513.6L202.0 513.6Q203.1 513.6 204.2 514.0Q205.3 514.4 206.1 515.2Q207.0 516.0 207.6 517.4Q208.1 518.7 208.1 520.7L208.1 520.7L208.1 521.6L197.1 521.6L197.1 519.8L205.9 519.8Q205.9 518.6 205.4 517.6Q204.9 516.7 204.0 516.1Q203.2 515.6 202.0 515.6L202.0 515.6Q200.7 515.6 199.7 516.2Q198.8 516.9 198.3 517.9Q197.8 518.9 197.8 520.1L197.8 520.1L197.8 521.4Q197.8 523.0 198.3 524.1Q198.9 525.2 199.9 525.8Q200.9 526.3 202.2 526.3L202.2 526.3Q203.1 526.3 203.8 526.1Q204.5 525.8 205.0 525.4Q205.5 524.9 205.8 524.1L205.8 524.1L207.9 524.7Q207.5 525.8 206.7 526.6Q206.0 527.4 204.8 527.8Q203.6 528.3 202.2 528.3ZM211.4 509.1L213.6 509.1L213.6 528L211.4 528L211.4 509.1ZM219.8 528L217.6 528L217.6 513.8L219.8 513.8L219.8 528ZM218.7 511.5L218.7 511.5Q218.0 511.5 217.6 511.0Q217.1 510.6 217.1 510.0L217.1 510.0Q217.1 509.4 217.6 508.9Q218.0 508.5 218.7 508.5L218.7 508.5Q219.3 508.5 219.8 508.9Q220.2 509.4 220.2 510.0L220.2 510.0Q220.2 510.6 219.8 511.0Q219.3 511.5 218.7 511.5ZM227.9 528.3L227.9 528.3Q226.6 528.3 225.5 527.8Q224.4 527.3 223.7 526.3Q223.1 525.4 223.1 524.0L223.1 524.0Q223.1 522.8 223.6 522.0Q224.0 521.2 224.8 520.8Q225.6 520.4 226.6 520.1Q227.6 519.9 228.6 519.8L228.6 519.8Q229.9 519.6 230.7 519.5Q231.5 519.5 231.9 519.2Q232.2 519.0 232.2 518.5L232.2 518.5L232.2 518.4Q232.2 517.1 231.5 516.3Q230.7 515.6 229.2 515.6L229.2 515.6Q227.7 515.6 226.8 516.2Q225.9 516.9 225.5 517.7L225.5 517.7L223.5 517.0Q224.0 515.7 225.0 514.9Q225.9 514.2 227.0 513.9Q228.1 513.6 229.2 513.6L229.2 513.6Q229.9 513.6 230.7 513.8Q231.6 514.0 232.5 514.5Q233.3 515.0 233.9 516.0Q234.4 517.0 234.4 518.7L234.4 518.7L234.4 528L232.2 528L232.2 526.1L232.1 526.1Q231.9 526.5 231.4 527.1Q230.9 527.6 230.0 528.0Q229.1 528.3 227.9 528.3ZM228.2 526.4L228.2 526.4Q229.5 526.4 230.4 525.9Q231.3 525.4 231.8 524.6Q232.2 523.8 232.2 522.9L232.2 522.9L232.2 520.9Q232.1 521.0 231.6 521.2Q231.2 521.3 230.6 521.4Q230.0 521.5 229.4 521.6Q228.8 521.6 228.5 521.7L228.5 521.7Q227.6 521.8 226.9 522.0Q226.1 522.3 225.7 522.8Q225.3 523.3 225.3 524.1L225.3 524.1Q225.3 525.2 226.1 525.8Q226.9 526.4 228.2 526.4ZM240.8 528L238.7 528L238.7 509.1L240.9 509.1L240.9 516.1L241.1 516.1Q241.3 515.7 241.7 515.1Q242.2 514.5 243.0 514.1Q243.8 513.6 245.2 513.6L245.2 513.6Q247.0 513.6 248.3 514.5Q249.7 515.4 250.4 517.1Q251.2 518.7 251.2 520.9L251.2 520.9Q251.2 523.2 250.4 524.8Q249.7 526.5 248.3 527.4Q247.0 528.3 245.2 528.3L245.2 528.3Q243.8 528.3 243.0 527.8Q242.2 527.4 241.7 526.8Q241.3 526.2 241.1 525.8L241.1 525.8L240.8 525.8L240.8 528ZM240.8 520.9L240.8 520.9Q240.8 522.5 241.3 523.7Q241.8 525.0 242.7 525.7Q243.6 526.3 244.9 526.3L244.9 526.3Q246.3 526.3 247.2 525.6Q248.1 524.9 248.6 523.7Q249.0 522.4 249.0 520.9L249.0 520.9Q249.0 519.4 248.6 518.2Q248.1 517.0 247.2 516.3Q246.3 515.6 244.9 515.6L244.9 515.6Q243.6 515.6 242.7 516.3Q241.8 516.9 241.3 518.1Q240.8 519.3 240.8 520.9ZM254.5 509.1L256.7 509.1L256.7 528L254.5 528L254.5 509.1ZM266.7 528.3L266.7 528.3Q264.6 528.3 263.1 527.4Q261.6 526.5 260.8 524.8Q260.0 523.2 260.0 521.0L260.0 521.0Q260.0 518.8 260.8 517.2Q261.6 515.5 263.1 514.6Q264.5 513.6 266.4 513.6L266.4 513.6Q267.5 513.6 268.6 514.0Q269.7 514.4 270.6 515.2Q271.5 516.0 272.0 517.4Q272.5 518.7 272.5 520.7L272.5 520.7L272.5 521.6L261.6 521.6L261.6 519.8L270.3 519.8Q270.3 518.6 269.8 517.6Q269.4 516.7 268.5 516.1Q267.6 515.6 266.4 515.6L266.4 515.6Q265.1 515.6 264.2 516.2Q263.2 516.9 262.7 517.9Q262.2 518.9 262.2 520.1L262.2 520.1L262.2 521.4Q262.2 523.0 262.8 524.1Q263.3 525.2 264.3 525.8Q265.3 526.3 266.7 526.3L266.7 526.3Q267.5 526.3 268.2 526.1Q268.9 525.8 269.4 525.4Q269.9 524.9 270.2 524.1L270.2 524.1L272.3 524.7Q272.0 525.8 271.2 526.6Q270.4 527.4 269.2 527.8Q268.1 528.3 266.7 528.3ZM276.7 525.4L279.1 525.4L279.0 526.4Q278.8 527.5 278.5 528.7Q278.2 529.9 277.8 530.9Q277.5 532.0 277.3 532.6L277.3 532.6L275.6 532.6Q275.7 532.0 275.9 531.1Q276.1 530.1 276.3 528.9Q276.5 527.7 276.6 526.4L276.6 526.4L276.7 525.4Z M293.1 519.5L293.1 519.5L293.1 528L290.9 528L290.9 509.1L293.1 509.1L293.1 516.0L293.2 516.0Q293.7 514.9 294.7 514.3Q295.7 513.6 297.4 513.6L297.4 513.6Q298.9 513.6 300.0 514.2Q301.0 514.8 301.7 516.0Q302.3 517.2 302.3 519.0L302.3 519.0L302.3 528L300.1 528L300.1 519.1Q300.1 517.4 299.2 516.5Q298.3 515.6 296.8 515.6L296.8 515.6Q295.7 515.6 294.9 516.0Q294.0 516.5 293.5 517.4Q293.1 518.2 293.1 519.5ZM308.4 528L306.2 528L306.2 513.8L308.4 513.8L308.4 528ZM307.4 511.5L307.4 511.5Q306.7 511.5 306.3 511.0Q305.8 510.6 305.8 510.0L305.8 510.0Q305.8 509.4 306.3 508.9Q306.7 508.5 307.4 508.5L307.4 508.5Q308.0 508.5 308.4 508.9Q308.9 509.4 308.9 510.0L308.9 510.0Q308.9 510.6 308.4 511.0Q308.0 511.5 307.4 511.5ZM318.1 533.6L318.1 533.6Q316.6 533.6 315.4 533.2Q314.3 532.8 313.5 532.2Q312.8 531.5 312.3 530.8L312.3 530.8L314.1 529.6Q314.4 529.9 314.8 530.4Q315.3 530.9 316.1 531.3Q316.9 531.7 318.1 531.7L318.1 531.7Q319.9 531.7 321.0 530.9Q322.1 530.0 322.1 528.3L322.1 528.3L322.1 525.4L321.9 525.4Q321.7 525.8 321.2 526.3Q320.8 526.9 320.0 527.3Q319.2 527.8 317.8 527.8L317.8 527.8Q316.0 527.8 314.7 527.0Q313.3 526.2 312.5 524.6Q311.7 523.1 311.7 520.8L311.7 520.8Q311.7 518.7 312.5 517.0Q313.3 515.4 314.6 514.5Q316.0 513.6 317.8 513.6L317.8 513.6Q319.2 513.6 320.0 514.1Q320.8 514.5 321.3 515.1Q321.7 515.7 321.9 516.1L321.9 516.1L322.2 516.1L322.2 513.8L324.3 513.8L324.3 528.4Q324.3 530.2 323.4 531.4Q322.6 532.5 321.2 533.1Q319.8 533.6 318.1 533.6ZM318.1 525.8L318.1 525.8Q319.4 525.8 320.3 525.2Q321.2 524.6 321.7 523.5Q322.1 522.4 322.1 520.8L322.1 520.8Q322.1 519.3 321.7 518.1Q321.2 516.9 320.3 516.3Q319.4 515.6 318.1 515.6L318.1 515.6Q316.7 515.6 315.8 516.3Q314.8 517.0 314.4 518.2Q313.9 519.4 313.9 520.8L313.9 520.8Q313.9 522.3 314.4 523.4Q314.9 524.5 315.8 525.2Q316.7 525.8 318.1 525.8ZM330.4 519.5L330.4 519.5L330.4 528L328.3 528L328.3 509.1L330.4 509.1L330.4 516.0L330.6 516.0Q331.1 514.9 332.1 514.3Q333.1 513.6 334.8 513.6L334.8 513.6Q336.2 513.6 337.3 514.2Q338.4 514.8 339.0 516.0Q339.6 517.2 339.6 519.0L339.6 519.0L339.6 528L337.5 528L337.5 519.1Q337.5 517.4 336.6 516.5Q335.7 515.6 334.2 515.6L334.2 515.6Q333.1 515.6 332.2 516.0Q331.4 516.5 330.9 517.4Q330.4 518.2 330.4 519.5ZM343.5 518.9L351.7 518.9L351.7 520.9L343.5 520.9L343.5 518.9ZM357.8 533.3L355.6 533.3L355.6 513.8L357.7 513.8L357.7 516.1L357.9 516.1Q358.2 515.7 358.6 515.1Q359.0 514.5 359.9 514.1Q360.7 513.6 362.0 513.6L362.0 513.6Q363.8 513.6 365.2 514.5Q366.6 515.4 367.3 517.1Q368.1 518.7 368.1 520.9L368.1 520.9Q368.1 523.2 367.3 524.8Q366.6 526.5 365.2 527.4Q363.9 528.3 362.1 528.3L362.1 528.3Q360.7 528.3 359.9 527.8Q359.1 527.4 358.6 526.8Q358.2 526.2 357.9 525.8L357.9 525.8L357.8 525.8L357.8 533.3ZM357.7 520.9L357.7 520.9Q357.7 522.5 358.2 523.7Q358.7 525.0 359.6 525.7Q360.5 526.3 361.8 526.3L361.8 526.3Q363.2 526.3 364.1 525.6Q365.0 524.9 365.5 523.7Q365.9 522.4 365.9 520.9L365.9 520.9Q365.9 519.4 365.5 518.2Q365.0 517.0 364.1 516.3Q363.2 515.6 361.8 515.6L361.8 515.6Q360.5 515.6 359.6 516.3Q358.7 516.9 358.2 518.1Q357.7 519.3 357.7 520.9ZM377.4 528.3L377.4 528.3Q375.3 528.3 373.8 527.4Q372.4 526.5 371.6 524.8Q370.8 523.2 370.8 521.0L370.8 521.0Q370.8 518.8 371.6 517.2Q372.4 515.5 373.8 514.6Q375.2 513.6 377.2 513.6L377.2 513.6Q378.3 513.6 379.3 514.0Q380.4 514.4 381.3 515.2Q382.2 516.0 382.7 517.4Q383.2 518.7 383.2 520.7L383.2 520.7L383.2 521.6L372.3 521.6L372.3 519.8L381.0 519.8Q381.0 518.6 380.6 517.6Q380.1 516.7 379.2 516.1Q378.3 515.6 377.2 515.6L377.2 515.6Q375.9 515.6 374.9 516.2Q374.0 516.9 373.5 517.9Q372.9 518.9 372.9 520.1L372.9 520.1L372.9 521.4Q372.9 523.0 373.5 524.1Q374.1 525.2 375.1 525.8Q376.1 526.3 377.4 526.3L377.4 526.3Q378.2 526.3 378.9 526.1Q379.6 525.8 380.1 525.4Q380.6 524.9 380.9 524.1L380.9 524.1L383.0 524.7Q382.7 525.8 381.9 526.6Q381.1 527.4 380.0 527.8Q378.8 528.3 377.4 528.3ZM388.8 528L386.6 528L386.6 513.8L388.7 513.8L388.7 516.0L388.8 516.0Q389.2 514.9 390.2 514.3Q391.2 513.6 392.5 513.6L392.5 513.6Q392.8 513.6 393.1 513.6Q393.5 513.6 393.7 513.6L393.7 513.6L393.7 515.8Q393.6 515.8 393.2 515.8Q392.8 515.7 392.3 515.7L392.3 515.7Q391.3 515.7 390.5 516.1Q389.7 516.6 389.2 517.3Q388.8 518.1 388.8 519.0L388.8 519.0L388.8 528ZM395.8 513.8L403.4 513.8L403.4 515.7L395.8 515.7L395.8 513.8ZM400.3 528L398.1 528L398.1 511.9Q398.1 510.6 398.7 509.8Q399.2 509.0 400.2 508.6Q401.1 508.2 402.1 508.2L402.1 508.2Q402.9 508.2 403.4 508.3Q403.9 508.5 404.2 508.6L404.2 508.6L403.5 510.5Q403.4 510.4 403.1 510.3Q402.8 510.2 402.3 510.2L402.3 510.2Q401.2 510.2 400.7 510.8Q400.3 511.3 400.3 512.4L400.3 512.4L400.3 528ZM411.7 528.3L411.7 528.3Q409.8 528.3 408.3 527.4Q406.9 526.5 406.1 524.8Q405.3 523.2 405.3 521.0L405.3 521.0Q405.3 518.8 406.1 517.1Q406.9 515.5 408.3 514.5Q409.8 513.6 411.7 513.6L411.7 513.6Q413.6 513.6 415.1 514.5Q416.5 515.5 417.3 517.1Q418.1 518.8 418.1 521.0L418.1 521.0Q418.1 523.2 417.3 524.8Q416.5 526.5 415.1 527.4Q413.6 528.3 411.7 528.3ZM411.7 526.3L411.7 526.3Q413.1 526.3 414.1 525.6Q415.0 524.8 415.5 523.6Q415.9 522.4 415.9 521.0L415.9 521.0Q415.9 519.6 415.5 518.3Q415.0 517.1 414.1 516.3Q413.1 515.6 411.7 515.6L411.7 515.6Q410.2 515.6 409.3 516.3Q408.3 517.1 407.9 518.3Q407.4 519.6 407.4 521.0L407.4 521.0Q407.4 522.4 407.9 523.6Q408.3 524.8 409.3 525.6Q410.2 526.3 411.7 526.3ZM423.6 528L421.4 528L421.4 513.8L423.5 513.8L423.5 516.0L423.7 516.0Q424.1 514.9 425.1 514.3Q426.1 513.6 427.4 513.6L427.4 513.6Q427.6 513.6 428.0 513.6Q428.3 513.6 428.5 513.6L428.5 513.6L428.5 515.8Q428.4 515.8 428.0 515.8Q427.6 515.7 427.2 515.7L427.2 515.7Q426.2 515.7 425.4 516.1Q424.5 516.6 424.1 517.3Q423.6 518.1 423.6 519.0L423.6 519.0L423.6 528ZM433.3 528L431.1 528L431.1 513.8L433.2 513.8L433.2 516.0L433.4 516.0Q433.8 514.9 434.8 514.3Q435.8 513.6 437.2 513.6L437.2 513.6Q438.6 513.6 439.5 514.3Q440.5 514.9 441.0 516.0L441.0 516.0L441.2 516.0Q441.7 514.9 442.8 514.3Q443.9 513.6 445.4 513.6L445.4 513.6Q447.3 513.6 448.5 514.8Q449.7 516.0 449.7 518.5L449.7 518.5L449.7 528L447.5 528L447.5 518.5Q447.5 516.9 446.7 516.3Q445.8 515.6 444.7 515.6L444.7 515.6Q443.2 515.6 442.3 516.5Q441.5 517.4 441.5 518.8L441.5 518.8L441.5 528L439.3 528L439.3 518.3Q439.3 517.1 438.5 516.3Q437.7 515.6 436.5 515.6L436.5 515.6Q435.7 515.6 434.9 516.0Q434.2 516.5 433.7 517.3Q433.3 518.1 433.3 519.1L433.3 519.1L433.3 528ZM457.9 528.3L457.9 528.3Q456.5 528.3 455.4 527.8Q454.3 527.3 453.7 526.3Q453.0 525.4 453.0 524.0L453.0 524.0Q453.0 522.8 453.5 522.0Q454.0 521.2 454.8 520.8Q455.6 520.4 456.6 520.1Q457.6 519.9 458.6 519.8L458.6 519.8Q459.8 519.6 460.7 519.5Q461.5 519.5 461.8 519.2Q462.2 519.0 462.2 518.5L462.2 518.5L462.2 518.4Q462.2 517.1 461.5 516.3Q460.7 515.6 459.2 515.6L459.2 515.6Q457.7 515.6 456.8 516.2Q455.9 516.9 455.5 517.7L455.5 517.7L453.5 517.0Q454.0 515.7 454.9 514.9Q455.9 514.2 457.0 513.9Q458.1 513.6 459.1 513.6L459.1 513.6Q459.8 513.6 460.7 513.8Q461.6 514.0 462.4 514.5Q463.3 515.0 463.8 516.0Q464.4 517.0 464.4 518.7L464.4 518.7L464.4 528L462.2 528L462.2 526.1L462.1 526.1Q461.9 526.5 461.4 527.1Q460.8 527.6 460.0 528.0Q459.1 528.3 457.9 528.3ZM458.2 526.4L458.2 526.4Q459.5 526.4 460.4 525.9Q461.3 525.4 461.8 524.6Q462.2 523.8 462.2 522.9L462.2 522.9L462.2 520.9Q462.1 521.0 461.6 521.2Q461.1 521.3 460.5 521.4Q459.9 521.5 459.4 521.6Q458.8 521.6 458.4 521.7L458.4 521.7Q457.6 521.8 456.9 522.0Q456.1 522.3 455.7 522.8Q455.2 523.3 455.2 524.1L455.2 524.1Q455.2 525.2 456.1 525.8Q456.9 526.4 458.2 526.4ZM470.6 519.5L470.6 519.5L470.6 528L468.4 528L468.4 513.8L470.5 513.8L470.5 516.0L470.7 516.0Q471.2 515.0 472.2 514.3Q473.2 513.6 474.8 513.6L474.8 513.6Q476.2 513.6 477.3 514.2Q478.4 514.8 479.0 516.0Q479.6 517.2 479.6 519.0L479.6 519.0L479.6 528L477.4 528L477.4 519.1Q477.4 517.5 476.6 516.5Q475.7 515.6 474.2 515.6L474.2 515.6Q473.1 515.6 472.3 516.0Q471.5 516.5 471.0 517.4Q470.6 518.2 470.6 519.5ZM489.4 528.3L489.4 528.3Q487.4 528.3 485.9 527.4Q484.5 526.4 483.7 524.8Q482.9 523.1 482.9 521.0L482.9 521.0Q482.9 518.8 483.7 517.2Q484.5 515.5 486.0 514.6Q487.4 513.6 489.3 513.6L489.3 513.6Q490.8 513.6 492.0 514.2Q493.2 514.7 494.0 515.7Q494.7 516.7 494.9 518.1L494.9 518.1L492.8 518.1Q492.5 517.1 491.6 516.3Q490.8 515.6 489.4 515.6L489.4 515.6Q488.1 515.6 487.1 516.3Q486.2 516.9 485.6 518.1Q485.1 519.3 485.1 520.9L485.1 520.9Q485.1 522.6 485.6 523.8Q486.1 525.0 487.1 525.7Q488.1 526.3 489.4 526.3L489.4 526.3Q490.2 526.3 490.9 526.0Q491.6 525.7 492.1 525.2Q492.5 524.6 492.8 523.9L492.8 523.9L494.9 523.9Q494.7 525.1 494.0 526.1Q493.3 527.1 492.1 527.7Q490.9 528.3 489.4 528.3ZM504.1 528.3L504.1 528.3Q502.0 528.3 500.5 527.4Q499.0 526.5 498.2 524.8Q497.4 523.2 497.4 521.0L497.4 521.0Q497.4 518.8 498.2 517.2Q499.0 515.5 500.5 514.6Q501.9 513.6 503.8 513.6L503.8 513.6Q504.9 513.6 506.0 514.0Q507.1 514.4 508.0 515.2Q508.9 516.0 509.4 517.4Q509.9 518.7 509.9 520.7L509.9 520.7L509.9 521.6L499.0 521.6L499.0 519.8L507.7 519.8Q507.7 518.6 507.2 517.6Q506.8 516.7 505.9 516.1Q505.0 515.6 503.8 515.6L503.8 515.6Q502.5 515.6 501.6 516.2Q500.6 516.9 500.1 517.9Q499.6 518.9 499.6 520.1L499.6 520.1L499.6 521.4Q499.6 523.0 500.2 524.1Q500.7 525.2 501.7 525.8Q502.7 526.3 504.1 526.3L504.1 526.3Q504.9 526.3 505.6 526.1Q506.3 525.8 506.8 525.4Q507.3 524.9 507.6 524.1L507.6 524.1L509.7 524.7Q509.4 525.8 508.6 526.6Q507.8 527.4 506.6 527.8Q505.5 528.3 504.1 528.3Z M530.3 517.0L530.3 517.0L528.4 517.5Q528.2 517.1 527.8 516.6Q527.5 516.1 526.8 515.8Q526.2 515.5 525.3 515.5L525.3 515.5Q524.0 515.5 523.1 516.1Q522.3 516.7 522.3 517.6L522.3 517.6Q522.3 518.4 522.8 518.9Q523.4 519.4 524.7 519.7L524.7 519.7L526.8 520.2Q528.7 520.7 529.6 521.6Q530.6 522.6 530.6 524.0L530.6 524.0Q530.6 525.3 529.9 526.2Q529.2 527.2 527.9 527.7Q526.7 528.3 525.0 528.3L525.0 528.3Q522.9 528.3 521.4 527.4Q520.0 526.4 519.6 524.6L519.6 524.6L521.7 524.1Q522 525.2 522.8 525.8Q523.7 526.4 525.0 526.4L525.0 526.4Q526.5 526.4 527.4 525.7Q528.3 525.1 528.3 524.2L528.3 524.2Q528.3 523.4 527.8 522.9Q527.3 522.4 526.2 522.2L526.2 522.2L523.8 521.6Q521.9 521.1 521.0 520.2Q520.1 519.2 520.1 517.7L520.1 517.7Q520.1 516.5 520.8 515.6Q521.4 514.7 522.6 514.2Q523.8 513.6 525.3 513.6L525.3 513.6Q527.4 513.6 528.6 514.6Q529.8 515.5 530.3 517.0ZM539.6 528.3L539.6 528.3Q537.7 528.3 536.3 527.4Q534.8 526.5 534.0 524.8Q533.2 523.2 533.2 521.0L533.2 521.0Q533.2 518.8 534.0 517.1Q534.8 515.5 536.3 514.5Q537.7 513.6 539.6 513.6L539.6 513.6Q541.5 513.6 543.0 514.5Q544.4 515.5 545.2 517.1Q546.0 518.8 546.0 521.0L546.0 521.0Q546.0 523.2 545.2 524.8Q544.4 526.5 543.0 527.4Q541.5 528.3 539.6 528.3ZM539.6 526.3L539.6 526.3Q541.1 526.3 542.0 525.6Q543.0 524.8 543.4 523.6Q543.9 522.4 543.9 521.0L543.9 521.0Q543.9 519.6 543.4 518.3Q543.0 517.1 542.0 516.3Q541.1 515.6 539.6 515.6L539.6 515.6Q538.2 515.6 537.2 516.3Q536.3 517.1 535.8 518.3Q535.4 519.6 535.4 521.0L535.4 521.0Q535.4 522.4 535.8 523.6Q536.3 524.8 537.2 525.6Q538.2 526.3 539.6 526.3ZM548.0 513.8L555.7 513.8L555.7 515.7L548.0 515.7L548.0 513.8ZM552.5 528L550.3 528L550.3 511.9Q550.3 510.6 550.9 509.8Q551.5 509.0 552.4 508.6Q553.3 508.2 554.3 508.2L554.3 508.2Q555.1 508.2 555.6 508.3Q556.1 508.5 556.4 508.6L556.4 508.6L555.8 510.5Q555.6 510.4 555.3 510.3Q555.0 510.2 554.5 510.2L554.5 510.2Q553.5 510.2 553.0 510.8Q552.5 511.3 552.5 512.4L552.5 512.4L552.5 528ZM557.6 513.8L564.9 513.8L564.9 515.7L557.6 515.7L557.6 513.8ZM559.7 524.5L559.7 510.4L561.9 510.4L561.9 523.9Q561.9 524.9 562.2 525.3Q562.4 525.8 562.9 525.9Q563.3 526.1 563.8 526.1L563.8 526.1Q564.1 526.1 564.4 526.0Q564.6 526.0 564.7 526.0L564.7 526.0L565.2 527.9Q565.0 528.0 564.6 528.1Q564.2 528.2 563.5 528.2L563.5 528.2Q562.6 528.2 561.7 527.8Q560.9 527.4 560.3 526.6Q559.7 525.8 559.7 524.5L559.7 524.5ZM573.6 528L571.4 528L567.1 513.8L569.4 513.8L572.4 524.7L572.6 524.7L575.6 513.8L578.0 513.8L580.9 524.6L581.1 524.6L584.2 513.8L586.4 513.8L582.1 528L580.0 528L576.9 517.1L576.7 517.1L573.6 528ZM593.5 528.3L593.5 528.3Q592.2 528.3 591.1 527.8Q590.0 527.3 589.3 526.3Q588.7 525.4 588.7 524.0L588.7 524.0Q588.7 522.8 589.1 522.0Q589.6 521.2 590.4 520.8Q591.2 520.4 592.2 520.1Q593.2 519.9 594.2 519.8L594.2 519.8Q595.5 519.6 596.3 519.5Q597.1 519.5 597.4 519.2Q597.8 519.0 597.8 518.5L597.8 518.5L597.8 518.4Q597.8 517.1 597.1 516.3Q596.3 515.6 594.8 515.6L594.8 515.6Q593.3 515.6 592.4 516.2Q591.5 516.9 591.1 517.7L591.1 517.7L589.1 517.0Q589.6 515.7 590.6 514.9Q591.5 514.2 592.6 513.9Q593.7 513.6 594.8 513.6L594.8 513.6Q595.4 513.6 596.3 513.8Q597.2 514.0 598.1 514.5Q598.9 515.0 599.4 516.0Q600.0 517.0 600.0 518.7L600.0 518.7L600.0 528L597.8 528L597.8 526.1L597.7 526.1Q597.5 526.5 597.0 527.1Q596.5 527.6 595.6 528.0Q594.7 528.3 593.5 528.3ZM593.8 526.4L593.8 526.4Q595.1 526.4 596.0 525.9Q596.9 525.4 597.4 524.6Q597.8 523.8 597.8 522.9L597.8 522.9L597.8 520.9Q597.7 521.0 597.2 521.2Q596.8 521.3 596.1 521.4Q595.5 521.5 595.0 521.6Q594.4 521.6 594.1 521.7L594.1 521.7Q593.2 521.8 592.5 522.0Q591.7 522.3 591.3 522.8Q590.8 523.3 590.8 524.1L590.8 524.1Q590.8 525.2 591.7 525.8Q592.5 526.4 593.8 526.4ZM606.2 528L604.0 528L604.0 513.8L606.1 513.8L606.1 516.0L606.2 516.0Q606.6 514.9 607.6 514.3Q608.7 513.6 609.9 513.6L609.9 513.6Q610.2 513.6 610.5 513.6Q610.9 513.6 611.1 513.6L611.1 513.6L611.1 515.8Q611.0 515.8 610.6 515.8Q610.2 515.7 609.8 515.7L609.8 515.7Q608.7 515.7 607.9 516.1Q607.1 516.6 606.6 517.3Q606.2 518.1 606.2 519.0L606.2 519.0L606.2 528ZM619.2 528.3L619.2 528.3Q617.1 528.3 615.6 527.4Q614.2 526.5 613.4 524.8Q612.6 523.2 612.6 521.0L612.6 521.0Q612.6 518.8 613.4 517.2Q614.2 515.5 615.6 514.6Q617.0 513.6 618.9 513.6L618.9 513.6Q620.1 513.6 621.1 514.0Q622.2 514.4 623.1 515.2Q624.0 516.0 624.5 517.4Q625.0 518.7 625.0 520.7L625.0 520.7L625.0 521.6L614.1 521.6L614.1 519.8L622.8 519.8Q622.8 518.6 622.3 517.6Q621.9 516.7 621.0 516.1Q620.1 515.6 618.9 515.6L618.9 515.6Q617.6 515.6 616.7 516.2Q615.8 516.9 615.2 517.9Q614.7 518.9 614.7 520.1L614.7 520.1L614.7 521.4Q614.7 523.0 615.3 524.1Q615.9 525.2 616.9 525.8Q617.8 526.3 619.2 526.3L619.2 526.3Q620.0 526.3 620.7 526.1Q621.4 525.8 621.9 525.4Q622.4 524.9 622.7 524.1L622.7 524.1L624.8 524.7Q624.5 525.8 623.7 526.6Q622.9 527.4 621.8 527.8Q620.6 528.3 619.2 528.3ZM630.0 528.1L630.0 528.1Q629.3 528.1 628.8 527.7Q628.3 527.2 628.3 526.5L628.3 526.5Q628.3 525.8 628.8 525.3Q629.3 524.8 630.0 524.8L630.0 524.8Q630.6 524.8 631.1 525.3Q631.6 525.8 631.6 526.5L631.6 526.5Q631.6 526.9 631.4 527.3Q631.2 527.7 630.8 527.9Q630.4 528.1 630.0 528.1Z " opacity="0.65"/></g><defs><clipPath id="satori_bc-id-3-1"><path x="1056" y="486" width="64" height="64" d="M1072,486 h32 a16,16 0 0 1 16,16 v32 a16,16 0 0 1 -16,16 h-32 a16,16 0 0 1 -16,-16 v-32 a16,16 0 0 1 16,-16"/></clipPath></defs><mask id="satori_om-id-3-1"><rect x="1058" y="488" width="60" height="60" fill="#fff"/><path width="64" height="64" transform="matrix(0.71,0.71,-0.71,0.71,684.95,-617.61)" fill="none" stroke="#000" stroke-width="4" d="M1060.686,490.686 A16,16 0 0 1 1072,486 h32 a16,16 0 0 1 16,16 v32 a16,16 0 0 1 -16,16 h-32 a16,16 0 0 1 -16,-16 v-32 A16,16 0 0 1 1060.686,490.686"/></mask><g opacity="0.65"><path width="64" height="64" transform="matrix(0.71,0.71,-0.71,0.71,684.95,-617.61)" clip-path="url(#satori_bc-id-3-1)" fill="none" stroke="rgba(255,255,255,0.15)" stroke-width="4" d="M1060.686,490.686 A16,16 0 0 1 1072,486 h32 a16,16 0 0 1 16,16 v32 a16,16 0 0 1 -16,16 h-32 a16,16 0 0 1 -16,-16 v-32 A16,16 0 0 1 1060.686,490.686"/></g></svg>