<?xml version="1.0" encoding="UTF-8"?>
<svg width="280px" height="34px" viewBox="0 0 280 34" version="1.1" xmlns="http://www.w3.org/2000/svg" xmlns:xlink="http://www.w3.org/1999/xlink">
    <title>Logo</title>
    <g id="Desktop" stroke="none" stroke-width="1" fill="none" fill-rule="evenodd">
        <g id="Services" transform="translate(-100.000000, -48.000000)">
            <g id="Header-Bar" transform="translate(100.000000, -178.000000)">
                <g id="Logo" transform="translate(0.000000, 226.000000)">
                    <path d="M17.9407634,32.1037535 L0.984898608,15.147332 C-0.328262425,13.8347276 -0.328262425,11.6865765 0.984898608,10.3739722 C2.29694632,9.06081113 4.44509742,9.06081113 5.75825845,10.3739722 L22.7141233,27.3303936 C24.0272843,28.642998 24.0272843,30.7911491 22.7141233,32.1037535 C21.4015189,33.4163579 19.2533678,33.4163579 17.9407634,32.1037535" id="Fill-1" fill="#00B1E9"></path>
                    <path d="M1.08765805,32.1059245 L1.08765805,32.1059245 C-0.224946322,30.7933201 -0.224946322,28.645169 1.08765805,27.3325646 C2.40026243,26.0194036 4.54841352,26.0194036 5.86101789,27.3325646 C7.17417893,28.645169 7.17417893,30.7933201 5.86101789,32.1059245 C4.54841352,33.4185288 2.40026243,33.4185288 1.08765805,32.1059245" id="Fill-3" fill="#00B1E9"></path>
                    <path d="M18.1386561,14.4955388 L9.40132008,5.75820278 C8.08815905,4.44504175 8.08815905,2.29744732 9.40132008,0.984842942 C10.7139245,-0.328318091 12.8620755,-0.328318091 14.1746799,0.984842942 L22.9120159,9.72217893 C24.2246203,11.0347833 24.2246203,13.1829344 22.9120159,14.4955388 C21.5994115,15.8081431 19.4512604,15.8081431 18.1386561,14.4955388" id="Fill-5" fill="#00B1E9"></path>
                    <path d="M56.9974791,12.7587038 L56.9974791,17.9579085 L61.3577972,17.9579085 C63.2615746,17.9579085 64.1010179,16.7505129 64.1010179,15.3989423 C64.1010179,14.1097177 63.2615746,12.7587038 61.3783936,12.7587038 L56.9974791,12.7587038 Z M67.0691292,24.9996581 L64.3871412,24.9996581 L60.0273797,20.0459404 L56.9974791,20.0459404 L56.9974791,24.9996581 L54.7051531,24.9996581 L54.7051531,10.6500755 C56.9362465,10.6500755 59.1467435,10.670672 61.3783936,10.670672 C64.6944175,10.670672 66.4345368,12.9424016 66.4345368,15.3583062 C66.4345368,17.4057018 65.3702028,19.4113479 62.5451531,19.8210497 L66.8230855,24.5905129 L67.0691292,24.9996581 Z" id="Fill-7" fill="#020203"></path>
                    <polygon id="Fill-9" fill="#020203" points="85.1618052 24.9997694 74.5785845 24.9997694 74.5785845 10.6707833 85.1005726 10.6707833 85.1005726 12.9018767 76.8714672 12.9018767 76.8714672 16.770664 84.7726998 16.770664 84.7726998 18.899332 76.8714672 18.899332 76.8714672 22.7480795 85.1618052 22.7480795"></polygon>
                    <path d="M101.781169,13.8431889 C101.10594,12.8606839 99.73433,12.2672843 98.2396978,12.2466879 C96.3158807,12.2466879 94.923674,13.0449384 94.923674,14.4165487 C94.923674,15.8081988 96.520175,16.1973042 98.4039125,16.4633877 C101.351427,16.8725328 104.155881,17.6919364 104.155881,20.9060915 C104.135284,24.1196899 101.207809,25.3276421 98.2196581,25.3276421 C95.4764374,25.3276421 93.3678091,24.4881988 92.0579881,22.0722942 L93.7775109,20.9261312 C94.8006521,22.6662505 96.5819642,23.2802465 98.2396978,23.2802465 C99.9592207,23.2802465 101.862998,22.7074433 101.862998,20.9060915 C101.862998,19.3502266 100.204708,18.8180596 98.198505,18.5514195 C95.3534155,18.1628708 92.6513877,17.4464493 92.6513877,14.3753559 C92.6307913,11.4072445 95.5994592,10.2605249 98.1784652,10.2605249 C100.245901,10.2605249 102.313336,10.7520557 103.521288,12.6764294 L101.781169,13.8431889 Z" id="Fill-11" fill="#020203"></path>
                    <polygon id="Fill-13" fill="#020203" points="122.432755 24.9997694 111.849535 24.9997694 111.849535 10.6707833 122.371523 10.6707833 122.371523 12.9018767 114.141861 12.9018767 114.141861 16.770664 122.04365 16.770664 122.04365 18.899332 114.141861 18.899332 114.141861 22.7480795 122.432755 22.7480795"></polygon>
                    <path d="M136.55472,13.0859642 L133.525376,19.9028231 L139.584064,19.9028231 L136.55472,13.0859642 Z M140.423507,21.9908549 L132.665336,21.9908549 L131.314322,24.9996024 L128.878378,24.9996024 L135.306131,10.6706163 L137.803308,10.6706163 L144.231062,24.9996024 L141.795117,24.9996024 L140.423507,21.9908549 Z" id="Fill-15" fill="#020203"></path>
                    <path d="M153.623642,12.7587038 L153.623642,17.9579085 L157.98396,17.9579085 C159.887738,17.9579085 160.727181,16.7505129 160.727181,15.3989423 C160.727181,14.1097177 159.887738,12.7587038 158.004557,12.7587038 L153.623642,12.7587038 Z M163.695292,24.9996581 L161.013304,24.9996581 L156.653543,20.0459404 L153.623642,20.0459404 L153.623642,24.9996581 L151.331316,24.9996581 L151.331316,10.6500755 C153.56241,10.6500755 155.772907,10.670672 158.004557,10.670672 C161.320581,10.670672 163.0607,12.9424016 163.0607,15.3583062 C163.0607,17.4057018 161.996366,19.4113479 159.171316,19.8210497 L163.449249,24.5905129 L163.695292,24.9996581 Z" id="Fill-17" fill="#020203"></path>
                    <path d="M183.262282,23.157503 C181.788247,24.6109423 179.884469,25.286171 177.878266,25.286171 C172.679062,25.286171 170.344986,21.7040636 170.324818,17.9377018 C170.30435,14.1707833 172.760891,10.4250179 177.878266,10.4250179 C179.80264,10.4250179 181.665225,11.1414394 183.118664,12.5943221 L181.583396,14.0689145 C180.560254,13.0652565 179.209241,12.5943221 177.878266,12.5943221 C174.234926,12.5943221 172.576636,15.2763101 172.597233,17.9171054 C172.617272,20.5373042 174.173137,23.1369066 177.878266,23.1369066 C179.209241,23.1369066 180.68272,22.5846998 181.685821,21.5810417 L183.262282,23.157503 Z" id="Fill-19" fill="#020203"></path>
                    <polygon id="Fill-21" fill="#020203" points="200.576915 24.9997694 200.576915 19.0429503 193.002998 19.0429503 193.002998 24.9997694 190.710115 24.9997694 190.710115 10.6707833 193.002998 10.6707833 193.002998 16.9142823 200.576915 16.9142823 200.576915 10.6707833 202.849201 10.6707833 202.849201 24.9997694"></polygon>
                    <path d="M217.625964,13.0859642 L214.59662,19.9028231 L220.655308,19.9028231 L217.625964,13.0859642 Z M221.494751,21.9908549 L213.736581,21.9908549 L212.385567,24.9996024 L209.949622,24.9996024 L216.377376,10.6706163 L218.874553,10.6706163 L225.302306,24.9996024 L222.866362,24.9996024 L221.494751,21.9908549 Z" id="Fill-23" fill="#020203"></path>
                    <path d="M234.674513,22.8709901 L238.973598,22.8709901 C240.242227,22.8709901 242.002942,22.4618449 242.002942,20.8853837 C242.002942,19.3501153 240.304016,18.6542903 238.993638,18.6542903 L234.674513,18.6542903 L234.674513,22.8709901 Z M234.674513,16.6068946 L238.993638,16.6068946 C240.713161,16.6068946 241.573201,15.9311093 241.573201,14.8055427 C241.573201,13.8024414 240.693121,12.7381074 238.973598,12.7381074 L234.674513,12.7381074 L234.674513,16.6068946 Z M238.973598,10.670672 C241.695666,10.670672 243.845487,11.9192604 243.845487,14.7643499 C243.845487,15.9723022 243.210338,17.0572326 241.859881,17.609996 C243.579404,18.1215666 244.295825,19.8210497 244.295825,20.9059801 C244.295825,24.0377495 241.798091,24.9996581 238.973598,24.9996581 L232.402227,24.9996581 L232.402227,10.670672 L238.973598,10.670672 Z" id="Fill-25" fill="#020203"></path>
                    <polygon id="Fill-27" fill="#020203" points="254.466115 10.670672 254.466115 22.8709901 262.019992 22.8709901 262.019992 24.9996581 252.173789 24.9996581 252.173789 10.670672"></polygon>
                    <polygon id="Fill-29" fill="#020203" points="279.887889 24.9997694 269.304668 24.9997694 269.304668 10.6707833 279.826656 10.6707833 279.826656 12.9018767 271.597551 12.9018767 271.597551 16.770664 279.498783 16.770664 279.498783 18.899332 271.597551 18.899332 271.597551 22.7480795 279.887889 22.7480795"></polygon>
                </g>
            </g>
        </g>
    </g>
</svg>