<?xml version="1.0" encoding="UTF-8"?>
<!DOCTYPE svg PUBLIC "-//W3C//DTD SVG 1.1//EN" "http://www.w3.org/Graphics/SVG/1.1/DTD/svg11.dtd">
<svg xmlns="http://www.w3.org/2000/svg" version="1.1" width="1780px" height="490px" style="shape-rendering:geometricPrecision; text-rendering:geometricPrecision; image-rendering:optimizeQuality; fill-rule:evenodd; clip-rule:evenodd" xmlns:xlink="http://www.w3.org/1999/xlink">
<g><path style="opacity:1" fill="#c70000" d="M 148.5,-0.5 C 152.167,-0.5 155.833,-0.5 159.5,-0.5C 164.658,2.13862 169.158,5.80528 173,10.5C 173.626,12.7135 173.459,14.8801 172.5,17C 171.167,19.3333 169.833,21.6667 168.5,24C 168.833,24.5 169.167,25 169.5,25.5C 171.956,22.542 174.622,19.7087 177.5,17C 179.5,16.3333 181.5,16.3333 183.5,17C 185.907,21.7461 188.74,26.2461 192,30.5C 194.919,42.3233 192.419,52.8233 184.5,62C 178.84,62.7 174.84,60.3667 172.5,55C 171.5,54.3333 170.5,54.3333 169.5,55C 173.151,57.9757 175.818,61.6423 177.5,66C 176.389,69.8921 173.722,71.5588 169.5,71C 168.5,72 167.5,73 166.5,74C 177.329,79.6064 188.329,79.9397 199.5,75C 201.349,73.907 203.016,72.5737 204.5,71C 202.487,70.3203 201.154,68.987 200.5,67C 201.829,64.4911 203.829,62.6578 206.5,61.5C 204.57,51.6053 208.57,46.772 218.5,47C 222.996,51.959 223.663,57.459 220.5,63.5C 224.314,64.4601 225.814,66.7934 225,70.5C 223.255,71.9557 221.422,73.289 219.5,74.5C 223.848,82.3472 230.515,85.5139 239.5,84C 239.448,77.5994 242.115,72.7661 247.5,69.5C 245.218,70.3897 242.885,70.5564 240.5,70C 239.874,69.2496 239.374,68.4162 239,67.5C 238.445,61.9508 237.612,56.4508 236.5,51C 236.649,43.5391 239.649,37.5391 245.5,33C 250.001,30.5841 254.334,27.9175 258.5,25C 267.7,23.2075 271.2,27.0408 269,36.5C 275.566,23.469 286.066,17.6357 300.5,19C 307.816,22.5779 310.316,28.4112 308,36.5C 305.019,40.6959 301.186,41.5293 296.5,39C 295.107,37.8289 294.273,36.3289 294,34.5C 292.045,35.4533 290.378,36.7866 289,38.5C 288.68,35.3283 287.18,32.995 284.5,31.5C 277.405,35.3432 273.572,41.3432 273,49.5C 270.041,52.0982 268.707,55.4316 269,59.5C 267.333,61.8333 265.667,64.1667 264,66.5C 260.862,74.913 257.529,83.2464 254,91.5C 255.217,95.3219 255.883,99.3219 256,103.5C 254.06,106.395 251.56,108.728 248.5,110.5C 185.954,94.8455 123.287,94.5122 60.5,109.5C 51.345,107.031 49.345,101.864 54.5,94C 50.4737,81.8941 45.307,70.3941 39,59.5C 39.2928,55.4316 37.9595,52.0982 35,49.5C 34.189,41.531 30.3557,35.531 23.5,31.5C 20.5043,32.815 19.0043,35.1484 19,38.5C 17.6218,36.7866 15.9552,35.4533 14,34.5C 11.5671,40.448 7.40042,41.948 1.5,39C 0.934056,38.0053 0.267389,37.172 -0.5,36.5C -0.5,32.8333 -0.5,29.1667 -0.5,25.5C 3.7928,19.1204 9.7928,16.9537 17.5,19C 27.0324,21.8601 34.1991,27.6934 39,36.5C 36.7051,27.2248 40.2051,23.3915 49.5,25C 55.9496,28.3078 61.783,32.4744 67,37.5C 70.3096,44.1286 71.3096,51.1286 70,58.5C 69.2255,62.147 68.5588,65.8136 68,69.5C 65.9307,70.2638 63.764,70.7638 61.5,71C 66.4951,73.6592 68.1618,77.6592 66.5,83C 76.3598,86.0493 83.6932,83.0493 88.5,74C 81.4537,71.4825 80.787,67.8159 86.5,63C 83.5289,56.8905 84.5289,51.5571 89.5,47C 93.7929,45.7984 97.2929,46.9651 100,50.5C 101.029,54.4285 101.863,58.4285 102.5,62.5C 106.149,63.5388 107.316,65.8721 106,69.5C 103.122,70.7909 103.288,72.2909 106.5,74C 118.167,80 129.833,80 141.5,74C 139.046,71.5126 136.046,70.1792 132.5,70C 131.57,68.8061 130.903,67.4728 130.5,66C 131.838,61.8304 134.171,58.3304 137.5,55.5C 136.998,54.479 136.332,54.3123 135.5,55C 132.897,59.9615 128.897,62.2948 123.5,62C 111.192,46.7074 111.525,31.7074 124.5,17C 126.5,16.3333 128.5,16.3333 130.5,17C 133.372,19.5366 135.872,22.3699 138,25.5C 138.333,25.1667 138.667,24.8333 139,24.5C 137.862,21.945 136.529,19.2784 135,16.5C 134.333,14.5 134.333,12.5 135,10.5C 137.209,8.62663 139.042,6.45997 140.5,4C 143.099,2.20496 145.766,0.704964 148.5,-0.5 Z M 151.5,30.5 C 161.646,30.8231 165.48,35.8231 163,45.5C 159.1,50.5333 154.267,51.7 148.5,49C 141.422,41.4849 142.422,35.3182 151.5,30.5 Z M 60.5,69.5 C 58.4559,68.9688 56.7893,67.8022 55.5,66C 57.7715,66.0768 59.4382,67.2435 60.5,69.5 Z M 247.5,69.5 C 248.264,66.8861 249.93,65.7195 252.5,66C 251.211,67.8022 249.544,68.9688 247.5,69.5 Z M 152.5,78.5 C 155.516,79.3431 158.183,80.8431 160.5,83C 156.167,83.6667 151.833,83.6667 147.5,83C 149.66,82.0041 151.327,80.5041 152.5,78.5 Z M 97.5,81.5 C 99.4649,83.4879 101.798,84.9879 104.5,86C 101.443,86.2565 98.443,86.7565 95.5,87.5C 95.1667,87.1667 94.8333,86.8333 94.5,86.5C 95.9524,85.0603 96.9524,83.3936 97.5,81.5 Z M 208.5,82.5 C 210.922,83.0852 212.589,84.5852 213.5,87C 210.231,86.8435 206.898,86.5101 203.5,86C 205.584,85.3028 207.251,84.1361 208.5,82.5 Z"/></g>
<g><path style="opacity:1" fill="#c70000" d="M 1016.5,99.5 C 1028.98,100.149 1033.48,106.483 1030,118.5C 1026.27,124.046 1021.1,125.879 1014.5,124C 1007.4,120.122 1005.23,114.289 1008,106.5C 1009.87,102.784 1012.7,100.45 1016.5,99.5 Z"/></g>
<g><path style="opacity:1" fill="#c70000" d="M 1404.5,99.5 C 1416.88,99.3816 1421.71,105.382 1419,117.5C 1414.54,124.57 1408.38,126.404 1400.5,123C 1394.28,116.314 1393.94,109.314 1399.5,102C 1401.31,101.243 1402.98,100.41 1404.5,99.5 Z"/></g>
<g><path style="opacity:1" fill="#c70000" d="M 1779.5,101.5 C 1779.5,108.833 1779.5,116.167 1779.5,123.5C 1774.83,123.5 1770.17,123.5 1765.5,123.5C 1765.93,118.968 1764.93,114.801 1762.5,111C 1754.06,108.478 1749.23,111.644 1748,120.5C 1747.5,126.825 1747.33,133.158 1747.5,139.5C 1754.5,139.5 1761.5,139.5 1768.5,139.5C 1768.5,142.833 1768.5,146.167 1768.5,149.5C 1761.5,149.5 1754.5,149.5 1747.5,149.5C 1747.33,167.503 1747.5,185.503 1748,203.5C 1748.27,205.329 1749.11,206.829 1750.5,208C 1755.49,208.499 1760.49,208.666 1765.5,208.5C 1765.5,211.5 1765.5,214.5 1765.5,217.5C 1748.17,217.5 1730.83,217.5 1713.5,217.5C 1713.5,214.5 1713.5,211.5 1713.5,208.5C 1717.18,208.665 1720.85,208.499 1724.5,208C 1725.89,206.829 1726.73,205.329 1727,203.5C 1727.5,185.503 1727.67,167.503 1727.5,149.5C 1722.83,149.5 1718.17,149.5 1713.5,149.5C 1713.5,146.167 1713.5,142.833 1713.5,139.5C 1718.17,139.5 1722.83,139.5 1727.5,139.5C 1726.32,128.585 1728.16,118.252 1733,108.5C 1740.13,101.843 1748.63,98.8428 1758.5,99.5C 1765.51,100.168 1772.51,100.834 1779.5,101.5 Z"/></g>
<g><path style="opacity:1" fill="#c70000" d="M 107.5,104.5 C 111.541,106.199 114.874,108.866 117.5,112.5C 115.528,116.105 112.861,119.105 109.5,121.5C 106.474,118.805 103.474,116.138 100.5,113.5C 103.239,110.767 105.573,107.767 107.5,104.5 Z"/></g>
<g><path style="opacity:1" fill="#c70000" d="M 150.5,104.5 C 154.792,104.035 158.792,104.868 162.5,107C 164.85,109.373 165.017,111.873 163,114.5C 157.621,118.256 152.121,118.423 146.5,115C 143.748,109.997 145.081,106.497 150.5,104.5 Z"/></g>
<g><path style="opacity:1" fill="#c70000" d="M 199.5,104.5 C 202.737,107.07 205.737,110.07 208.5,113.5C 205.505,116.325 202.338,118.992 199,121.5C 195.935,118.938 193.435,115.938 191.5,112.5C 193.882,109.452 196.548,106.785 199.5,104.5 Z"/></g>
<g><path style="opacity:1" fill="#c70000" d="M 60.5,114.5 C 63.5184,114.335 66.5184,114.502 69.5,115C 73.7002,121.971 71.5335,126.138 63,127.5C 54.3022,124.588 53.4689,120.254 60.5,114.5 Z"/></g>
<g><path style="opacity:1" fill="#c70000" d="M 239.5,114.5 C 243.308,114.163 246.974,114.663 250.5,116C 253.165,118.604 253.665,121.437 252,124.5C 248.581,127.848 244.748,128.348 240.5,126C 235.697,122.465 235.364,118.632 239.5,114.5 Z"/></g>
<g><path style="opacity:1" fill="#c70000" d="M 1458.5,116.5 C 1463.17,116.5 1467.83,116.5 1472.5,116.5C 1472.5,124.167 1472.5,131.833 1472.5,139.5C 1481.17,139.5 1489.83,139.5 1498.5,139.5C 1498.5,142.833 1498.5,146.167 1498.5,149.5C 1489.83,149.5 1481.17,149.5 1472.5,149.5C 1472.07,168.214 1472.57,186.88 1474,205.5C 1478.62,210.818 1483.29,210.818 1488,205.5C 1488.5,200.845 1488.67,196.179 1488.5,191.5C 1493.5,191.5 1498.5,191.5 1503.5,191.5C 1505.14,210.281 1496.64,219.948 1478,220.5C 1464.22,221.685 1455.89,215.685 1453,202.5C 1452.5,184.836 1452.33,167.17 1452.5,149.5C 1447.83,149.5 1443.17,149.5 1438.5,149.5C 1438.33,146.15 1438.5,142.817 1439,139.5C 1452.44,137.885 1458.94,130.218 1458.5,116.5 Z"/></g>
<g><path style="opacity:1" fill="#c70000" d="M 147.5,120.5 C 181.967,120.892 215.967,125.058 249.5,133C 250.406,134.699 250.739,136.533 250.5,138.5C 267.833,138.5 285.167,138.5 302.5,138.5C 302.667,207.501 302.5,276.501 302,345.5C 293.761,409.131 258.928,450.297 197.5,469C 142.072,483.116 92.0723,472.449 47.5,437C 21.3503,412.532 6.51701,382.366 3,346.5C 2.5,277.167 2.33334,207.834 2.5,138.5C 20.8364,138.667 39.1697,138.5 57.5,138C 58.4061,136.301 58.7394,134.467 58.5,132.5C 88.0326,126.423 117.699,122.423 147.5,120.5 Z M 115.5,235.5 C 117.69,234.626 118.69,232.959 118.5,230.5C 120.942,230.646 121.609,229.813 120.5,228C 115.899,226.317 113.399,227.817 113,232.5C 111.89,230.603 111.724,228.77 112.5,227C 110.097,226.37 108.263,227.203 107,229.5C 106.893,232.131 106.727,234.631 106.5,237C 102.362,236.588 99.0283,234.588 96.5,231C 99.043,228.898 101.043,229.398 102.5,232.5C 105.101,230.078 104.768,227.911 101.5,226C 94.2397,226.658 91.0731,223.492 92,216.5C 93.0195,215.313 94.1861,214.313 95.5,213.5C 96.6361,216.937 98.6361,219.771 101.5,222C 102.635,222.749 103.635,222.583 104.5,221.5C 103.071,219.669 102.571,217.669 103,215.5C 105.756,220.767 109.923,222.434 115.5,220.5C 110.454,217.977 108.287,213.977 109,208.5C 112.503,216.598 117.836,219.265 125,216.5C 122.833,215 120.667,213.5 118.5,212C 122.756,213.262 126.589,212.428 130,209.5C 130.483,208.552 130.649,207.552 130.5,206.5C 125.757,205.439 122.091,202.773 119.5,198.5C 122.613,198.538 125.613,198.038 128.5,197C 126.221,196.527 124.221,195.527 122.5,194C 127.962,191.948 129.462,188.448 127,183.5C 123.744,185.429 120.244,185.929 116.5,185C 120.321,183.839 123.821,182.006 127,179.5C 127.667,178.167 127.667,176.833 127,175.5C 126.184,176.823 125.017,177.489 123.5,177.5C 125.807,173.881 125.974,170.215 124,166.5C 118.996,174.281 117.83,174.115 120.5,166C 120.167,165.167 119.833,164.333 119.5,163.5C 118.52,164.981 117.353,166.315 116,167.5C 115.751,164.823 114.751,162.49 113,160.5C 112.443,164.175 111.11,167.508 109,170.5C 105.283,173.885 101.283,176.885 97,179.5C 96.2195,180.944 96.3861,182.277 97.5,183.5C 107.53,184.566 107.363,186.566 97,189.5C 91.7726,189.095 88.606,186.429 87.5,181.5C 87.3898,179.626 88.0564,178.126 89.5,177C 91.7885,176.178 94.1218,175.511 96.5,175C 97.2524,174.329 97.5858,173.496 97.5,172.5C 100.602,172.846 103.435,172.179 106,170.5C 106.847,167.51 105.68,166.176 102.5,166.5C 102.5,167.5 102.5,168.5 102.5,169.5C 93.7598,169.907 93.4265,168.907 101.5,166.5C 99.9795,164.379 97.9795,162.879 95.5,162C 91.4337,161.997 87.4337,161.83 83.5,161.5C 83.619,168.256 80.7857,173.59 75,177.5C 70.4664,174.787 67.6331,170.787 66.5,165.5C 67.7052,163.879 67.5385,162.546 66,161.5C 63.4209,162.376 60.7543,162.376 58,161.5C 55.3371,161.826 52.8371,162.659 50.5,164C 49.6433,164.689 48.9767,165.522 48.5,166.5C 56.4694,169.081 56.1361,169.914 47.5,169C 46.7801,166.878 45.6134,166.378 44,167.5C 43.3162,168.784 43.4829,169.951 44.5,171C 46.6775,172.202 49.0108,172.702 51.5,172.5C 51.4142,173.496 51.7476,174.329 52.5,175C 55.2635,175.532 57.9302,176.366 60.5,177.5C 63.1992,180.903 62.8659,184.07 59.5,187C 54.033,190.543 49.033,190.043 44.5,185.5C 46.7662,184.686 49.0995,184.186 51.5,184C 52.5742,183.261 53.2409,182.261 53.5,181C 48.8198,177.547 44.3198,173.714 40,169.5C 38.2503,166.754 37.2503,163.754 37,160.5C 34.9539,162.7 33.9539,165.367 34,168.5C 30.2242,161.676 28.8909,162.009 30,169.5C 30.3742,170.416 30.8742,171.25 31.5,172C 29.0566,171.914 27.3899,170.581 26.5,168C 24.6768,167.868 23.6768,168.868 23.5,171C 23.9344,173.316 24.9344,175.316 26.5,177C 24.6332,177.711 23.1332,177.211 22,175.5C 21.8348,177.678 22.6682,179.511 24.5,181C 27.2019,182.34 29.8685,183.673 32.5,185C 28.8823,185.966 25.549,185.466 22.5,183.5C 20.5081,188.685 22.1748,192.185 27.5,194C 25.2827,195.275 22.9494,196.275 20.5,197C 21.4296,197.991 22.5962,198.491 24,198.5C 26.1537,197.748 28.3203,197.581 30.5,198C 27.817,202.852 23.817,206.018 18.5,207.5C 20.7506,211.947 24.4173,213.614 29.5,212.5C 27.7472,214.223 25.7472,215.723 23.5,217C 26.7351,218.809 30.0685,218.809 33.5,217C 36.0402,214.795 38.2068,212.295 40,209.5C 40.9398,214.948 38.7732,218.615 33.5,220.5C 39.2367,222.389 43.7367,220.722 47,215.5C 47.1698,217.983 46.3365,220.149 44.5,222C 47.096,222.458 49.2627,221.625 51,219.5C 51.9143,217.336 53.081,215.336 54.5,213.5C 59.7669,217.378 59.7669,221.211 54.5,225C 51.7111,225.241 49.0444,225.908 46.5,227C 45.5939,228.699 45.2606,230.533 45.5,232.5C 47.6719,231.199 50.0052,230.199 52.5,229.5C 52.7035,231.39 52.0368,232.89 50.5,234C 48.5318,235.544 46.3651,236.711 44,237.5C 43.3076,236.975 42.8076,236.308 42.5,235.5C 44.5181,229.697 42.5181,226.864 36.5,227C 37.5914,229.064 37.7581,231.231 37,233.5C 37.2959,227.953 34.7959,226.12 29.5,228C 29.0426,228.414 28.7093,228.914 28.5,229.5C 30.215,231.882 32.215,233.882 34.5,235.5C 30.289,236.259 28.9557,238.593 30.5,242.5C 39.1366,239.646 44.1366,242.646 45.5,251.5C 46.5,251.5 47.5,251.5 48.5,251.5C 48.6204,249.801 48.9537,248.135 49.5,246.5C 48.6123,244.845 48.1123,243.178 48,241.5C 50.1655,238.493 52.9989,236.493 56.5,235.5C 58.9253,236.9 58.5919,238.066 55.5,239C 57.3528,240.669 59.3528,240.835 61.5,239.5C 62.2435,236.557 62.7435,233.557 63,230.5C 65.8787,226.359 68.0453,226.692 69.5,231.5C 68.8863,237.533 68.0529,243.533 67,249.5C 64.6531,252.856 61.6531,253.856 58,252.5C 57.5172,251.552 57.3505,250.552 57.5,249.5C 59.9424,249.646 60.6091,248.813 59.5,247C 54.5071,245.491 52.5071,247.325 53.5,252.5C 46.8247,251.328 44.9913,253.661 48,259.5C 48.4244,257.385 49.5911,256.552 51.5,257C 52.2489,258.734 52.7489,260.567 53,262.5C 54.6884,264.848 56.5217,265.015 58.5,263C 55.9974,261.451 55.9974,259.784 58.5,258C 72.6126,252.895 73.1126,254.062 60,261.5C 59.0539,263.956 59.5539,265.956 61.5,267.5C 62.741,264.856 64.741,264.023 67.5,265C 70.0448,267.376 72.3782,269.876 74.5,272.5C 77.3174,270.183 79.9841,267.683 82.5,265C 83.7932,264.51 85.1266,264.343 86.5,264.5C 88.3698,276.357 89.0364,288.357 88.5,300.5C 75.1625,300.333 61.8292,300.5 48.5,301C 35.3333,314.833 22.1667,328.667 9,342.5C 8.5,276.501 8.33334,210.501 8.5,144.5C 71.1676,144.333 133.834,144.5 196.5,145C 182.667,159.5 168.833,174 155,188.5C 154.333,203.167 154.333,217.833 155,232.5C 182.866,203.635 210.366,174.469 237.5,145C 251.179,144.167 264.846,144.334 278.5,145.5C 247.984,177.516 217.65,209.682 187.5,242C 180.655,240.229 173.655,238.729 166.5,237.5C 160.922,237.545 155.922,239.211 151.5,242.5C 146.652,239.717 141.486,238.05 136,237.5C 130.447,238.515 124.947,239.849 119.5,241.5C 120.109,238.122 118.776,236.122 115.5,235.5 Z M 176.5,376.5 C 174.599,378.796 172.266,380.629 169.5,382C 176.894,384.058 182.394,381.558 186,374.5C 186.552,379.546 184.385,383.046 179.5,385C 181.614,386.518 183.947,386.851 186.5,386C 188.96,384.542 191.127,382.709 193,380.5C 192.921,382.846 192.088,385.013 190.5,387C 195.713,386.211 198.879,383.044 200,377.5C 205.009,380.967 205.509,384.8 201.5,389C 198.133,389.8 194.966,390.966 192,392.5C 191.116,394.641 191.616,396.307 193.5,397.5C 194.327,395.838 195.493,394.505 197,393.5C 199.015,395.478 198.848,397.312 196.5,399C 193.593,401.494 190.593,401.827 187.5,400C 190.265,397.034 189.932,394.367 186.5,392C 185.5,391.333 184.5,391.333 183.5,392C 183.833,392.333 184.167,392.667 184.5,393C 183.773,394.399 183.273,395.899 183,397.5C 182.601,392.817 180.101,391.317 175.5,393C 175.574,396.058 177.24,398.391 180.5,400C 175.654,400.936 174.487,403.436 177,407.5C 177.308,406.692 177.808,406.025 178.5,405.5C 181.898,406.104 185.231,406.937 188.5,408C 189.127,410.343 190.127,412.51 191.5,414.5C 191.291,415.086 190.957,415.586 190.5,416C 191.793,416.49 193.127,416.657 194.5,416.5C 196.083,413.233 195.75,410.233 193.5,407.5C 195.436,403.689 198.436,401.022 202.5,399.5C 203.5,399.833 204.167,400.5 204.5,401.5C 200.622,404.495 201.289,405.661 206.5,405C 207,404.5 207.5,404 208,403.5C 208.333,400.833 208.667,398.167 209,395.5C 210.037,392.616 211.871,391.95 214.5,393.5C 215.122,400.511 214.622,407.511 213,414.5C 210.358,417.029 207.192,418.029 203.5,417.5C 203.343,416.127 203.51,414.793 204,413.5C 204.893,414.711 205.726,414.711 206.5,413.5C 204.84,409.921 202.673,409.588 200,412.5C 199.51,413.793 199.343,415.127 199.5,416.5C 193.781,415.974 191.781,418.308 193.5,423.5C 194.532,421.96 195.865,421.46 197.5,422C 198.249,423.734 198.749,425.567 199,427.5C 200.726,428.576 202.559,428.743 204.5,428C 201.833,426.333 201.833,424.667 204.5,423C 208.15,421.555 211.817,420.555 215.5,420C 212.774,422.296 209.774,424.129 206.5,425.5C 205.062,428.083 205.396,430.417 207.5,432.5C 208.327,430.838 209.493,429.505 211,428.5C 214.632,431.13 217.965,434.13 221,437.5C 223.833,434.667 226.667,431.833 229.5,429C 230.167,428.333 230.833,428.333 231.5,429C 233.231,433.504 234.897,433.337 236.5,428.5C 234.892,424.497 231.892,422.331 227.5,422C 226.289,421.107 226.289,420.274 227.5,419.5C 230.717,420.972 234.051,422.138 237.5,423C 240.167,424.667 240.167,426.333 237.5,428C 242.508,428.878 244.508,426.712 243.5,421.5C 245.39,421.297 246.89,421.963 248,423.5C 250.373,418.357 248.54,416.024 242.5,416.5C 243.167,413.167 241.833,411.167 238.5,410.5C 236.45,411.077 235.45,412.41 235.5,414.5C 236.675,414.281 237.675,414.614 238.5,415.5C 234.494,418.469 230.994,417.803 228,413.5C 227.56,408.327 227.06,403.161 226.5,398C 225.958,392.534 227.791,391.367 232,394.5C 232.294,398.108 233.127,401.608 234.5,405C 239.095,406.01 240.095,404.843 237.5,401.5C 237.808,400.692 238.308,400.025 239,399.5C 242.203,400.77 244.87,402.77 247,405.5C 246.68,408.46 246.68,411.46 247,414.5C 247.725,416.158 248.892,416.658 250.5,416C 250.094,410.796 252.594,407.296 258,405.5C 259.667,406.833 261.333,406.833 263,405.5C 264.544,408.264 265.711,408.097 266.5,405C 266.033,401.535 264.033,399.868 260.5,400C 263.106,399.55 264.439,398.05 264.5,395.5C 266.942,395.646 267.609,394.813 266.5,393C 264.19,392.503 261.857,392.337 259.5,392.5C 259.656,398.313 258.989,398.646 257.5,393.5C 257.709,392.914 258.043,392.414 258.5,392C 254.466,391.024 252.466,392.691 252.5,397C 254.454,400.526 253.454,401.859 249.5,401C 246.638,400.07 244.305,398.403 242.5,396C 244.882,393.066 246.882,393.566 248.5,397.5C 250.384,396.307 250.884,394.641 250,392.5C 246.741,390.861 243.241,389.694 239.5,389C 236.379,384.267 237.213,380.434 242,377.5C 242.412,382.411 244.912,385.744 249.5,387.5C 249.833,387.167 250.167,386.833 250.5,386.5C 249.071,384.669 248.571,382.669 249,380.5C 251.956,385.231 256.122,387.064 261.5,386C 261.833,385.667 262.167,385.333 262.5,385C 257.091,383.005 254.591,379.172 255,373.5C 257.95,378.954 262.45,382.287 268.5,383.5C 269.737,383.444 270.737,382.944 271.5,382C 269.5,380.333 267.5,378.667 265.5,377C 268.527,377.84 271.527,377.507 274.5,376C 275.574,375.261 276.241,374.261 276.5,373C 271.905,370.741 268.239,367.408 265.5,363C 268.5,362.667 271.5,362.333 274.5,362C 272.623,360.815 270.623,359.815 268.5,359C 273.311,356.883 274.977,353.383 273.5,348.5C 269.85,350.814 266.183,350.981 262.5,349C 266.209,348.312 269.543,346.812 272.5,344.5C 273.428,343.232 273.595,341.899 273,340.5C 269.887,343.282 269.221,342.949 271,339.5C 271.874,336.621 271.54,333.955 270,331.5C 268.71,333.792 267.043,335.792 265,337.5C 266.186,334.348 266.519,331.015 266,327.5C 264.907,329.349 263.574,331.016 262,332.5C 261.751,329.823 260.751,327.49 259,325.5C 258.144,329.544 256.478,333.211 254,336.5C 250.672,339.333 247.005,341.666 243,343.5C 242.28,345.112 242.446,346.612 243.5,348C 246.044,349.092 248.711,349.759 251.5,350C 247.785,353.31 243.452,354.31 238.5,353C 233.962,351.287 232.462,348.12 234,343.5C 236.98,341.465 240.147,339.798 243.5,338.5C 242.5,337.833 241.5,337.167 240.5,336.5C 240.667,336.167 240.833,335.833 241,335.5C 244.073,336.617 247.24,336.784 250.5,336C 253.156,333.771 252.823,331.938 249.5,330.5C 248.402,334.322 246.068,335.322 242.5,333.5C 244.167,332.833 245.833,332.167 247.5,331.5C 244.814,329.143 241.814,327.143 238.5,325.5C 235.122,326.911 231.789,327.577 228.5,327.5C 228.661,333.038 226.661,337.871 222.5,342C 220.097,342.63 218.263,341.797 217,339.5C 216.333,311.167 216.333,282.833 217,254.5C 242.967,226.198 269.3,198.198 296,170.5C 296.667,185.167 296.667,199.833 296,214.5C 270.317,241.349 244.817,268.349 219.5,295.5C 232.821,296.666 246.154,296.833 259.5,296C 271.667,283.167 283.833,270.333 296,257.5C 296.667,285.5 296.667,313.5 296,341.5C 291.461,393.454 265.961,430.954 219.5,454C 181.719,471.344 143.052,473.678 103.5,461C 119.366,444.802 134.866,428.302 150,411.5C 150.833,397.488 150.666,383.488 149.5,369.5C 124.679,395.155 100.012,420.989 75.5,447C 71.5903,446.218 67.9236,444.551 64.5,442C 59.4609,438.474 54.7942,434.474 50.5,430C 77.0161,402.318 103.349,374.484 129.5,346.5C 132.784,345.343 136.118,345.176 139.5,346C 143.472,355.318 150.139,357.984 159.5,354C 162.596,351.971 164.262,349.138 164.5,345.5C 169.609,346.045 174.609,347.212 179.5,349C 175.817,350.981 172.15,350.814 168.5,348.5C 167.359,350.421 167.192,352.421 168,354.5C 169.5,356 171,357.5 172.5,359C 170.623,360.185 168.623,361.185 166.5,362C 177.269,359.053 178.936,361.387 171.5,369C 162.896,371.442 163.062,374.276 172,377.5C 173.44,376.852 174.94,376.519 176.5,376.5 Z M 97.5,172.5 C 96.2334,173.087 95.2334,173.087 94.5,172.5C 95.6136,171.224 96.6136,171.224 97.5,172.5 Z M 61.5,190.5 C 70.1667,190.5 78.8333,190.5 87.5,190.5C 87.5,193.833 87.5,197.167 87.5,200.5C 78.8333,200.5 70.1667,200.5 61.5,200.5C 61.5,197.167 61.5,193.833 61.5,190.5 Z M 62.5,210.5 C 70.84,210.334 79.1733,210.5 87.5,211C 83.6444,220.251 76.9777,222.918 67.5,219C 64.4044,216.971 62.7377,214.138 62.5,210.5 Z M 81.5,227.5 C 86.3731,228.41 88.0398,231.243 86.5,236C 87.2981,240.258 89.6314,241.425 93.5,239.5C 92.8333,238.5 92.1667,237.5 91.5,236.5C 95.5081,235.41 98.6747,236.744 101,240.5C 101.756,242.809 101.256,244.809 99.5,246.5C 102.394,249.818 101.56,251.818 97,252.5C 97.3127,247.115 94.8127,245.115 89.5,246.5C 89.5,247.5 89.5,248.5 89.5,249.5C 90.5,249.5 91.5,249.5 92.5,249.5C 92.5417,251.849 91.3751,253.182 89,253.5C 86.8606,252.764 84.8606,251.764 83,250.5C 80.9044,242.893 80.4044,235.226 81.5,227.5 Z M 116.5,240.5 C 117.776,241.386 117.776,242.386 116.5,243.5C 112.854,244.881 109.354,246.548 106,248.5C 105.28,246.888 105.446,245.388 106.5,244C 109.681,242.156 113.014,240.989 116.5,240.5 Z M 131.5,242.5 C 137.647,241.812 143.314,243.145 148.5,246.5C 149.833,275.5 149.833,304.5 148.5,333.5C 140.575,330.969 132.575,330.469 124.5,332C 116.252,335.457 108.252,339.457 100.5,344C 98.26,344.977 95.9267,345.477 93.5,345.5C 93.5,316.167 93.5,286.833 93.5,257.5C 97.5701,256.644 101.57,255.477 105.5,254C 113.914,249.286 122.581,245.453 131.5,242.5 Z M 160.5,242.5 C 165.913,242.229 171.246,242.729 176.5,244C 183.621,247.061 190.621,250.394 197.5,254C 202.407,255.614 207.407,256.781 212.5,257.5C 212.5,286.833 212.5,316.167 212.5,345.5C 208.753,345.608 205.086,345.108 201.5,344C 193.827,338.664 185.494,334.664 176.5,332C 171.833,331.333 167.167,331.333 162.5,332C 159.766,332.21 157.266,333.044 155,334.5C 154.333,305.167 154.333,275.833 155,246.5C 156.5,244.531 158.333,243.198 160.5,242.5 Z M 133.5,251.5 C 135.924,253.228 136.09,255.228 134,257.5C 133.505,255.527 133.338,253.527 133.5,251.5 Z M 80.5,254.5 C 83.3914,255.541 86.058,256.874 88.5,258.5C 88.1667,258.833 87.8333,259.167 87.5,259.5C 85.8849,258.846 84.2182,258.346 82.5,258C 81.1772,257.184 80.5106,256.017 80.5,254.5 Z M 196.5,289.5 C 198.026,290.105 199.026,291.271 199.5,293C 198.975,293.692 198.308,294.192 197.5,294.5C 196.548,292.955 196.215,291.288 196.5,289.5 Z M 103.5,290.5 C 105.97,291.36 106.137,292.694 104,294.5C 103.51,293.207 103.343,291.873 103.5,290.5 Z M 103.5,297.5 C 105.635,297.147 106.968,297.98 107.5,300C 107.112,301.951 106.112,303.451 104.5,304.5C 103.526,302.257 103.192,299.924 103.5,297.5 Z M 87.5,303.5 C 88.4794,306.625 88.8128,309.958 88.5,313.5C 85.6787,313.316 84.0121,314.649 83.5,317.5C 78.2031,319.787 77.2031,323.287 80.5,328C 83.146,328.497 85.8127,328.664 88.5,328.5C 88.6662,334.509 88.4995,340.509 88,346.5C 69.532,366.636 50.6986,386.469 31.5,406C 30.6683,406.688 30.0016,406.521 29.5,405.5C 24.1122,397.391 19.7789,388.724 16.5,379.5C 40.1884,354.146 63.8551,328.813 87.5,303.5 Z M 107.5,315.5 C 108.117,315.611 108.617,315.944 109,316.5C 109.167,318 109.333,319.5 109.5,321C 109.66,323.47 108.993,325.636 107.5,327.5C 106.235,323.454 106.235,319.454 107.5,315.5 Z M 190.5,320.5 C 188.535,320.052 188.202,319.052 189.5,317.5C 190.386,318.325 190.719,319.325 190.5,320.5 Z M 150.5,338.5 C 156.555,338.052 158.721,340.719 157,346.5C 152.616,350.565 149.449,349.732 147.5,344C 147.863,341.808 148.863,339.974 150.5,338.5 Z M 190.5,348.5 C 195.467,349.727 200.467,350.894 205.5,352C 201.625,353.52 197.625,353.854 193.5,353C 191.859,351.871 190.859,350.371 190.5,348.5 Z M 207.5,354.5 C 216.167,354.5 224.833,354.5 233.5,354.5C 233.5,357.833 233.5,361.167 233.5,364.5C 224.833,364.5 216.167,364.5 207.5,364.5C 207.5,361.167 207.5,357.833 207.5,354.5 Z M 208.5,375.5 C 216.84,375.334 225.173,375.5 233.5,376C 228.988,385.504 221.988,387.838 212.5,383C 210.505,380.843 209.172,378.343 208.5,375.5 Z"/></g>
<g><path style="opacity:1" fill="#c70000" d="M 940.5,136.5 C 952.342,135.025 962.508,138.358 971,146.5C 972.275,148.717 973.275,151.051 974,153.5C 974.055,171.219 974.722,188.886 976,206.5C 979.922,208.312 984.089,208.979 988.5,208.5C 988.5,211.5 988.5,214.5 988.5,217.5C 973.5,217.5 958.5,217.5 943.5,217.5C 943.5,214.5 943.5,211.5 943.5,208.5C 946.187,208.664 948.854,208.497 951.5,208C 952.701,207.097 953.535,205.931 954,204.5C 954.667,190.167 954.667,175.833 954,161.5C 952.506,154.175 948.006,150.175 940.5,149.5C 930.437,150.4 924.27,155.734 922,165.5C 921.333,178.833 921.333,192.167 922,205.5C 922.5,206.667 923.333,207.5 924.5,208C 927.146,208.497 929.813,208.664 932.5,208.5C 932.5,211.5 932.5,214.5 932.5,217.5C 917.167,217.5 901.833,217.5 886.5,217.5C 886.5,214.5 886.5,211.5 886.5,208.5C 890.182,208.665 893.848,208.499 897.5,208C 898.701,207.097 899.535,205.931 900,204.5C 900.667,186.833 900.667,169.167 900,151.5C 899.5,150.333 898.667,149.5 897.5,149C 894.183,148.502 890.85,148.335 887.5,148.5C 887.5,145.5 887.5,142.5 887.5,139.5C 897.833,138.833 908.167,138.167 918.5,137.5C 918.334,142.844 918.501,148.177 919,153.5C 923.178,143.852 930.344,138.186 940.5,136.5 Z"/></g>
<g><path style="opacity:1" fill="#c70000" d="M 1168.5,136.5 C 1200.14,134.139 1214.81,148.806 1212.5,180.5C 1194.17,180.5 1175.83,180.5 1157.5,180.5C 1156.5,190.013 1158.83,198.513 1164.5,206C 1171.97,210.215 1179.64,210.548 1187.5,207C 1191.7,202.719 1193.7,197.552 1193.5,191.5C 1199.17,191.5 1204.83,191.5 1210.5,191.5C 1210.41,204.85 1204.08,213.684 1191.5,218C 1177.66,221.77 1164.32,220.436 1151.5,214C 1143.26,208.36 1138.42,200.526 1137,190.5C 1134.41,177.253 1136.07,164.587 1142,152.5C 1148.49,143.175 1157.33,137.842 1168.5,136.5 Z M 1169.5,146.5 C 1185.55,145.555 1192.89,153.222 1191.5,169.5C 1180.17,169.5 1168.83,169.5 1157.5,169.5C 1156.59,158.978 1160.59,151.311 1169.5,146.5 Z"/></g>
<g><path style="opacity:1" fill="#c70000" d="M 1277.5,136.5 C 1283.63,136.177 1289.63,136.843 1295.5,138.5C 1296.5,146.472 1296.83,154.472 1296.5,162.5C 1291.17,162.5 1285.83,162.5 1280.5,162.5C 1280.82,151.61 1276.15,148.11 1266.5,152C 1261.38,157.084 1258.54,163.251 1258,170.5C 1257.11,182.549 1257.44,194.549 1259,206.5C 1259.75,207.126 1260.58,207.626 1261.5,208C 1266.15,208.499 1270.82,208.666 1275.5,208.5C 1275.5,211.5 1275.5,214.5 1275.5,217.5C 1258.17,217.5 1240.83,217.5 1223.5,217.5C 1223.5,214.5 1223.5,211.5 1223.5,208.5C 1227.18,208.665 1230.85,208.499 1234.5,208C 1235.7,207.097 1236.53,205.931 1237,204.5C 1237.67,187.167 1237.67,169.833 1237,152.5C 1236.53,151.069 1235.7,149.903 1234.5,149C 1230.85,148.501 1227.18,148.335 1223.5,148.5C 1223.5,145.5 1223.5,142.5 1223.5,139.5C 1234.17,138.833 1244.83,138.167 1255.5,137.5C 1255.33,142.511 1255.5,147.511 1256,152.5C 1260.67,143.605 1267.83,138.271 1277.5,136.5 Z"/></g>
<g><path style="opacity:1" fill="#c70000" d="M 1332.5,136.5 C 1344.06,136.029 1355.4,137.362 1366.5,140.5C 1367.5,148.138 1367.83,155.804 1367.5,163.5C 1362.83,163.5 1358.17,163.5 1353.5,163.5C 1353.49,148.308 1346.15,143.141 1331.5,148C 1325.84,154.37 1326.5,160.036 1333.5,165C 1342.42,168.53 1351.42,171.863 1360.5,175C 1370.81,180.012 1374.64,188.179 1372,199.5C 1369.6,208.237 1364.1,214.071 1355.5,217C 1339.44,221.055 1323.44,220.555 1307.5,215.5C 1307.5,207.5 1307.5,199.5 1307.5,191.5C 1312.17,191.5 1316.83,191.5 1321.5,191.5C 1321.72,208.954 1330.05,214.454 1346.5,208C 1353.16,202.047 1353.16,196.047 1346.5,190C 1336.19,186.786 1326.19,182.786 1316.5,178C 1306.65,169.383 1304.82,159.216 1311,147.5C 1317.09,141.538 1324.26,137.871 1332.5,136.5 Z"/></g>
<g><path style="opacity:1" fill="#c70000" d="M 1658.5,136.5 C 1670.05,135.477 1680.72,137.977 1690.5,144C 1697.39,149.945 1701.56,157.445 1703,166.5C 1703.67,174.167 1703.67,181.833 1703,189.5C 1698.45,209.863 1685.62,220.196 1664.5,220.5C 1638.45,218.782 1625.45,204.782 1625.5,178.5C 1624.79,154.916 1635.79,140.916 1658.5,136.5 Z M 1661.5,146.5 C 1674.79,146.959 1681.62,153.959 1682,167.5C 1682.78,176.874 1682.44,186.207 1681,195.5C 1677.28,208.275 1669.12,212.442 1656.5,208C 1651.42,203.682 1648.59,198.182 1648,191.5C 1647.1,181.107 1647.43,170.773 1649,160.5C 1650.25,153.094 1654.41,148.428 1661.5,146.5 Z"/></g>
<g><path style="opacity:1" fill="#c70000" d="M 803.5,137.5 C 806.5,137.5 809.5,137.5 812.5,137.5C 812.333,157.503 812.5,177.503 813,197.5C 815.207,203.865 819.707,206.865 826.5,206.5C 837.126,206.377 843.292,201.044 845,190.5C 845.667,177.5 845.667,164.5 845,151.5C 844.626,150.584 844.126,149.75 843.5,149C 839.848,148.501 836.182,148.335 832.5,148.5C 832.5,145.5 832.5,142.5 832.5,139.5C 843.828,138.75 855.161,138.084 866.5,137.5C 866.333,160.169 866.5,182.836 867,205.5C 867.833,206.333 868.667,207.167 869.5,208C 872.817,208.498 876.15,208.665 879.5,208.5C 879.5,211.5 879.5,214.5 879.5,217.5C 869.167,217.5 858.833,217.5 848.5,217.5C 848.666,212.821 848.499,208.155 848,203.5C 845.126,210.705 839.959,215.538 832.5,218C 821.605,221.306 810.938,220.639 800.5,216C 796.806,213.313 794.306,209.813 793,205.5C 792.886,187.136 792.219,168.803 791,150.5C 790.5,150 790,149.5 789.5,149C 785.848,148.501 782.182,148.335 778.5,148.5C 778.5,145.5 778.5,142.5 778.5,139.5C 787.007,139.14 795.34,138.473 803.5,137.5 Z"/></g>
<g><path style="opacity:1" fill="#c70000" d="M 1020.5,137.5 C 1023.5,137.5 1026.5,137.5 1029.5,137.5C 1029.33,159.836 1029.5,182.169 1030,204.5C 1030.47,205.931 1031.3,207.097 1032.5,208C 1035.82,208.498 1039.15,208.665 1042.5,208.5C 1042.5,211.5 1042.5,214.5 1042.5,217.5C 1026.5,217.5 1010.5,217.5 994.5,217.5C 994.5,214.5 994.5,211.5 994.5,208.5C 998.182,208.665 1001.85,208.499 1005.5,208C 1006.42,207.626 1007.25,207.126 1008,206.5C 1009.11,197.391 1009.61,188.224 1009.5,179C 1009.6,169.452 1009.1,159.952 1008,150.5C 1007.5,150 1007,149.5 1006.5,149C 1002.85,148.501 999.182,148.335 995.5,148.5C 995.5,145.5 995.5,142.5 995.5,139.5C 1004.01,139.14 1012.34,138.473 1020.5,137.5 Z"/></g>
<g><path style="opacity:1" fill="#c70000" d="M 1408.5,137.5 C 1411.83,137.5 1415.17,137.5 1418.5,137.5C 1418.33,160.169 1418.5,182.836 1419,205.5C 1419.5,206.667 1420.33,207.5 1421.5,208C 1424.82,208.498 1428.15,208.665 1431.5,208.5C 1431.5,211.5 1431.5,214.5 1431.5,217.5C 1415.5,217.5 1399.5,217.5 1383.5,217.5C 1383.5,214.5 1383.5,211.5 1383.5,208.5C 1387.18,208.665 1390.85,208.499 1394.5,208C 1395.33,207.167 1396.17,206.333 1397,205.5C 1397.67,187.5 1397.67,169.5 1397,151.5C 1396.63,150.584 1396.13,149.75 1395.5,149C 1391.85,148.501 1388.18,148.335 1384.5,148.5C 1384.5,145.5 1384.5,142.5 1384.5,139.5C 1392.68,139.159 1400.68,138.492 1408.5,137.5 Z"/></g>
<g><path style="opacity:1" fill="#c70000" d="M 405.5,489.5 C 397.5,489.5 389.5,489.5 381.5,489.5C 476.454,372.707 571.621,256.041 667,139.5C 675.108,138.185 683.275,138.185 691.5,139.5C 596.158,256.197 500.825,372.864 405.5,489.5 Z"/></g>
<g><path style="opacity:1" fill="#c70000" d="M 1044.5,139.5 C 1058.17,139.5 1071.83,139.5 1085.5,139.5C 1085.5,142.167 1085.5,144.833 1085.5,147.5C 1081.79,147.423 1078.12,147.756 1074.5,148.5C 1078.88,165.809 1084.38,182.809 1091,199.5C 1096.99,183.029 1102.82,166.529 1108.5,150C 1104.87,147.757 1100.87,146.923 1096.5,147.5C 1096.5,144.833 1096.5,142.167 1096.5,139.5C 1108.17,139.5 1119.83,139.5 1131.5,139.5C 1131.5,142.167 1131.5,144.833 1131.5,147.5C 1127.01,147.163 1124.17,149.163 1123,153.5C 1114.74,174.794 1106.57,196.128 1098.5,217.5C 1091.61,218.811 1084.78,218.811 1078,217.5C 1069.22,194.49 1060.05,171.657 1050.5,149C 1048.65,147.872 1046.65,147.372 1044.5,147.5C 1044.5,144.833 1044.5,142.167 1044.5,139.5 Z"/></g>
<g><path style="opacity:1" fill="#c70000" d="M 1510.5,139.5 C 1524.17,139.5 1537.83,139.5 1551.5,139.5C 1551.5,142.167 1551.5,144.833 1551.5,147.5C 1548.81,147.336 1546.15,147.503 1543.5,148C 1542.42,148.674 1541.75,149.674 1541.5,151C 1546.13,164.563 1550.97,178.063 1556,191.5C 1561.89,177.826 1567.39,163.992 1572.5,150C 1572.09,149.055 1571.43,148.388 1570.5,148C 1567.52,147.502 1564.52,147.335 1561.5,147.5C 1561.5,144.833 1561.5,142.167 1561.5,139.5C 1573.17,139.5 1584.83,139.5 1596.5,139.5C 1596.5,142.167 1596.5,144.833 1596.5,147.5C 1590.58,146.914 1587.08,149.581 1586,155.5C 1574.36,183.276 1562.86,211.11 1551.5,239C 1552.15,240.987 1553.49,242.32 1555.5,243C 1558.82,243.498 1562.15,243.665 1565.5,243.5C 1565.5,246.167 1565.5,248.833 1565.5,251.5C 1550.83,251.5 1536.17,251.5 1521.5,251.5C 1521.5,248.833 1521.5,246.167 1521.5,243.5C 1524.85,243.665 1528.18,243.498 1531.5,243C 1533,242.417 1534.33,241.584 1535.5,240.5C 1539.42,232.314 1543.09,223.981 1546.5,215.5C 1537.44,193.717 1528.11,172.05 1518.5,150.5C 1516.25,148.377 1513.59,147.377 1510.5,147.5C 1510.5,144.833 1510.5,142.167 1510.5,139.5 Z"/></g>
<g><path style="opacity:1" fill="#c70000" d="M 161.5,149.5 C 164.044,149.104 166.211,149.771 168,151.5C 169.435,156.041 170.268,160.708 170.5,165.5C 165.821,165.666 161.155,165.499 156.5,165C 152.092,160.542 152.758,157.042 158.5,154.5C 159.26,152.64 160.26,150.973 161.5,149.5 Z"/></g>
<g><path style="opacity:1" fill="#c70000" d="M 244.5,149.5 C 246.582,149.472 248.416,150.139 250,151.5C 251.251,156.093 252.085,160.759 252.5,165.5C 247.821,165.666 243.155,165.499 238.5,165C 235.621,163.334 234.788,160.834 236,157.5C 239.503,155.443 242.336,152.776 244.5,149.5 Z"/></g>
<g><path style="opacity:1" fill="#c70000" d="M 221.5,172.5 C 224.365,172.055 226.865,172.722 229,174.5C 229.788,178.858 230.622,183.191 231.5,187.5C 230.833,187.833 230.167,188.167 229.5,188.5C 225.196,187.79 220.863,187.29 216.5,187C 212.828,183.139 213.494,179.972 218.5,177.5C 219.32,175.681 220.32,174.014 221.5,172.5 Z"/></g>
<g><path style="opacity:1" fill="#c70000" d="M 283.5,193.5 C 286.099,193.549 288.266,194.549 290,196.5C 290.923,200.79 291.423,205.123 291.5,209.5C 286.821,209.666 282.155,209.499 277.5,209C 273.017,204.1 274.017,200.934 280.5,199.5C 280.028,196.642 281.028,194.642 283.5,193.5 Z"/></g>
<g><path style="opacity:1" fill="#c70000" d="M 201.5,194.5 C 204.325,194.081 206.491,195.081 208,197.5C 208.735,201.813 209.235,206.147 209.5,210.5C 204.821,210.666 200.155,210.499 195.5,210C 192.793,208.136 191.959,205.636 193,202.5C 194.444,200.845 196.278,200.178 198.5,200.5C 198.028,197.642 199.028,195.642 201.5,194.5 Z"/></g>
<g><path style="opacity:1" fill="#c70000" d="M 263.5,214.5 C 266.157,214.162 268.49,214.829 270.5,216.5C 271.984,221.041 272.651,225.708 272.5,230.5C 267.434,230.66 262.434,230.16 257.5,229C 254.419,223.997 255.752,221.164 261.5,220.5C 261.253,218.142 261.919,216.142 263.5,214.5 Z"/></g>
<g><path style="opacity:1" fill="#c70000" d="M 178.5,217.5 C 181.365,217.055 183.865,217.722 186,219.5C 187.158,223.775 187.992,228.109 188.5,232.5C 183.489,232.666 178.489,232.499 173.5,232C 170.368,227.942 171.035,224.775 175.5,222.5C 176.32,220.681 177.32,219.014 178.5,217.5 Z"/></g>
<g><path style="opacity:1" fill="#c70000" d="M 244.5,235.5 C 247.365,235.055 249.865,235.722 252,237.5C 252.923,241.79 253.423,246.123 253.5,250.5C 248.435,250.781 243.435,250.448 238.5,249.5C 235.172,244.498 236.505,241.498 242.5,240.5C 242.392,238.486 243.058,236.82 244.5,235.5 Z"/></g>
<g><path style="opacity:1" fill="#c70000" d="M 133.5,249.5 C 140.632,249.789 142.298,252.956 138.5,259C 140.037,261.28 141.203,263.78 142,266.5C 143.666,265.66 143.833,266.16 142.5,268C 140.741,268.798 139.074,268.631 137.5,267.5C 134.479,258.33 133.312,258.663 134,268.5C 132.186,269.76 130.353,269.76 128.5,268.5C 130.099,262.967 129.766,257.634 127.5,252.5C 129.594,251.482 131.594,250.482 133.5,249.5 Z M 133.5,251.5 C 133.338,253.527 133.505,255.527 134,257.5C 136.09,255.228 135.924,253.228 133.5,251.5 Z"/></g>
<g><path style="opacity:1" fill="#c70000" d="M 170.5,250.5 C 173.016,250.755 175.35,251.589 177.5,253C 176.361,258.416 176.194,263.916 177,269.5C 178.753,268.373 180.587,267.373 182.5,266.5C 183.052,268.003 183.052,269.669 182.5,271.5C 177.899,271.599 173.565,270.599 169.5,268.5C 171.808,262.672 172.141,256.672 170.5,250.5 Z"/></g>
<g><path style="opacity:1" fill="#c70000" d="M 122.5,253.5 C 125.5,253.167 126.833,254.5 126.5,257.5C 125.07,257.579 123.736,257.246 122.5,256.5C 120.429,257.786 120.096,259.453 121.5,261.5C 123.177,257.356 124.177,257.523 124.5,262C 124.167,263.167 123.833,264.333 123.5,265.5C 122.808,264.975 122.308,264.308 122,263.5C 120.482,265.614 120.149,267.947 121,270.5C 123.439,268.973 125.439,266.973 127,264.5C 127.635,266.635 127.301,268.635 126,270.5C 122.579,271.975 119.246,273.641 116,275.5C 116.505,270.218 116.505,264.884 116,259.5C 115.5,259 115,258.5 114.5,258C 117.391,256.726 120.058,255.226 122.5,253.5 Z"/></g>
<g><path style="opacity:1" fill="#c70000" d="M 183.5,256.5 C 186.232,255.806 188.899,256.472 191.5,258.5C 190.787,261.252 191.287,263.918 193,266.5C 194.577,264.099 195.411,261.766 195.5,259.5C 196.646,260.145 197.646,260.978 198.5,262C 195.888,266.724 193.388,271.557 191,276.5C 188.582,269.74 186.082,263.074 183.5,256.5 Z"/></g>
<g><path style="opacity:1" fill="#c70000" d="M 226.5,255.5 C 229.325,255.081 231.491,256.081 233,258.5C 233.923,262.79 234.423,267.123 234.5,271.5C 229.372,271.888 224.372,271.388 219.5,270C 216.966,267.413 216.966,264.747 219.5,262C 220.793,261.51 222.127,261.343 223.5,261.5C 223.028,258.642 224.028,256.642 226.5,255.5 Z"/></g>
<g><path style="opacity:1" fill="#c70000" d="M 111.5,258.5 C 112.376,258.369 113.043,258.702 113.5,259.5C 111.773,266.422 109.44,273.089 106.5,279.5C 104.088,274.341 101.421,269.341 98.5,264.5C 100.622,262.885 102.955,262.385 105.5,263C 105.167,263.333 104.833,263.667 104.5,264C 106.823,271.479 108.489,271.312 109.5,263.5C 108.171,261.132 108.837,259.466 111.5,258.5 Z"/></g>
<g><path style="opacity:1" fill="#c70000" d="M 1167.5,259.5 C 1178.28,260.684 1182.44,266.684 1180,277.5C 1176.34,284.07 1170.84,286.237 1163.5,284C 1156.93,280.345 1154.76,274.845 1157,267.5C 1159.2,262.997 1162.7,260.33 1167.5,259.5 Z"/></g>
<g><path style="opacity:1" fill="#c70000" d="M 165.5,276.5 C 168.044,276.104 170.211,276.771 172,278.5C 173.342,277.098 174.176,277.431 174.5,279.5C 175.446,281.258 175.446,282.925 174.5,284.5C 173.061,282.64 171.395,280.973 169.5,279.5C 168.522,279.977 167.689,280.643 167,281.5C 166.163,285.295 166.496,288.961 168,292.5C 170.395,293.111 172.562,293.111 174.5,292.5C 171.698,296.749 168.031,297.582 163.5,295C 159.047,288.132 159.714,281.965 165.5,276.5 Z"/></g>
<g><path style="opacity:1" fill="#c70000" d="M 138.5,277.5 C 140.199,277.34 141.866,277.506 143.5,278C 142.185,283.47 142.185,288.97 143.5,294.5C 141.167,295.833 138.833,295.833 136.5,294.5C 137.562,291.897 137.728,289.23 137,286.5C 134.648,290.363 132.648,290.029 131,285.5C 130.833,287 130.667,288.5 130.5,290C 130.629,291.981 131.296,293.647 132.5,295C 130.553,295.991 128.553,296.325 126.5,296C 128.51,291.391 129.01,286.558 128,281.5C 127.5,281 127,280.5 126.5,280C 130.272,277.556 133.105,278.389 135,282.5C 136.802,281.211 137.969,279.544 138.5,277.5 Z"/></g>
<g><path style="opacity:1" fill="#c70000" d="M 283.5,278.5 C 285.827,278.247 287.827,278.914 289.5,280.5C 290.607,284.811 291.607,289.144 292.5,293.5C 287.082,294.897 281.749,294.731 276.5,293C 273.686,288.285 275.02,285.452 280.5,284.5C 280.028,281.642 281.028,279.642 283.5,278.5 Z"/></g>
<g><path style="opacity:1" fill="#c70000" d="M 176.5,280.5 C 176.917,279.876 177.584,279.543 178.5,279.5C 181.725,280.409 184.891,281.409 188,282.5C 188.667,283.833 188.667,285.167 188,286.5C 183.584,281.357 182.084,281.691 183.5,287.5C 184.167,287.167 184.833,286.833 185.5,286.5C 186.647,288.765 186.814,291.098 186,293.5C 185,292.167 184,290.833 183,289.5C 182.503,292.146 182.336,294.813 182.5,297.5C 185.313,297.23 187.979,296.73 190.5,296C 189.521,298.137 188.188,299.971 186.5,301.5C 183.125,300.097 179.791,298.597 176.5,297C 177,296.5 177.5,296 178,295.5C 178.667,290.833 178.667,286.167 178,281.5C 177.617,280.944 177.117,280.611 176.5,280.5 Z"/></g>
<g><path style="opacity:1" fill="#c70000" d="M 122.5,280.5 C 123.376,280.369 124.043,280.702 124.5,281.5C 123.102,288.01 121.269,294.343 119,300.5C 116.595,295.788 114.095,291.122 111.5,286.5C 112.946,284.275 114.946,283.442 117.5,284C 116.825,286.242 117.325,288.409 119,290.5C 120.132,288.661 120.965,286.661 121.5,284.5C 120.975,283.808 120.308,283.308 119.5,283C 120.571,282.148 121.571,281.315 122.5,280.5 Z"/></g>
<g><path style="opacity:1" fill="#c70000" d="M 191.5,284.5 C 195.438,285.219 198.938,286.885 202,289.5C 202.273,295.879 203.44,302.213 205.5,308.5C 203.278,308.822 201.444,308.155 200,306.5C 199.399,303.363 198.399,300.363 197,297.5C 196.788,300.332 196.621,302.998 196.5,305.5C 194.289,304.877 192.289,303.877 190.5,302.5C 191.457,296.561 191.79,290.561 191.5,284.5 Z M 196.5,289.5 C 196.215,291.288 196.548,292.955 197.5,294.5C 198.308,294.192 198.975,293.692 199.5,293C 199.026,291.271 198.026,290.105 196.5,289.5 Z"/></g>
<g><path style="opacity:1" fill="#c70000" d="M 104.5,287.5 C 109.663,287.107 111.33,289.273 109.5,294C 113.102,297.377 113.102,300.877 109.5,304.5C 106.167,306.167 102.833,307.833 99.5,309.5C 99.7927,303.386 99.4594,297.053 98.5,290.5C 100.594,289.482 102.594,288.482 104.5,287.5 Z M 103.5,290.5 C 103.343,291.873 103.51,293.207 104,294.5C 106.137,292.694 105.97,291.36 103.5,290.5 Z M 103.5,297.5 C 103.192,299.924 103.526,302.257 104.5,304.5C 106.112,303.451 107.112,301.951 107.5,300C 106.968,297.98 105.635,297.147 103.5,297.5 Z"/></g>
<g><path style="opacity:1" fill="#c70000" d="M 814.5,296.5 C 822.707,296.625 830.707,297.958 838.5,300.5C 846.095,299.234 853.762,298.567 861.5,298.5C 861.5,302.167 861.5,305.833 861.5,309.5C 856.821,309.334 852.155,309.501 847.5,310C 855.656,322.101 854.989,333.768 845.5,345C 835.553,351.576 824.553,355.243 812.5,356C 807.716,357.185 806.382,360.018 808.5,364.5C 809.5,365 810.5,365.5 811.5,366C 821.139,367.513 830.805,368.846 840.5,370C 856.4,374.632 861.567,384.799 856,400.5C 849.485,408.51 840.985,413.01 830.5,414C 818.369,415.139 806.369,414.472 794.5,412C 783.109,407.71 777.943,399.543 779,387.5C 780.736,380.763 784.903,376.263 791.5,374C 794.774,372.798 798.107,371.798 801.5,371C 794.63,370.754 790.296,367.42 788.5,361C 790.453,354.062 795.12,350.395 802.5,350C 787.56,344.713 781.393,334.213 784,318.5C 787.167,308.667 793.667,302.167 803.5,299C 807.312,298.205 810.979,297.371 814.5,296.5 Z M 813.5,306.5 C 822.082,304.87 827.582,308.204 830,316.5C 831.336,325.168 830.336,333.502 827,341.5C 817.662,347.833 810.662,345.833 806,335.5C 803.539,326.777 804.372,318.444 808.5,310.5C 810.21,309.113 811.877,307.779 813.5,306.5 Z M 811.5,376.5 C 820.314,375.097 828.147,377.097 835,382.5C 840.301,394.576 836.467,402.076 823.5,405C 814.781,406.781 807.281,404.614 801,398.5C 796.962,387.412 800.462,380.078 811.5,376.5 Z"/></g>
<g><path style="opacity:1" fill="#c70000" d="M 924.5,296.5 C 929.926,296.513 935.26,297.18 940.5,298.5C 941.498,306.472 941.831,314.472 941.5,322.5C 936.167,322.5 930.833,322.5 925.5,322.5C 925.08,309.785 919.747,307.118 909.5,314.5C 906.625,317.614 904.791,321.281 904,325.5C 903.333,338.833 903.333,352.167 904,365.5C 905.514,367.766 907.681,368.932 910.5,369C 913.817,369.498 917.15,369.665 920.5,369.5C 920.5,372.167 920.5,374.833 920.5,377.5C 903.167,377.5 885.833,377.5 868.5,377.5C 868.5,374.833 868.5,372.167 868.5,369.5C 872.22,369.436 875.886,368.936 879.5,368C 880.667,367.5 881.5,366.667 882,365.5C 882.667,347.5 882.667,329.5 882,311.5C 881.5,310.333 880.667,309.5 879.5,309C 875.848,308.501 872.182,308.335 868.5,308.5C 868.5,305.5 868.5,302.5 868.5,299.5C 879.187,299.118 889.854,298.451 900.5,297.5C 900.334,302.844 900.501,308.177 901,313.5C 905.938,303.716 913.771,298.049 924.5,296.5 Z"/></g>
<g><path style="opacity:1" fill="#c70000" d="M 982.5,296.5 C 997.709,295.172 1010.21,300.172 1020,311.5C 1027.45,327.064 1028.45,343.064 1023,359.5C 1018.26,369.633 1010.43,376.133 999.5,379C 986.88,381.721 974.88,380.054 963.5,374C 956.523,368.363 952.023,361.196 950,352.5C 947.099,339.035 948.432,326.035 954,313.5C 960.892,303.31 970.392,297.643 982.5,296.5 Z M 985.5,306.5 C 996.593,306.758 1002.76,312.425 1004,323.5C 1005.96,333.83 1005.96,344.163 1004,354.5C 1001.65,367.535 994.153,372.368 981.5,369C 975.17,365.864 971.67,360.697 971,353.5C 968.816,341.006 969.483,328.673 973,316.5C 975.432,310.882 979.599,307.549 985.5,306.5 Z"/></g>
<g><path style="opacity:1" fill="#c70000" d="M 1091.5,296.5 C 1103.25,295.356 1113.08,299.022 1121,307.5C 1122.4,310.363 1123.4,313.363 1124,316.5C 1124.33,332.833 1124.67,349.167 1125,365.5C 1125.5,366.667 1126.33,367.5 1127.5,368C 1130.79,368.826 1134.13,369.326 1137.5,369.5C 1137.5,372.167 1137.5,374.833 1137.5,377.5C 1122.5,377.5 1107.5,377.5 1092.5,377.5C 1092.5,374.833 1092.5,372.167 1092.5,369.5C 1096.65,369.599 1100.15,368.265 1103,365.5C 1103.67,350.167 1103.67,334.833 1103,319.5C 1100.82,313.306 1096.48,310.306 1090,310.5C 1079.3,311.201 1072.96,316.868 1071,327.5C 1070.33,339.833 1070.33,352.167 1071,364.5C 1071.47,365.931 1072.3,367.097 1073.5,368C 1076.17,368.567 1078.83,369.067 1081.5,369.5C 1081.5,372.167 1081.5,374.833 1081.5,377.5C 1066.17,377.5 1050.83,377.5 1035.5,377.5C 1035.5,374.833 1035.5,372.167 1035.5,369.5C 1040.38,369.826 1044.88,368.826 1049,366.5C 1050.97,347.843 1050.97,329.176 1049,310.5C 1045.08,308.688 1040.91,308.021 1036.5,308.5C 1036.5,305.5 1036.5,302.5 1036.5,299.5C 1047.19,299.118 1057.85,298.451 1068.5,297.5C 1068.33,302.511 1068.5,307.511 1069,312.5C 1073.67,302.97 1081.17,297.636 1091.5,296.5 Z"/></g>
<g><path style="opacity:1" fill="#c70000" d="M 1255.5,296.5 C 1266,295.742 1275.16,298.742 1283,305.5C 1284.61,308.382 1285.94,311.382 1287,314.5C 1287.33,331.167 1287.67,347.833 1288,364.5C 1288.47,365.931 1289.3,367.097 1290.5,368C 1293.79,368.826 1297.13,369.326 1300.5,369.5C 1300.5,372.167 1300.5,374.833 1300.5,377.5C 1285.5,377.5 1270.5,377.5 1255.5,377.5C 1255.5,374.833 1255.5,372.167 1255.5,369.5C 1259.34,369.438 1262.84,368.438 1266,366.5C 1267.98,350.508 1267.98,334.508 1266,318.5C 1263.6,312.796 1259.27,310.129 1253,310.5C 1240.95,311.554 1234.62,318.22 1234,330.5C 1233.09,342.558 1233.42,354.558 1235,366.5C 1238.16,368.438 1241.66,369.438 1245.5,369.5C 1245.5,372.167 1245.5,374.833 1245.5,377.5C 1230.17,377.5 1214.83,377.5 1199.5,377.5C 1199.5,374.833 1199.5,372.167 1199.5,369.5C 1203.22,369.436 1206.89,368.936 1210.5,368C 1211.7,367.097 1212.53,365.931 1213,364.5C 1213.17,356 1213.33,347.5 1213.5,339C 1213.63,329.43 1213.13,319.93 1212,310.5C 1211.5,310 1211,309.5 1210.5,309C 1207.18,308.502 1203.85,308.335 1200.5,308.5C 1200.5,305.5 1200.5,302.5 1200.5,299.5C 1210.85,299.07 1221.18,298.403 1231.5,297.5C 1231.33,302.844 1231.5,308.177 1232,313.5C 1236.63,303.281 1244.46,297.615 1255.5,296.5 Z"/></g>
<g><path style="opacity:1" fill="#c70000" d="M 1344.5,296.5 C 1352.71,296.625 1360.71,297.958 1368.5,300.5C 1376.1,299.234 1383.76,298.567 1391.5,298.5C 1391.5,302.167 1391.5,305.833 1391.5,309.5C 1386.82,309.334 1382.15,309.501 1377.5,310C 1386.24,323.65 1384.57,335.983 1372.5,347C 1363.21,352.159 1353.21,355.159 1342.5,356C 1335.23,359.08 1334.9,362.413 1341.5,366C 1351.14,367.513 1360.81,368.846 1370.5,370C 1385.05,373.579 1390.55,382.746 1387,397.5C 1381.27,407.634 1372.43,413.134 1360.5,414C 1348.37,415.139 1336.37,414.472 1324.5,412C 1312.3,407.759 1307.13,399.259 1309,386.5C 1313.56,377.287 1321.06,372.121 1331.5,371C 1324.63,370.754 1320.3,367.42 1318.5,361C 1320.45,354.062 1325.12,350.395 1332.5,350C 1314.64,343.103 1309.14,330.603 1316,312.5C 1322.99,302.59 1332.49,297.256 1344.5,296.5 Z M 1343.5,306.5 C 1352.65,304.827 1358.15,308.494 1360,317.5C 1361.32,325.839 1360.32,333.839 1357,341.5C 1351.92,346.205 1346.42,346.705 1340.5,343C 1334.58,334.658 1333.08,325.491 1336,315.5C 1337.11,311.234 1339.61,308.234 1343.5,306.5 Z M 1341.5,376.5 C 1349.71,375.364 1357.21,377.031 1364,381.5C 1370.28,394.118 1366.44,401.952 1352.5,405C 1344.09,406.61 1336.92,404.443 1331,398.5C 1326.76,387.308 1330.26,379.975 1341.5,376.5 Z"/></g>
<g><path style="opacity:1" fill="#c70000" d="M 1435.5,296.5 C 1466.62,294.716 1480.62,309.383 1477.5,340.5C 1459.5,340.5 1441.5,340.5 1423.5,340.5C 1421.92,350.709 1424.59,359.542 1431.5,367C 1438.31,371.19 1445.31,371.523 1452.5,368C 1456.85,363.79 1459.19,358.623 1459.5,352.5C 1465.13,351.505 1470.79,351.171 1476.5,351.5C 1476.28,366.885 1468.62,376.052 1453.5,379C 1416.65,383.821 1399.49,367.655 1402,330.5C 1404.72,310.619 1415.88,299.286 1435.5,296.5 Z M 1435.5,306.5 C 1445.69,305.005 1452.53,309.005 1456,318.5C 1457.02,322.44 1457.52,326.44 1457.5,330.5C 1446.17,330.5 1434.83,330.5 1423.5,330.5C 1422.04,319.442 1426.04,311.442 1435.5,306.5 Z"/></g>
<g><path style="opacity:1" fill="#c70000" d="M 1544.5,296.5 C 1551.72,296.37 1558.72,297.537 1565.5,300C 1571.62,303.454 1575.45,308.621 1577,315.5C 1577.33,331.833 1577.67,348.167 1578,364.5C 1578.47,365.931 1579.3,367.097 1580.5,368C 1583.79,368.826 1587.13,369.326 1590.5,369.5C 1590.5,372.167 1590.5,374.833 1590.5,377.5C 1575.5,377.5 1560.5,377.5 1545.5,377.5C 1545.5,374.833 1545.5,372.167 1545.5,369.5C 1549.34,369.438 1552.84,368.438 1556,366.5C 1556.67,350.833 1556.67,335.167 1556,319.5C 1554.14,313.062 1549.81,310.062 1543,310.5C 1531.87,311.299 1525.53,317.299 1524,328.5C 1523.33,340.5 1523.33,352.5 1524,364.5C 1524.47,365.931 1525.3,367.097 1526.5,368C 1529.17,368.567 1531.83,369.067 1534.5,369.5C 1534.5,372.167 1534.5,374.833 1534.5,377.5C 1519.17,377.5 1503.83,377.5 1488.5,377.5C 1488.5,374.833 1488.5,372.167 1488.5,369.5C 1493.38,369.826 1497.88,368.826 1502,366.5C 1503.11,357.224 1503.61,347.89 1503.5,338.5C 1503.61,329.11 1503.11,319.776 1502,310.5C 1501.5,310 1501,309.5 1500.5,309C 1496.85,308.501 1493.18,308.335 1489.5,308.5C 1489.5,305.5 1489.5,302.5 1489.5,299.5C 1500.19,299.118 1510.85,298.451 1521.5,297.5C 1521.33,302.511 1521.5,307.511 1522,312.5C 1526.89,303.319 1534.39,297.985 1544.5,296.5 Z"/></g>
<g><path style="opacity:1" fill="#c70000" d="M 1171.5,297.5 C 1174.17,297.5 1176.83,297.5 1179.5,297.5C 1179.33,320.169 1179.5,342.836 1180,365.5C 1180.37,366.416 1180.87,367.25 1181.5,368C 1185.11,368.936 1188.78,369.436 1192.5,369.5C 1192.5,372.167 1192.5,374.833 1192.5,377.5C 1176.5,377.5 1160.5,377.5 1144.5,377.5C 1144.5,374.833 1144.5,372.167 1144.5,369.5C 1149.61,369.854 1154.11,368.521 1158,365.5C 1158.81,347.302 1158.65,329.135 1157.5,311C 1157.09,310.055 1156.43,309.388 1155.5,309C 1152.18,308.502 1148.85,308.335 1145.5,308.5C 1145.5,305.5 1145.5,302.5 1145.5,299.5C 1154.35,299.311 1163.02,298.645 1171.5,297.5 Z"/></g>
<g><path style="opacity:1" fill="#c70000" d="M 20.5,300.5 C 23.3245,300.081 25.4912,301.081 27,303.5C 27.9225,307.79 28.4225,312.123 28.5,316.5C 23.8215,316.666 19.1548,316.499 14.5,316C 10.9281,313.374 10.5948,310.374 13.5,307C 14.7932,306.51 16.1266,306.343 17.5,306.5C 17.0283,303.642 18.0283,301.642 20.5,300.5 Z"/></g>
<g><path style="opacity:1" fill="#c70000" d="M 135.5,302.5 C 136.978,302.238 138.311,302.571 139.5,303.5C 138.543,309.439 138.21,315.439 138.5,321.5C 136.143,321.663 133.81,321.497 131.5,321C 132,320.5 132.5,320 133,319.5C 133.781,314.446 133.614,309.446 132.5,304.5C 133.602,303.824 134.602,303.158 135.5,302.5 Z"/></g>
<g><path style="opacity:1" fill="#c70000" d="M 127.5,304.5 C 128.043,304.56 128.376,304.893 128.5,305.5C 127.872,311.478 127.206,317.478 126.5,323.5C 124.545,321.042 122.378,318.709 120,316.5C 119.272,319.23 119.438,321.897 120.5,324.5C 119.032,326.333 117.365,326.666 115.5,325.5C 116.833,320.5 116.833,315.5 115.5,310.5C 116.736,309.643 118.069,308.977 119.5,308.5C 121.858,310.024 123.691,312.024 125,314.5C 125.845,311.87 125.345,309.536 123.5,307.5C 124.901,306.479 126.235,305.479 127.5,304.5 Z"/></g>
<g><path style="opacity:1" fill="#c70000" d="M 168.5,305.5 C 169.601,304.402 170.934,304.235 172.5,305C 175.037,307.906 177.204,311.073 179,314.5C 179.711,312.101 179.544,309.768 178.5,307.5C 179.79,306.592 181.123,306.759 182.5,308C 181.69,313.751 181.19,319.584 181,325.5C 177.837,321.844 175.171,317.844 173,313.5C 172.223,316.429 172.39,319.263 173.5,322C 172.056,322.781 170.723,322.614 169.5,321.5C 170.614,316.554 170.781,311.554 170,306.5C 169.617,305.944 169.117,305.611 168.5,305.5 Z"/></g>
<g><path style="opacity:1" fill="#c70000" d="M 187.5,311.5 C 189.377,310.375 191.21,310.709 193,312.5C 194.642,318.927 196.808,325.093 199.5,331C 196.581,331.552 193.914,330.885 191.5,329C 192.167,328.667 192.833,328.333 193.5,328C 192.663,326.989 192.33,325.822 192.5,324.5C 190.5,324.167 188.5,323.833 186.5,323.5C 186.33,324.822 186.663,325.989 187.5,327C 185.681,327.783 184.348,327.283 183.5,325.5C 185.841,320.76 187.175,316.093 187.5,311.5 Z M 190.5,320.5 C 190.719,319.325 190.386,318.325 189.5,317.5C 188.202,319.052 188.535,320.052 190.5,320.5 Z"/></g>
<g><path style="opacity:1" fill="#c70000" d="M 106.5,313.5 C 113.509,313.129 116.009,316.462 114,323.5C 113.654,325.848 112.487,327.681 110.5,329C 107.792,330.069 105.125,331.236 102.5,332.5C 102.52,328.005 102.354,323.338 102,318.5C 101.5,318 101,317.5 100.5,317C 102.727,316.059 104.727,314.892 106.5,313.5 Z M 107.5,315.5 C 106.235,319.454 106.235,323.454 107.5,327.5C 108.993,325.636 109.66,323.47 109.5,321C 109.333,319.5 109.167,318 109,316.5C 108.617,315.944 108.117,315.611 107.5,315.5 Z"/></g>
<g><path style="opacity:1" fill="#c70000" d="M 69.5,332.5 C 71.5824,332.472 73.4157,333.139 75,334.5C 76.0666,339.136 76.8999,343.802 77.5,348.5C 72.0414,348.897 66.7081,348.397 61.5,347C 59.2834,342.299 60.6167,339.466 65.5,338.5C 65.6574,335.682 66.9908,333.682 69.5,332.5 Z"/></g>
<g><path style="opacity:1" fill="#c70000" d="M 50.5,352.5 C 52.8273,352.247 54.8273,352.914 56.5,354.5C 57.7769,358.774 58.7769,363.108 59.5,367.5C 54.0824,368.897 48.7491,368.731 43.5,367C 42.2234,364.534 42.2234,362.034 43.5,359.5C 44.7362,358.754 46.0695,358.421 47.5,358.5C 47.461,355.911 48.461,353.911 50.5,352.5 Z"/></g>
<g><path style="opacity:1" fill="#c70000" d="M 132.5,352.5 C 135.652,351.959 138.152,352.959 140,355.5C 140.923,359.79 141.423,364.123 141.5,368.5C 136.42,368.75 131.42,368.25 126.5,367C 123.024,361.86 124.357,359.026 130.5,358.5C 130.253,356.142 130.919,354.142 132.5,352.5 Z"/></g>
<g><path style="opacity:1" fill="#c70000" d="M 31.5,372.5 C 34.1569,372.162 36.4902,372.829 38.5,374.5C 39.9845,379.041 40.6512,383.708 40.5,388.5C 35.4636,388.412 30.4636,387.912 25.5,387C 22.4188,381.997 23.7521,379.164 29.5,378.5C 29.2525,376.142 29.9192,374.142 31.5,372.5 Z"/></g>
<g><path style="opacity:1" fill="#c70000" d="M 111.5,375.5 C 114.157,375.162 116.49,375.829 118.5,377.5C 119.632,382.091 120.299,386.758 120.5,391.5C 115.519,390.911 110.519,390.411 105.5,390C 102.288,385.583 103.288,382.416 108.5,380.5C 109.26,378.64 110.26,376.973 111.5,375.5 Z"/></g>
<g><path style="opacity:1" fill="#c70000" d="M 92.5,397.5 C 94.0295,398.067 95.5295,398.733 97,399.5C 98.3731,404.072 99.2065,408.739 99.5,413.5C 94.4889,413.666 89.4889,413.499 84.5,413C 82.5561,410.847 82.0561,408.347 83,405.5C 86.4034,402.911 89.57,400.244 92.5,397.5 Z"/></g>
<g><path style="opacity:1" fill="#c70000" d="M 70.5,420.5 C 72.5824,420.472 74.4157,421.139 76,422.5C 77.2513,427.093 78.0847,431.759 78.5,436.5C 73.0414,436.897 67.7081,436.397 62.5,435C 60.2834,430.299 61.6167,427.466 66.5,426.5C 66.6574,423.682 67.9908,421.682 70.5,420.5 Z"/></g>
<g><path style="opacity:1" fill="#c70000" d="M 136.5,440.5 C 138.679,440.84 140.512,441.84 142,443.5C 142.728,447.536 143.561,451.536 144.5,455.5C 139.533,456.662 134.533,456.829 129.5,456C 125.936,453.145 125.936,450.145 129.5,447C 130.448,446.517 131.448,446.351 132.5,446.5C 132.657,443.682 133.991,441.682 136.5,440.5 Z"/></g>
</svg>
